<svg width="1043" height="321" viewBox="0 0 1043 321" fill="none" xmlns="http://www.w3.org/2000/svg">
<path d="M32.2864 27.3738V145.757H14.9998H56.1615V6.81543H14.9998" stroke="#FF5B22" stroke-width="10" stroke-miterlimit="10"/>
<path d="M73.0549 142.671C85.8731 148.543 100.436 146.574 110.564 137.35C124.083 125.058 125.322 103.878 118.718 89.4575C112.879 76.7216 100.534 68.3493 92.6246 68.1719C92.4779 68.1719 92.4615 68.1719 84.4706 68.1719C83.1496 68.1719 74.3432 68.1719 73.0549 68.1719" stroke="#FF5B22" stroke-width="10" stroke-miterlimit="10"/>
<path d="M51.8625 7.86132C59.8372 6.58418 66.5399 6.19395 71.4323 6.08752C82.3098 5.85692 89.4039 5.80371 97.5253 9.63511C100.934 11.2493 105.337 13.3956 108.941 18.5041C113.116 24.4286 113.687 30.7256 113.833 32.6945C113.931 34.0248 114.241 39.0979 112.203 45.1111C109.642 52.6497 105.011 56.9601 102.418 59.3015C95.6336 65.4565 88.4091 67.4432 84.4788 68.1705" stroke="#FF5B22" stroke-width="10" stroke-miterlimit="10"/>
<path d="M95.3192 293.626L95.3192 175.243H112.606H71.444L71.444 314.185H112.606" stroke="#110CFF" stroke-width="10" stroke-miterlimit="10"/>
<path d="M54.5507 178.329C41.7325 172.457 27.1694 174.426 17.042 183.65C3.52257 195.942 2.28315 217.122 8.88795 231.543C14.7263 244.278 27.0715 252.651 34.981 252.828C35.1277 252.828 35.144 252.828 43.135 252.828C44.456 252.828 53.2624 252.828 54.5507 252.828" stroke="#110CFF" stroke-width="10" stroke-miterlimit="10"/>
<path d="M75.743 313.139C67.7684 314.416 61.0657 314.806 56.1733 314.912C45.2958 315.143 38.2017 315.196 30.0803 311.365C26.6719 309.751 22.2687 307.604 18.6646 302.496C14.4897 296.571 13.9189 290.274 13.7721 288.306C13.6743 286.975 13.3644 281.902 15.4029 275.889C17.9633 268.35 22.5948 264.04 25.1878 261.699C31.972 255.543 39.1965 253.557 43.1268 252.83" stroke="#110CFF" stroke-width="10" stroke-miterlimit="10"/>
<path d="M146.916 25.8516V146H127H194.2" stroke="#FF5B22" stroke-width="10" stroke-miterlimit="10"/>
<path d="M127 6H175.419H194.2" stroke="#FF5B22" stroke-width="10" stroke-miterlimit="10"/>
<path d="M175.419 6V139.885" stroke="#FF5B22" stroke-width="10" stroke-miterlimit="10"/>
<path d="M164.284 295.148V175H184.2H117" stroke="#110CFF" stroke-width="10" stroke-miterlimit="10"/>
<path d="M184.2 315H135.781H117" stroke="#110CFF" stroke-width="10" stroke-miterlimit="10"/>
<path d="M135.781 315L135.781 181.115" stroke="#110CFF" stroke-width="10" stroke-miterlimit="10"/>
<path d="M199 6H244.904H267.495" stroke="#FF5B22" stroke-width="10" stroke-miterlimit="10"/>
<path d="M252.896 146H199H219.662V25.8721" stroke="#FF5B22" stroke-width="10" stroke-miterlimit="10"/>
<path d="M246.07 11.4199V139.641" stroke="#FF5B22" stroke-width="10" stroke-miterlimit="10"/>
<path d="M267.497 145.999H317.534V126.905" stroke="#FF5B22" stroke-width="10" stroke-miterlimit="10"/>
<path d="M307.534 315H261.629H239.038" stroke="#110CFF" stroke-width="10" stroke-miterlimit="10"/>
<path d="M253.638 175H307.534H286.872V295.128" stroke="#110CFF" stroke-width="10" stroke-miterlimit="10"/>
<path d="M260.463 309.58V181.359" stroke="#110CFF" stroke-width="10" stroke-miterlimit="10"/>
<path d="M239.036 175.001H189V194.095" stroke="#110CFF" stroke-width="10" stroke-miterlimit="10"/>
<path d="M326 6H371.904H394.495" stroke="#FF5B22" stroke-width="10" stroke-miterlimit="10"/>
<path d="M379.896 146H326H346.662V25.8721" stroke="#FF5B22" stroke-width="10" stroke-miterlimit="10"/>
<path d="M373.07 11.4199V139.641" stroke="#FF5B22" stroke-width="10" stroke-miterlimit="10"/>
<path d="M394.497 145.999H444.534V126.905" stroke="#FF5B22" stroke-width="10" stroke-miterlimit="10"/>
<path d="M434.534 315H388.629H366.038" stroke="#110CFF" stroke-width="10" stroke-miterlimit="10"/>
<path d="M380.638 175H434.534H413.872V295.128" stroke="#110CFF" stroke-width="10" stroke-miterlimit="10"/>
<path d="M387.463 309.58V181.359" stroke="#110CFF" stroke-width="10" stroke-miterlimit="10"/>
<path d="M366.036 175.001H316V194.095" stroke="#110CFF" stroke-width="10" stroke-miterlimit="10"/>
<path d="M513.875 70.7832H548.373" stroke="#FF5B22" stroke-width="10" stroke-miterlimit="10"/>
<path d="M474.875 24.9414V146L457 145.963L556.157 146V127.571" stroke="#FF5B22" stroke-width="10" stroke-miterlimit="10"/>
<path d="M457 6H556.157V24.9417" stroke="#FF5B22" stroke-width="10" stroke-miterlimit="10"/>
<path d="M497.625 12.1064V142.058" stroke="#FF5B22" stroke-width="10" stroke-miterlimit="10"/>
<path d="M489.282 250.217H454.784" stroke="#110CFF" stroke-width="10" stroke-miterlimit="10"/>
<path d="M528.282 296.059V175L546.157 175.037L447 175V193.429" stroke="#110CFF" stroke-width="10" stroke-miterlimit="10"/>
<path d="M546.157 315H447V296.058" stroke="#110CFF" stroke-width="10" stroke-miterlimit="10"/>
<path d="M505.532 308.894V178.942" stroke="#110CFF" stroke-width="10" stroke-miterlimit="10"/>
<path d="M565 6H675.133V24.7635" stroke="#FF5B22" stroke-width="10" stroke-miterlimit="10"/>
<path d="M610.3 24.7637V146H591.202H654.709" stroke="#FF5B22" stroke-width="10" stroke-miterlimit="10"/>
<path d="M635.666 11.5537V143.606" stroke="#FF5B22" stroke-width="10" stroke-miterlimit="10"/>
<path d="M665.133 315H555V296.237" stroke="#110CFF" stroke-width="10" stroke-miterlimit="10"/>
<path d="M619.833 296.236V175H638.931H575.424" stroke="#110CFF" stroke-width="10" stroke-miterlimit="10"/>
<path d="M594.467 309.446V177.394" stroke="#110CFF" stroke-width="10" stroke-miterlimit="10"/>
<path d="M684 6H794.133V24.7635" stroke="#FF5B22" stroke-width="10" stroke-miterlimit="10"/>
<path d="M729.3 24.7637V146H710.202H773.709" stroke="#FF5B22" stroke-width="10" stroke-miterlimit="10"/>
<path d="M754.666 11.5537V143.606" stroke="#FF5B22" stroke-width="10" stroke-miterlimit="10"/>
<path d="M784.133 315H674V296.237" stroke="#110CFF" stroke-width="10" stroke-miterlimit="10"/>
<path d="M738.833 296.236V175H757.931H694.424" stroke="#110CFF" stroke-width="10" stroke-miterlimit="10"/>
<path d="M713.467 309.446V177.394" stroke="#110CFF" stroke-width="10" stroke-miterlimit="10"/>
<path d="M981.06 67.5545C983.835 68.5308 991.443 70.7447 1000.2 67.5545C1014.04 62.4991 1018.81 48.2742 1019.34 46.6355C1020.11 44.2299 1024 31.9748 1017.75 20.4868C1011.84 9.62635 1001.06 7.11607 998.605 6.5408C994.984 5.70404 990.869 5.98296 982.655 6.5408C976.036 6.99404 970.549 7.70878 966.705 8.28405" stroke="#FF5B22" stroke-width="10" stroke-miterlimit="10"/>
<path d="M942.905 24.2002V146H926H953.3H980.6" stroke="#FF5B22" stroke-width="10" stroke-miterlimit="10"/>
<path d="M926 6H965.2V141.8" stroke="#FF5B22" stroke-width="10" stroke-miterlimit="10"/>
<path d="M1038 154L999 72" stroke="#FF5B22" stroke-width="10" stroke-miterlimit="10"/>
<path d="M972.94 253.445C970.164 252.469 962.556 250.255 953.8 253.445C939.955 258.501 935.186 272.726 934.659 274.364C933.894 276.77 930.002 289.025 936.254 300.513C942.156 311.374 952.938 313.884 955.395 314.459C959.015 315.296 963.13 315.017 971.345 314.459C977.964 314.006 983.451 313.291 987.295 312.716" stroke="#110CFF" stroke-width="10" stroke-miterlimit="10"/>
<path d="M1011.09 296.8V175H1028H1000.7H973.4" stroke="#110CFF" stroke-width="10" stroke-miterlimit="10"/>
<path d="M1028 315H988.8V179.2" stroke="#110CFF" stroke-width="10" stroke-miterlimit="10"/>
<path d="M916 167L955 249" stroke="#110CFF" stroke-width="10" stroke-miterlimit="10"/>
<path d="M865.875 70.7832H900.373" stroke="#FF5B22" stroke-width="10" stroke-miterlimit="10"/>
<path d="M826.875 24.9414V146L809 145.963L908.157 146V127.571" stroke="#FF5B22" stroke-width="10" stroke-miterlimit="10"/>
<path d="M809 6H908.157V24.9417" stroke="#FF5B22" stroke-width="10" stroke-miterlimit="10"/>
<path d="M849.625 12.1064V142.058" stroke="#FF5B22" stroke-width="10" stroke-miterlimit="10"/>
<path d="M841.282 250.217H806.784" stroke="#110CFF" stroke-width="10" stroke-miterlimit="10"/>
<path d="M880.282 296.059V175L898.157 175.037L799 175V193.429" stroke="#110CFF" stroke-width="10" stroke-miterlimit="10"/>
<path d="M898.157 315H799V296.058" stroke="#110CFF" stroke-width="10" stroke-miterlimit="10"/>
<path d="M857.532 308.894V178.942" stroke="#110CFF" stroke-width="10" stroke-miterlimit="10"/>
</svg>
