<svg width="103" height="103" viewBox="0 0 103 103" fill="none" xmlns="http://www.w3.org/2000/svg">
<path d="M25.7498 21.9776C23.9903 21.9776 22.5311 20.5185 22.5311 18.7589V11.2485C22.5311 9.48889 23.9903 8.02972 25.7498 8.02972C27.5094 8.02972 28.9686 9.48889 28.9686 11.2485V18.7589C28.9686 20.5614 27.5094 21.9776 25.7498 21.9776ZM42.9165 21.9776C41.1569 21.9776 39.6978 20.5185 39.6978 18.7589V11.2485C39.6978 9.48889 41.1569 8.02972 42.9165 8.02972C44.6761 8.02972 46.1353 9.48889 46.1353 11.2485V18.7589C46.1353 20.5614 44.6761 21.9776 42.9165 21.9776ZM60.0832 21.9776C58.3236 21.9776 56.8644 20.5185 56.8644 18.7589V11.2485C56.8644 9.48889 58.3236 8.02972 60.0832 8.02972C61.8427 8.02972 63.3019 9.48889 63.3019 11.2485V18.7589C63.3019 20.5614 61.8427 21.9776 60.0832 21.9776ZM95.4894 56.8732C95.4894 45.629 86.7773 36.5307 75.7907 35.5865C72.6148 30.3936 66.9498 26.8744 60.4265 26.8744H28.7969C18.8403 26.8744 10.729 34.9857 10.729 44.9423V47.2169H78.4944V44.9423C78.4944 44.1269 78.3657 43.3115 78.2369 42.539C84.4598 44.3844 89.0519 50.0494 89.0519 56.8732C89.0519 63.6111 84.5886 69.2332 78.4944 71.1215V51.5086H10.729V76.3573C10.729 86.314 18.8403 94.4253 28.7969 94.4253H60.4265C69.8682 94.4253 77.5502 87.1294 78.3227 77.8594C88.1077 75.8853 95.4894 67.2161 95.4894 56.8732Z" fill="#110CFF"/>
</svg>
