<svg width="985" height="320" viewBox="0 0 985 320" fill="none" xmlns="http://www.w3.org/2000/svg">
<path d="M100.969 67.8789H65.0143" stroke="#FF5B22" stroke-width="10" stroke-miterlimit="10"/>
<path d="M5.52454 5H108.515V25.3382" stroke="#FF5B22" stroke-width="10" stroke-miterlimit="10"/>
<path d="M22.8505 25.3379L22.7151 145H5.00024H66.1649" stroke="#FF5B22" stroke-width="10" stroke-miterlimit="10"/>
<path d="M46.4028 6.90234V139.621" stroke="#FF5B22" stroke-width="10" stroke-miterlimit="10"/>
<path d="M12.5461 251.121H48.5004" stroke="#110CFF" stroke-width="10" stroke-miterlimit="10"/>
<path d="M107.99 314H5.00005V293.662" stroke="#110CFF" stroke-width="10" stroke-miterlimit="10"/>
<path d="M90.6641 293.662L90.7995 174H108.514H47.3498" stroke="#110CFF" stroke-width="10" stroke-miterlimit="10"/>
<path d="M67.1119 312.098L67.1119 179.379" stroke="#110CFF" stroke-width="10" stroke-miterlimit="10"/>
<path d="M898.559 25.0605V139.457" stroke="#FF5B22" stroke-width="10" stroke-miterlimit="10"/>
<path d="M938.264 114.025V94.0566H984.157" stroke="#FF5B22" stroke-width="10" stroke-miterlimit="10"/>
<path d="M965.465 97.5298C965.429 99.5838 965.393 103.001 965.465 106.876C965.608 114.771 965.465 116.69 965.465 118.559C965.465 120.429 965.688 122.298 964.53 125.569C963.833 127.539 963.595 131.177 958.922 135.85C958.238 136.535 951.36 143.03 945.37 144.262C942.196 144.923 938.552 144.958 925.029 144.886C922.931 144.886 921.156 144.886 919.362 144.886C910.79 144.904 909.821 145.029 907.131 144.994C900.012 144.886 895.958 144.708 890.991 143.083C884.319 140.904 880.517 136.742 879.639 135.813C878.814 134.938 875.89 131.741 873.971 126.74C872.644 123.275 872.339 120.382 872.088 117.667C871.873 115.417 872.124 116.203 872.088 108.594C872.088 104.593 871.981 98.6994 872.088 94.0735C872.088 94.0199 872.088 93.9485 872.088 93.877C872.16 90.1621 872.088 87.4473 872.088 86.8043C872.053 84.8932 872.035 80.1602 872.088 68.6402V41.4031C872.088 36.1164 872.088 36.2414 872.088 35.9556C872.339 30.1689 873.702 25.9538 873.971 25.0608C874.653 22.9354 875.299 20.9529 876.805 18.5953C879.513 14.3266 883.028 12.0227 885.324 10.5402C886.633 9.7008 889.251 8.14694 892.892 6.91457C897.142 5.48574 900.747 5.18211 902.343 5.09281C902.738 5.07495 904.316 5.07494 907.472 5.07494C909.893 5.07494 910.718 5.07495 913.695 5.09281C915.722 5.09281 917.372 5.09281 919.362 5.09281C922.25 5.09281 922.895 5.05708 927.504 5.02136C932.472 4.98564 933.261 4.98564 934.499 5.09281C936.956 5.30713 938.91 5.6822 939.789 5.86081C941.331 6.18229 942.479 6.50378 943.95 6.91457C945.976 7.48611 947.285 7.84331 948.505 8.30768C952.056 9.64722 954.441 11.6297 955.302 12.362C958.404 15.0053 959.947 17.7559 960.969 19.6312C964.269 25.6502 964.854 30.6133 964.997 33.5067C964.997 34.9086 964.997 36.7779 964.997 37.7126" stroke="#FF5B22" stroke-width="10" stroke-miterlimit="10"/>
<path d="M939.598 294.939V180.543" stroke="#110CFF" stroke-width="10" stroke-miterlimit="10"/>
<path d="M899.893 205.975V225.943H854" stroke="#110CFF" stroke-width="10" stroke-miterlimit="10"/>
<path d="M872.693 222.47C872.729 220.416 872.765 216.999 872.693 213.124C872.55 205.229 872.693 203.31 872.693 201.441C872.693 199.571 872.47 197.702 873.628 194.431C874.325 192.461 874.562 188.823 879.236 184.15C879.92 183.465 886.798 176.97 892.788 175.738C895.962 175.077 899.606 175.042 913.128 175.114C915.227 175.114 917.002 175.114 918.795 175.114C927.368 175.096 928.336 174.971 931.026 175.006C938.146 175.114 942.199 175.292 947.167 176.917C953.838 179.096 957.64 183.258 958.519 184.187C959.344 185.062 962.267 188.259 964.186 193.26C965.513 196.725 965.818 199.618 966.069 202.333C966.285 204.583 966.033 203.797 966.069 211.406C966.069 215.407 966.177 221.301 966.069 225.926C966.069 225.98 966.069 226.052 966.069 226.123C965.998 229.838 966.069 232.553 966.069 233.196C966.105 235.107 966.123 239.84 966.069 251.36V278.597C966.069 283.884 966.069 283.759 966.069 284.044C965.818 289.831 964.455 294.046 964.186 294.939C963.505 297.065 962.859 299.047 961.353 301.405C958.645 305.673 955.13 307.977 952.834 309.46C951.525 310.299 948.907 311.853 945.266 313.085C941.016 314.514 937.411 314.818 935.815 314.907C935.42 314.925 933.842 314.925 930.686 314.925C928.265 314.925 927.44 314.925 924.463 314.907C922.436 314.907 920.786 314.907 918.795 314.907C915.908 314.907 915.262 314.943 910.653 314.979C905.686 315.014 904.897 315.014 903.659 314.907C901.202 314.693 899.247 314.318 898.369 314.139C896.826 313.818 895.679 313.496 894.208 313.085C892.181 312.514 890.872 312.157 889.653 311.692C886.102 310.353 883.717 308.37 882.856 307.638C879.753 304.995 878.211 302.244 877.189 300.369C873.889 294.35 873.304 289.387 873.16 286.493C873.16 285.091 873.16 283.222 873.16 282.287" stroke="#110CFF" stroke-width="10" stroke-miterlimit="10"/>
<path d="M471.916 24.8516V145H452H519.2" stroke="#FF5B22" stroke-width="10" stroke-miterlimit="10"/>
<path d="M452 5H500.419H519.2" stroke="#FF5B22" stroke-width="10" stroke-miterlimit="10"/>
<path d="M500.419 5V138.885" stroke="#FF5B22" stroke-width="10" stroke-miterlimit="10"/>
<path d="M499.284 295.148V175H519.2H452" stroke="#110CFF" stroke-width="10" stroke-miterlimit="10"/>
<path d="M519.2 315H470.781H452" stroke="#110CFF" stroke-width="10" stroke-miterlimit="10"/>
<path d="M470.781 315V181.115" stroke="#110CFF" stroke-width="10" stroke-miterlimit="10"/>
<path d="M806.916 24.8516V145H787H854.2" stroke="#FF5B22" stroke-width="10" stroke-miterlimit="10"/>
<path d="M787 5H835.419H854.2" stroke="#FF5B22" stroke-width="10" stroke-miterlimit="10"/>
<path d="M835.419 5V138.885" stroke="#FF5B22" stroke-width="10" stroke-miterlimit="10"/>
<path d="M834.284 295.148V175H854.2H787" stroke="#110CFF" stroke-width="10" stroke-miterlimit="10"/>
<path d="M854.2 315H805.781H787" stroke="#110CFF" stroke-width="10" stroke-miterlimit="10"/>
<path d="M805.781 315V181.115" stroke="#110CFF" stroke-width="10" stroke-miterlimit="10"/>
<path d="M260.916 24.8516V145H241H308.2" stroke="#FF5B22" stroke-width="10" stroke-miterlimit="10"/>
<path d="M241 5H289.419H308.2" stroke="#FF5B22" stroke-width="10" stroke-miterlimit="10"/>
<path d="M289.419 5V138.885" stroke="#FF5B22" stroke-width="10" stroke-miterlimit="10"/>
<path d="M288.284 295.148V175H308.2H241" stroke="#110CFF" stroke-width="10" stroke-miterlimit="10"/>
<path d="M308.2 315H259.781H241" stroke="#110CFF" stroke-width="10" stroke-miterlimit="10"/>
<path d="M259.781 315V181.115" stroke="#110CFF" stroke-width="10" stroke-miterlimit="10"/>
<path d="M658 5H703.904H726.496" stroke="#FF5B22" stroke-width="10" stroke-miterlimit="10"/>
<path d="M711.896 144.999H658H678.662V24.8711" stroke="#FF5B22" stroke-width="10" stroke-miterlimit="10"/>
<path d="M705.071 10.4199V138.641" stroke="#FF5B22" stroke-width="10" stroke-miterlimit="10"/>
<path d="M726.497 144.998H776.533V125.904" stroke="#FF5B22" stroke-width="10" stroke-miterlimit="10"/>
<path d="M781.533 315H735.629H713.038" stroke="#110CFF" stroke-width="10" stroke-miterlimit="10"/>
<path d="M727.638 175.001H781.533H760.872V295.129" stroke="#110CFF" stroke-width="10" stroke-miterlimit="10"/>
<path d="M734.463 309.58V181.359" stroke="#110CFF" stroke-width="10" stroke-miterlimit="10"/>
<path d="M713.037 175.002H663V194.096" stroke="#110CFF" stroke-width="10" stroke-miterlimit="10"/>
<path d="M529 5H574.904H597.496" stroke="#FF5B22" stroke-width="10" stroke-miterlimit="10"/>
<path d="M582.896 144.999H529H549.662V24.8711" stroke="#FF5B22" stroke-width="10" stroke-miterlimit="10"/>
<path d="M576.071 10.4199V138.641" stroke="#FF5B22" stroke-width="10" stroke-miterlimit="10"/>
<path d="M597.497 144.998H647.533V125.904" stroke="#FF5B22" stroke-width="10" stroke-miterlimit="10"/>
<path d="M651.533 315H605.629H583.038" stroke="#110CFF" stroke-width="10" stroke-miterlimit="10"/>
<path d="M597.638 175.001H651.533H630.872V295.129" stroke="#110CFF" stroke-width="10" stroke-miterlimit="10"/>
<path d="M604.463 309.58V181.359" stroke="#110CFF" stroke-width="10" stroke-miterlimit="10"/>
<path d="M583.037 175.002H533V194.096" stroke="#110CFF" stroke-width="10" stroke-miterlimit="10"/>
<path d="M174.06 66.5536C176.836 67.5298 184.444 69.7437 193.201 66.5536C207.045 61.4981 211.814 47.2732 212.341 45.6346C213.106 43.2289 216.998 30.9738 210.746 19.4858C204.844 8.62538 194.062 6.1151 191.606 5.53982C187.985 4.70306 183.87 4.98198 175.655 5.53982C169.036 5.99307 163.549 6.7078 159.705 7.28307" stroke="#FF5B22" stroke-width="10" stroke-miterlimit="10"/>
<path d="M135.906 23.1992V144.999H119H146.3H173.6" stroke="#FF5B22" stroke-width="10" stroke-miterlimit="10"/>
<path d="M119 5H158.2V140.8" stroke="#FF5B22" stroke-width="10" stroke-miterlimit="10"/>
<path d="M231 153L192 71" stroke="#FF5B22" stroke-width="10" stroke-miterlimit="10"/>
<path d="M175.94 253.446C173.165 252.47 165.557 250.256 156.8 253.446C142.955 258.502 138.186 272.727 137.66 274.365C136.894 276.771 133.002 289.026 139.255 300.514C145.156 311.375 155.939 313.885 158.395 314.46C162.016 315.297 166.131 315.018 174.345 314.46C180.964 314.007 186.451 313.292 190.295 312.717" stroke="#110CFF" stroke-width="10" stroke-miterlimit="10"/>
<path d="M214.095 296.801V175.001H231H203.7H176.4" stroke="#110CFF" stroke-width="10" stroke-miterlimit="10"/>
<path d="M231 315H191.8V179.2" stroke="#110CFF" stroke-width="10" stroke-miterlimit="10"/>
<path d="M119 167L158 249" stroke="#110CFF" stroke-width="10" stroke-miterlimit="10"/>
<path d="M318 5H373.765" stroke="#FF5B22" stroke-width="10" stroke-miterlimit="10"/>
<path d="M409.575 5H446.694" stroke="#FF5B22" stroke-width="10" stroke-miterlimit="10"/>
<path d="M392.032 125.721L355.016 5.91406" stroke="#FF5B22" stroke-width="10" stroke-miterlimit="10"/>
<path d="M335.217 23.292L373.765 145.001H405.598L428.135 8.78711" stroke="#FF5B22" stroke-width="10" stroke-miterlimit="10"/>
<path d="M446.694 315H390.929" stroke="#110CFF" stroke-width="10" stroke-miterlimit="10"/>
<path d="M355.119 315H318" stroke="#110CFF" stroke-width="10" stroke-miterlimit="10"/>
<path d="M372.662 194.279L409.678 314.086" stroke="#110CFF" stroke-width="10" stroke-miterlimit="10"/>
<path d="M429.477 296.708L390.929 174.999H359.096L336.559 311.213" stroke="#110CFF" stroke-width="10" stroke-miterlimit="10"/>
</svg>
