<svg width="104" height="104" viewBox="0 0 104 104" fill="none" xmlns="http://www.w3.org/2000/svg">
<path d="M76.7436 8.66669H72.6269C71.8052 8.66669 71.0171 8.99312 70.4361 9.57417C69.855 10.1552 69.5286 10.9433 69.5286 11.765C69.5286 12.5867 69.855 13.3748 70.4361 13.9559C71.0171 14.5369 71.8052 14.8634 72.6269 14.8634H76.7436C80.2989 14.8633 83.7091 16.2727 86.2271 18.7826C88.7451 21.2924 90.1655 24.6981 90.1769 28.2534V53.7334C88.6169 52.91 86.8836 52.4767 85.0203 52.4767H68.5103C62.2703 52.4767 57.1569 57.5467 57.1569 63.83V70.59H46.8436V63.83C46.8436 57.5467 41.7303 52.4767 35.4903 52.4767H18.9803C17.117 52.4767 15.3836 52.91 13.8236 53.7334V28.2534C13.8351 24.6981 15.2554 21.2924 17.7734 18.7826C20.2914 16.2727 23.7017 14.8633 27.257 14.8634H31.3736C32.1953 14.8634 32.9834 14.5369 33.5645 13.9559C34.1455 13.3748 34.472 12.5867 34.472 11.765C34.472 10.9433 34.1455 10.1552 33.5645 9.57417C32.9834 8.99312 32.1953 8.66669 31.3736 8.66669H27.257C22.0583 8.66667 17.0718 10.7289 13.3917 14.4009C9.71165 18.0728 7.63843 23.0547 7.62695 28.2534V83.98C7.62695 90.2634 12.7403 95.3334 18.9803 95.3334H35.4903C41.7303 95.3334 46.8436 90.2634 46.8436 83.98V76.7434H57.1569V83.98C57.1569 90.2634 62.2703 95.3334 68.5103 95.3334H85.0203C91.2603 95.3334 96.3736 90.2634 96.3736 83.98V28.2534C96.3621 23.0547 94.2889 18.0728 90.6088 14.4009C86.9287 10.7289 81.9423 8.66667 76.7436 8.66669Z" fill="#110CFF"/>
</svg>
