<svg width="1389" height="407" viewBox="0 0 1389 407" fill="none" xmlns="http://www.w3.org/2000/svg">
<path d="M97 169.214H114.757L146.299 210.123H129.035L108.377 181.941V239.214H115.042" stroke="#FF5B22" stroke-width="8" stroke-miterlimit="10"/>
<path d="M97 239.214H117.838" stroke="#FF5B22" stroke-width="8" stroke-miterlimit="10"/>
<path d="M146.299 197.359L167.659 169.214H178.011" stroke="#FF5B22" stroke-width="8" stroke-miterlimit="10"/>
<path d="M168.104 179.214V239.214H158.699H178.011" stroke="#FF5B22" stroke-width="8" stroke-miterlimit="10"/>
<path d="M213.639 240.131C215.652 240.131 223.644 240.37 227.525 239.677C231.407 238.985 233.446 236.405 233.446 236.405C233.446 236.405 235.247 234.287 235.922 231.934C237.156 227.632 236.993 225.109 236.993 222.519C236.993 220.374 236.995 167.961 236.995 167.214" stroke="#FF5B22" stroke-width="8" stroke-miterlimit="10"/>
<path d="M191.552 180.716C191.552 201.105 191.579 217.747 191.579 223.462C191.579 226.219 191.729 228.21 192.704 230.758C193.604 233.112 194.505 234.759 197.206 237.348C199.221 239.28 202.383 240.878 205.084 239.937C207.784 238.995 208.235 235.936 208.235 233.818C208.01 221.344 207.784 209.342 207.784 197.104C207.784 182.748 208.468 175.545 206.659 172.393C205.984 171.216 205.634 170.634 203.508 169.804C202.172 169.283 199.231 169.568 181 169.569" stroke="#FF5B22" stroke-width="8" stroke-miterlimit="10"/>
<path d="M282.83 189.554C283.964 189.554 285.947 189.554 287.93 189.554C292.463 189.554 292.725 189.751 293.493 189.297C296.421 187.554 295.994 178.122 290.65 173.865C288.746 172.34 288.068 171.789 285.664 170.878C283.964 170.234 280.847 170.234 274.543 170.234C273.036 170.189 270.931 170.234 266.965 170.234C260.449 170.178 257.175 170.497 255.593 171.142C249.472 173.629 247.179 179.893 247.065 180.219C246.525 181.753 246.393 183.968 246.118 188.389C245.938 191.285 245.985 193.146 246.118 194.743C246.336 197.466 246.45 198.828 247.065 200.19C248.468 203.294 251.689 204.756 253.698 205.636C259.165 208.033 269.483 212.317 283.07 217.437" stroke="#FF5B22" stroke-width="8" stroke-miterlimit="10"/>
<path d="M260.233 220.834C258.533 220.834 255.824 220.834 254.85 220.834C253.151 220.834 252.091 220.836 250.884 220.836C249.243 220.836 248.865 221.404 248.334 222.003C247.768 223.17 247.983 223.17 247.983 225.738C247.983 227.606 247.983 227.606 247.983 229.707C247.983 231.341 247.485 234.219 249.683 236.325C252.469 238.984 257.332 240.212 262.149 240.212C262.974 240.212 264.2 240.212 272.416 240.212C278.163 240.212 281.369 240.292 284.031 239.511C287.395 238.531 289.609 236.788 290.197 236.325C291.613 235.208 292.657 234.286 293.88 231.889C295.073 229.538 295.995 226.135 295.863 220.217C295.654 210.613 294.808 210.312 293.88 208.778C292.61 206.69 289.63 205.51 285.097 203.642C278.581 201.308 280.01 201.699 272.631 198.973C268.244 197.194 266.115 196.324 260.166 193.522C255.916 191.521 255.349 191.188 252.799 190.021" stroke="#FF5B22" stroke-width="8" stroke-miterlimit="10"/>
<path d="M313.67 180.14V240.214H302H341.375" stroke="#FF5B22" stroke-width="8" stroke-miterlimit="10"/>
<path d="M302 170.214H330.371H341.375" stroke="#FF5B22" stroke-width="8" stroke-miterlimit="10"/>
<path d="M330.371 170.214V237.156" stroke="#FF5B22" stroke-width="8" stroke-miterlimit="10"/>
<path d="M345 170.619H366.552H375.353" stroke="#FF5B22" stroke-width="8" stroke-miterlimit="10"/>
<path d="M354.415 180.571V240.695H345H352.316H359.861H375.178" stroke="#FF5B22" stroke-width="8" stroke-miterlimit="10"/>
<path d="M366.552 170.619V239.01" stroke="#FF5B22" stroke-width="8" stroke-miterlimit="10"/>
<path d="M398.411 167L366.889 200.928" stroke="#FF5B22" stroke-width="8" stroke-miterlimit="10"/>
<path d="M382.439 199.571L402.613 243" stroke="#FF5B22" stroke-width="8" stroke-miterlimit="10"/>
<path d="M350.237 147.043L354.006 152.814C355.435 154.993 356.978 155.359 358.256 154.58C359.66 153.727 359.938 152.218 358.534 150.063L354.765 144.292L356.004 143.537L359.723 149.223C361.684 152.218 360.95 154.385 358.888 155.627C356.94 156.807 354.727 156.552 352.754 153.532L348.997 147.786L350.237 147.031V147.043Z" fill="#110CFF"/>
<path d="M361.633 146.923C361.266 146.144 360.963 145.511 360.621 144.902L361.81 144.391L362.468 145.608H362.493C362.519 144.72 363.05 143.648 364.264 143.125C365.276 142.686 367.148 142.626 368.362 145.219L370.462 149.723L369.121 150.296L367.097 145.937C366.528 144.72 365.618 143.892 364.353 144.44C363.467 144.817 363.088 145.754 363.214 146.619C363.24 146.814 363.315 147.069 363.417 147.301L365.529 151.842L364.188 152.414L361.621 146.911L361.633 146.923Z" fill="#110CFF"/>
<path d="M375.395 135.517L378.368 145.098C378.583 145.804 378.848 146.596 379.063 147.131L377.798 147.496L377.305 146.133H377.267C377.115 147.156 376.382 148.093 375.117 148.458C373.245 148.994 371.31 147.776 370.563 145.378C369.728 142.748 370.829 140.666 372.714 140.131C373.89 139.79 374.876 140.131 375.42 140.679H375.446L373.978 135.931L375.382 135.529L375.395 135.517ZM376.141 142.846C376.091 142.663 375.99 142.42 375.888 142.261C375.395 141.409 374.396 140.873 373.346 141.166C371.891 141.58 371.436 143.138 371.98 144.891C372.473 146.498 373.65 147.606 375.167 147.168C376.116 146.9 376.774 146.011 376.698 144.855C376.685 144.648 376.635 144.441 376.571 144.209L376.141 142.834V142.846Z" fill="#110CFF"/>
<path d="M381.15 142.796C381.53 144.793 382.921 145.426 384.363 145.195C385.4 145.024 385.995 144.744 386.488 144.415L386.918 145.438C386.45 145.755 385.628 146.168 384.363 146.363C381.909 146.753 380.164 145.341 379.746 142.881C379.316 140.422 380.404 138.255 382.719 137.878C385.312 137.464 386.412 139.692 386.665 141.201C386.716 141.506 386.728 141.749 386.741 141.895L381.15 142.796ZM385.211 141.055C385.059 140.106 384.414 138.705 382.795 138.961C381.327 139.192 380.935 140.678 380.999 141.725L385.223 141.043L385.211 141.055Z" fill="#110CFF"/>
<path d="M388.575 139.947C388.512 138.973 388.423 138.145 388.322 137.378L389.6 137.293L389.764 138.912H389.827C390.118 137.78 390.94 137.013 391.927 136.952C392.091 136.952 392.205 136.952 392.344 136.976L392.446 138.389C392.294 138.364 392.142 138.352 391.94 138.364C390.915 138.437 390.232 139.278 390.118 140.422C390.106 140.629 390.08 140.872 390.106 141.128L390.422 145.523L388.98 145.62L388.575 139.947Z" fill="#110CFF"/>
<path d="M397.417 145.303C397.493 144.743 397.606 143.915 397.67 143.185L398.53 133.214L399.972 133.323L399.529 138.498H399.567C400.161 137.621 401.148 137.098 402.438 137.207C404.424 137.365 405.689 139.179 405.461 141.687C405.208 144.634 403.273 145.961 401.477 145.815C400.313 145.717 399.428 145.194 398.922 144.049H398.871L398.682 145.401L397.417 145.303ZM399.213 142.114C399.2 142.296 399.213 142.491 399.238 142.661C399.428 143.721 400.212 144.5 401.275 144.585C402.805 144.707 403.83 143.501 403.981 141.614C404.121 139.959 403.412 138.485 401.856 138.364C400.857 138.291 399.871 138.912 399.478 140.032C399.428 140.202 399.365 140.397 399.339 140.64L399.213 142.126V142.114Z" fill="#110CFF"/>
<path d="M407.687 140.652C407.877 139.69 408.016 138.874 408.118 138.107L409.382 138.339L409.117 139.946H409.18C409.749 138.935 410.761 138.4 411.722 138.57C411.887 138.594 412.001 138.643 412.127 138.692L411.849 140.092C411.71 140.031 411.558 139.982 411.368 139.958C410.356 139.775 409.484 140.433 409.066 141.504C408.99 141.699 408.914 141.93 408.864 142.186L408.016 146.52L406.587 146.264L407.687 140.676V140.652Z" fill="#110CFF"/>
<path d="M419.704 145.085C418.806 148.019 416.44 148.737 414.568 148.214C412.481 147.617 411.343 145.584 412.115 143.076C412.924 140.422 415.1 139.338 417.237 139.947C419.451 140.58 420.45 142.662 419.704 145.085ZM413.544 143.429C413.013 145.17 413.582 146.753 414.961 147.142C416.301 147.52 417.705 146.509 418.249 144.72C418.667 143.38 418.528 141.481 416.871 141.006C415.214 140.532 414.012 141.907 413.544 143.417V143.429Z" fill="#110CFF"/>
<path d="M422.183 146.424C421.373 148.298 422.183 149.552 423.524 150.112C424.485 150.514 425.143 150.587 425.75 150.575L425.535 151.659C424.966 151.683 424.042 151.598 422.866 151.099C420.589 150.149 419.932 148.043 420.956 145.754C421.993 143.465 424.118 142.211 426.269 143.112C428.685 144.123 428.343 146.57 427.711 147.97C427.584 148.25 427.458 148.457 427.369 148.591L422.183 146.424ZM426.572 147.081C426.99 146.204 427.23 144.695 425.725 144.062C424.371 143.489 423.195 144.524 422.651 145.437L426.572 147.081Z" fill="#110CFF"/>
<path d="M430.304 147.617C430.759 146.887 431.113 146.266 431.429 145.657L432.542 146.29L431.897 147.508H431.923C432.682 147.045 433.896 146.838 435.034 147.496C435.995 148.043 437.121 149.48 435.629 151.927L433.023 156.176L431.758 155.458L434.275 151.355C434.984 150.211 435.148 149.017 433.959 148.336C433.124 147.861 432.112 148.104 431.455 148.701C431.303 148.835 431.138 149.03 430.999 149.261L428.368 153.546L427.103 152.828L430.291 147.63L430.304 147.617Z" fill="#110CFF"/>
<path d="M443.446 157.345L442.712 158.21L439.525 155.714L440.258 154.85L443.446 157.345Z" fill="#110CFF"/>
<path d="M453.805 167.985C455.019 166.878 456.487 165.551 457.625 164.625L457.587 164.589C456.272 165.185 454.83 165.782 453.211 166.391L447.506 168.57L446.785 167.766L449.947 162.872C450.883 161.423 451.769 160.133 452.641 159.013L452.616 158.988C451.465 159.902 449.884 161.095 448.455 162.142L444.356 165.137L443.458 164.126L453.071 157.211L454.273 158.562L451.111 163.59C450.289 164.857 449.542 165.952 448.783 166.938L448.821 166.975C449.922 166.427 451.187 165.891 452.654 165.319L458.359 163.164L459.56 164.516L450.908 172.514L449.985 171.48L453.805 167.985Z" fill="#110CFF"/>
<path d="M451.87 174.256L459.054 169.703L459.864 170.884L452.679 175.437L451.87 174.256ZM461.964 169.739C461.533 170.031 460.964 169.971 460.648 169.496C460.37 169.082 460.522 168.558 460.964 168.278C461.42 167.986 461.989 168.071 462.28 168.497C462.583 168.936 462.419 169.447 461.964 169.739Z" fill="#110CFF"/>
<path d="M468.275 177.359L459.092 182.046C458.422 182.387 457.663 182.801 457.157 183.105L456.537 181.985L457.827 181.255V181.231C456.752 181.279 455.652 180.768 455.032 179.66C454.121 178.004 454.969 175.935 457.283 174.766C459.801 173.463 462.141 174.084 463.051 175.752C463.633 176.799 463.469 177.785 463.026 178.406V178.43L467.58 176.117L468.263 177.359H468.275ZM460.952 179.502C461.129 179.417 461.356 179.283 461.496 179.149C462.267 178.516 462.621 177.469 462.103 176.531C461.394 175.241 459.712 175.119 458.042 175.971C456.499 176.75 455.614 178.089 456.347 179.429C456.803 180.269 457.84 180.719 459.004 180.415C459.219 180.366 459.408 180.281 459.636 180.171L460.952 179.502Z" fill="#110CFF"/>
<path d="M472.222 186.953L462.469 190.411C461.748 190.666 460.939 190.971 460.408 191.214L459.952 190.021L461.331 189.461V189.437C460.269 189.352 459.244 188.706 458.789 187.513C458.118 185.748 459.244 183.812 461.698 182.948C464.379 181.986 466.606 182.899 467.289 184.677C467.719 185.784 467.415 186.746 466.897 187.306V187.331L471.728 185.626L472.234 186.953H472.222ZM464.658 188.122C464.835 188.061 465.088 187.952 465.252 187.842C466.112 187.318 466.606 186.32 466.226 185.334C465.708 183.97 464.063 183.63 462.28 184.263C460.648 184.847 459.573 186.04 460.117 187.477C460.458 188.365 461.42 188.95 462.609 188.792C462.824 188.767 463.026 188.706 463.266 188.633L464.67 188.134L464.658 188.122Z" fill="#110CFF"/>
<path d="M465.025 192.931C462.975 193.418 462.406 194.794 462.735 196.169C462.963 197.155 463.304 197.703 463.658 198.166L462.621 198.641C462.267 198.215 461.786 197.448 461.508 196.242C460.952 193.917 462.318 192.152 464.847 191.592C467.377 191.032 469.679 191.945 470.211 194.148C470.792 196.62 468.541 197.801 466.998 198.142C466.682 198.215 466.441 198.227 466.277 198.251L465.012 192.943L465.025 192.931ZM467.074 196.717C468.048 196.522 469.464 195.816 469.097 194.27C468.769 192.882 467.2 192.578 466.125 192.7L467.074 196.717Z" fill="#110CFF"/>
<path d="M475.03 198.993L475.232 200.393L462.735 202.037L462.533 200.637L475.03 198.993Z" fill="#110CFF"/>
<path d="M463.001 204.338L470.388 203.814L470.299 202.731L471.488 202.646L471.577 203.729L471.981 203.705C473.183 203.619 474.309 203.778 475.042 204.386C475.65 204.873 475.94 205.555 475.991 206.213C476.029 206.712 475.94 207.15 475.839 207.43L474.625 207.321C474.713 207.101 474.777 206.809 474.751 206.407C474.663 205.214 473.461 204.983 472.158 205.08L471.703 205.117L471.842 206.992L470.653 207.077L470.514 205.202L463.127 205.726L463.026 204.338H463.001Z" fill="#110CFF"/>
<path d="M463.228 212.897L464.316 212.799V212.751C463.646 212.312 463.064 211.46 463.077 210.352C463.102 208.782 464.341 208.003 465.581 208.015C467.655 208.051 468.769 209.731 468.693 212.726H468.87C469.578 212.739 470.856 212.58 470.894 210.998C470.894 210.279 470.666 209.524 470.286 208.964L471.324 208.66C471.779 209.305 472.057 210.243 472.045 211.217C472.007 213.591 470.198 214.139 468.478 214.114L465.265 214.066C464.519 214.066 463.785 214.066 463.203 214.163L463.228 212.885V212.897ZM467.618 212.763C467.681 211.229 467.403 209.476 465.733 209.451C464.721 209.439 464.228 210.036 464.215 210.754C464.202 211.765 464.898 212.422 465.619 212.653C465.783 212.702 465.961 212.739 466.112 212.739L467.605 212.763H467.618Z" fill="#110CFF"/>
<path d="M468.895 216.683C469.907 216.793 470.767 216.866 471.564 216.915L471.425 218.144L469.743 218.01V218.071C470.843 218.546 471.463 219.471 471.362 220.409C471.349 220.567 471.311 220.677 471.26 220.798L469.793 220.64C469.844 220.506 469.882 220.36 469.907 220.165C470.021 219.179 469.275 218.388 468.136 218.071C467.934 218.01 467.681 217.962 467.415 217.925L462.862 217.426L463.026 216.038L468.908 216.671L468.895 216.683Z" fill="#110CFF"/>
<path d="M472.791 225.131L470.362 224.668L469.958 226.653L468.794 226.434L469.211 224.449L464.658 223.573C463.608 223.366 462.963 223.524 462.811 224.291C462.735 224.656 462.735 224.924 462.748 225.107L461.584 224.948C461.521 224.656 461.521 224.218 461.635 223.682C461.774 223.037 462.103 222.562 462.583 222.319C463.115 222.014 463.899 222.014 464.885 222.209L469.49 223.098L469.73 221.917L470.894 222.136L470.653 223.317L472.677 223.707L472.791 225.131Z" fill="#110CFF"/>
<path d="M462.773 226.558C462.356 226.874 461.837 227.495 461.635 228.177C461.331 229.163 461.736 229.772 462.419 229.967C463.14 230.174 463.646 229.894 464.354 229.005C465.29 227.812 466.302 227.41 467.289 227.69C468.617 228.067 469.414 229.334 468.933 230.941C468.705 231.696 468.263 232.292 467.871 232.633L466.884 231.988C467.175 231.756 467.618 231.294 467.82 230.6C468.06 229.796 467.681 229.212 467.074 229.041C466.391 228.847 465.948 229.212 465.24 230.064C464.304 231.209 463.38 231.659 462.153 231.318C460.699 230.916 459.99 229.614 460.522 227.836C460.775 227.02 461.217 226.327 461.723 225.9L462.76 226.558H462.773Z" fill="#110CFF"/>
<path d="M469.515 240.387L468.882 241.653L464.051 239.413V239.437C464.329 239.827 464.531 240.302 464.569 240.801C464.62 241.288 464.569 241.811 464.316 242.286C463.848 243.224 462.457 244.429 459.788 243.187L455.184 241.056L455.816 239.79L460.269 241.848C461.521 242.432 462.786 242.493 463.38 241.3C463.798 240.472 463.481 239.535 462.824 238.95C462.672 238.792 462.469 238.682 462.191 238.548L457.524 236.381L458.156 235.115L469.515 240.375V240.387Z" fill="#110CFF"/>
<path d="M461.217 247.449L455.981 246.256C455.399 246.11 454.728 245.927 454.222 245.769V245.793C454.564 246.183 455.019 246.658 455.437 247.145L458.827 251.053L457.992 252.307L454.007 247.351C452.085 244.977 451.199 243.614 450.959 242.323C450.769 241.398 450.934 240.68 451.073 240.339L452.376 240.716C452.287 241.082 452.237 241.593 452.325 242.153C452.388 242.652 452.641 243.37 453.135 244.052C453.236 244.186 453.312 244.296 453.388 244.344C453.464 244.393 453.59 244.43 453.792 244.478L462.077 246.158L461.217 247.449Z" fill="#110CFF"/>
<path d="M452.515 258.893C452.06 258.491 451.541 258.041 450.731 257.395L446.874 254.352C445.343 253.147 444.647 252.136 444.559 251.101C444.445 250.042 444.976 249.044 445.621 248.289C446.228 247.571 447.101 246.925 447.873 246.73L448.556 247.729C447.949 247.911 447.164 248.338 446.532 249.08C445.583 250.2 445.533 251.527 447.202 252.842L447.949 253.427L447.974 253.402C447.645 252.574 447.696 251.539 448.493 250.614C449.757 249.129 452.072 249.165 453.906 250.614C456.158 252.392 456.31 254.729 455.133 256.105C454.248 257.152 453.16 257.237 452.388 257.067L452.363 257.091L453.324 257.931L452.515 258.881V258.893ZM450.845 255.691C451.048 255.849 451.237 255.983 451.452 256.068C452.325 256.421 453.35 256.348 454.033 255.557C454.918 254.522 454.577 253 453.033 251.783C451.731 250.748 450.137 250.492 449.138 251.661C448.568 252.331 448.518 253.305 449.087 254.145C449.239 254.364 449.454 254.583 449.656 254.741L450.845 255.691Z" fill="#110CFF"/>
<path d="M445.33 265.625C444.926 265.162 444.483 264.663 443.762 263.92L440.347 260.414C438.993 259.026 438.437 257.942 438.5 256.908C438.538 255.848 439.196 254.923 439.929 254.253C440.638 253.62 441.586 253.085 442.371 252.987L442.914 254.059C442.282 254.156 441.46 254.485 440.726 255.142C439.638 256.128 439.398 257.443 440.891 258.953L441.548 259.622L441.574 259.598C441.359 258.746 441.548 257.723 442.459 256.895C443.914 255.581 446.203 255.909 447.835 257.577C449.833 259.622 449.656 261.948 448.315 263.165C447.291 264.091 446.203 264.042 445.457 263.774L445.432 263.798L446.266 264.748L445.33 265.588V265.625ZM444.116 262.252C444.293 262.435 444.47 262.593 444.66 262.69C445.469 263.153 446.507 263.202 447.278 262.496C448.303 261.57 448.164 260.036 446.798 258.636C445.647 257.455 444.103 256.993 442.952 258.04C442.295 258.636 442.118 259.598 442.56 260.499C442.687 260.743 442.864 260.974 443.041 261.156L444.103 262.24L444.116 262.252Z" fill="#110CFF"/>
<path d="M439.6 264.371C438.336 262.74 436.792 262.788 435.616 263.616C434.769 264.213 434.376 264.724 434.073 265.223L433.213 264.493C433.478 264.006 434.035 263.287 435.06 262.557C437.058 261.145 439.284 261.668 440.815 263.677C442.345 265.698 442.383 268.096 440.486 269.423C438.361 270.909 436.337 269.387 435.414 268.157C435.224 267.902 435.11 267.695 435.022 267.561L439.6 264.347V264.371ZM436.792 267.67C437.362 268.449 438.601 269.436 439.929 268.498C441.131 267.658 440.789 266.161 440.246 265.247L436.792 267.67Z" fill="#110CFF"/>
<path d="M437.766 275.62L436.514 276.35L429.987 265.953L431.24 265.223L437.766 275.62Z" fill="#110CFF"/>
<path d="M427.989 267.049L432.024 274.354L430.734 275.011L426.699 267.706L427.989 267.049ZM431.72 277.154C431.455 276.703 431.581 276.18 432.087 275.912C432.542 275.681 433.061 275.875 433.314 276.326C433.567 276.789 433.428 277.324 432.96 277.568C432.479 277.811 431.961 277.616 431.708 277.142L431.72 277.154Z" fill="#110CFF"/>
<path d="M421.728 278.897C421.513 278.337 421.285 277.704 420.88 276.779L418.958 272.347C418.199 270.594 418.072 269.389 418.502 268.439C418.92 267.453 419.868 266.82 420.817 266.442C421.702 266.089 422.79 265.907 423.562 266.077L423.676 267.27C423.043 267.149 422.158 267.173 421.234 267.55C419.856 268.11 419.16 269.255 419.995 271.178L420.362 272.031H420.387C420.488 271.142 421.045 270.253 422.196 269.791C424.042 269.048 426.054 270.131 426.977 272.238C428.103 274.819 427.091 276.949 425.383 277.631C424.093 278.155 423.081 277.741 422.487 277.241H422.461L422.904 278.435L421.728 278.909V278.897ZM421.816 275.318C421.917 275.561 422.019 275.756 422.17 275.914C422.765 276.62 423.714 277.022 424.7 276.62C425.99 276.097 426.433 274.612 425.661 272.846C425.016 271.349 423.739 270.399 422.272 270.984C421.437 271.312 420.918 272.152 421.007 273.151C421.032 273.419 421.121 273.699 421.222 273.93L421.816 275.306V275.318Z" fill="#110CFF"/>
<path d="M417.086 273.283C416.592 273.125 415.757 273.028 415.062 273.222C414.037 273.515 413.721 274.172 413.911 274.829C414.126 275.523 414.632 275.791 415.795 275.889C417.339 276.01 418.237 276.607 418.515 277.569C418.907 278.847 418.211 280.186 416.554 280.649C415.77 280.868 415.011 280.831 414.505 280.685L414.543 279.541C414.91 279.651 415.542 279.76 416.263 279.553C417.098 279.322 417.414 278.701 417.225 278.104C417.022 277.447 416.478 277.276 415.353 277.167C413.847 277.021 412.949 276.522 412.595 275.341C412.178 273.941 412.937 272.662 414.771 272.151C415.618 271.907 416.466 271.907 417.111 272.078L417.086 273.283Z" fill="#110CFF"/>
<path d="M410.774 284.216L410.293 281.891L408.231 282.28L408.004 281.16L410.065 280.771L409.155 276.4C408.94 275.389 408.548 274.878 407.751 275.036C407.371 275.109 407.106 275.207 406.941 275.292L406.65 274.196C406.903 274.026 407.333 273.855 407.877 273.746C408.548 273.612 409.129 273.734 409.56 274.062C410.053 274.416 410.356 275.109 410.559 276.071L411.482 280.491L412.709 280.259L412.949 281.379L411.722 281.611L412.127 283.559L410.799 284.216H410.774Z" fill="#110CFF"/>
<path d="M404.93 278.31C404.677 276.289 403.336 275.583 401.882 275.729C400.844 275.827 400.225 276.082 399.706 276.375L399.339 275.328C399.833 275.035 400.68 274.682 401.945 274.561C404.411 274.317 406.068 275.839 406.334 278.323C406.6 280.806 405.385 282.9 403.045 283.132C400.427 283.387 399.478 281.098 399.314 279.577C399.276 279.272 399.289 279.029 399.289 278.87L404.917 278.31H404.93ZM400.769 279.808C400.857 280.758 401.414 282.206 403.045 282.036C404.525 281.89 405.019 280.429 405.019 279.382L400.756 279.796L400.769 279.808Z" fill="#110CFF"/>
<path d="M393.749 275.013L393.47 282.135L394.596 282.172L394.545 283.316L393.42 283.28V283.669C393.356 284.826 393.065 285.885 392.357 286.518C391.788 287.042 391.042 287.236 390.359 287.212C389.84 287.2 389.397 287.054 389.119 286.932L389.359 285.775C389.574 285.885 389.865 285.982 390.283 285.995C391.535 286.043 391.889 284.923 391.94 283.657V283.219L390.004 283.146L390.042 282.001L391.99 282.074L392.269 274.952L393.711 275.001L393.749 275.013Z" fill="#110CFF"/>
<path d="M388.221 278.592C388.449 276.571 387.31 275.585 385.856 275.414C384.818 275.293 384.161 275.402 383.591 275.573L383.478 274.477C384.022 274.306 384.932 274.136 386.21 274.294C388.676 274.599 389.929 276.437 389.6 278.908C389.271 281.38 387.601 283.157 385.274 282.877C382.668 282.561 382.276 280.114 382.478 278.604C382.516 278.3 382.58 278.068 382.618 277.91L388.234 278.592H388.221ZM383.819 279.14C383.68 280.089 383.882 281.611 385.514 281.806C386.981 281.989 387.816 280.674 388.057 279.651L383.806 279.14H383.819Z" fill="#110CFF"/>
<path d="M381.416 275.278C381.062 274.901 380.391 274.426 379.67 274.268C378.633 274.036 378.013 274.463 377.849 275.12C377.685 275.814 377.988 276.289 378.949 276.934C380.24 277.774 380.708 278.712 380.467 279.686C380.151 280.988 378.873 281.816 377.179 281.439C376.382 281.256 375.749 280.866 375.37 280.501L375.99 279.515C376.255 279.783 376.748 280.172 377.482 280.343C378.33 280.538 378.911 280.136 379.063 279.539C379.228 278.87 378.823 278.468 377.9 277.835C376.673 276.995 376.141 276.143 376.432 274.937C376.774 273.525 378.089 272.77 379.949 273.184C380.809 273.379 381.555 273.769 382.023 274.231L381.391 275.266L381.416 275.278Z" fill="#110CFF"/>
<path d="M370.31 281.83L371.082 279.566L369.083 278.933L369.45 277.849L371.449 278.482L372.891 274.246C373.219 273.272 373.144 272.639 372.359 272.383C371.993 272.273 371.714 272.237 371.525 272.225L371.828 271.129C372.132 271.105 372.587 271.153 373.131 271.324C373.776 271.531 374.231 271.908 374.434 272.395C374.687 272.943 374.586 273.686 374.282 274.611L372.827 278.896L374.016 279.274L373.65 280.357L372.461 279.98L371.815 281.867L370.323 281.818L370.31 281.83Z" fill="#110CFF"/>
<path d="M364.808 279.808C364.985 279.321 365.491 279.078 366.035 279.285C366.516 279.468 366.693 279.979 366.503 280.454C366.301 280.941 365.782 281.184 365.289 281.002C364.783 280.807 364.618 280.295 364.821 279.808H364.808ZM370.424 270.556L367.224 278.238L365.858 277.714L369.058 270.032L370.424 270.556Z" fill="#110CFF"/>
<path d="M362.683 276.4L363.442 271.567C363.556 270.775 363.682 270.081 363.847 269.387L363.796 269.363C363.315 269.899 362.784 270.41 362.202 270.958L358.635 274.44L357.269 273.782L363.961 267.756L365.213 268.365L364.087 277.082L362.683 276.412V276.4Z" fill="#110CFF"/>
<path d="M356.548 263.506L356.055 264.443L356.093 264.468C356.839 264.163 357.889 264.127 358.863 264.736C360.229 265.6 360.254 267.024 359.584 268.023C358.446 269.703 356.371 269.703 353.778 268.059L353.677 268.205C353.285 268.778 352.741 269.91 354.12 270.774C354.752 271.164 355.536 271.383 356.232 271.359L355.954 272.369C355.144 272.394 354.17 272.126 353.323 271.59C351.261 270.299 351.742 268.534 352.678 267.146L354.436 264.553C354.841 263.956 355.208 263.348 355.448 262.824L356.561 263.518L356.548 263.506ZM354.335 267.158C355.65 268.023 357.345 268.741 358.256 267.39C358.812 266.574 358.547 265.856 357.914 265.454C357.042 264.906 356.093 265.125 355.498 265.588C355.372 265.685 355.246 265.819 355.157 265.941L354.335 267.146V267.158Z" fill="#110CFF"/>
<path d="M346.151 271.213L345 270.349L352.741 260.768L353.892 261.632L346.151 271.213Z" fill="#110CFF"/>
<path d="M406.129 196.192C405.396 196.189 404.766 196.009 404.237 195.651C403.712 195.293 403.307 194.774 403.023 194.095C402.741 193.416 402.602 192.599 402.605 191.645C402.605 190.693 402.746 189.882 403.027 189.212C403.311 188.541 403.716 188.031 404.241 187.682C404.77 187.33 405.399 187.153 406.129 187.153C406.859 187.153 407.487 187.33 408.013 187.682C408.541 188.034 408.947 188.545 409.232 189.216C409.516 189.884 409.656 190.693 409.653 191.645C409.653 192.602 409.511 193.42 409.227 194.099C408.946 194.778 408.543 195.297 408.017 195.655C407.491 196.013 406.862 196.192 406.129 196.192ZM406.129 194.662C406.629 194.662 407.028 194.411 407.327 193.908C407.625 193.405 407.773 192.651 407.77 191.645C407.77 190.983 407.702 190.432 407.565 189.991C407.432 189.551 407.241 189.22 406.994 188.999C406.75 188.777 406.462 188.666 406.129 188.666C405.632 188.666 405.234 188.915 404.936 189.412C404.638 189.909 404.487 190.653 404.484 191.645C404.484 192.315 404.551 192.875 404.685 193.324C404.821 193.77 405.013 194.105 405.26 194.33C405.507 194.551 405.797 194.662 406.129 194.662ZM414.127 187.153C414.576 187.153 415.007 187.229 415.422 187.379C415.84 187.53 416.212 187.77 416.539 188.099C416.868 188.429 417.128 188.866 417.319 189.412C417.512 189.955 417.61 190.621 417.613 191.411C417.613 192.152 417.529 192.814 417.361 193.396C417.196 193.976 416.959 194.469 416.65 194.875C416.34 195.281 415.966 195.591 415.529 195.804C415.091 196.014 414.603 196.119 414.063 196.119C413.48 196.119 412.966 196.007 412.52 195.783C412.074 195.555 411.715 195.247 411.442 194.858C411.172 194.466 411.009 194.026 410.952 193.537H412.772C412.843 193.855 412.992 194.102 413.219 194.278C413.446 194.452 413.728 194.538 414.063 194.538C414.631 194.538 415.063 194.291 415.358 193.797C415.654 193.3 415.803 192.619 415.806 191.756H415.746C415.615 192.011 415.439 192.232 415.218 192.416C414.996 192.598 414.742 192.739 414.455 192.838C414.171 192.938 413.868 192.987 413.547 192.987C413.033 192.987 412.574 192.866 412.171 192.625C411.767 192.384 411.449 192.051 411.216 191.628C410.983 191.205 410.867 190.722 410.867 190.179C410.864 189.594 410.999 189.072 411.272 188.615C411.544 188.158 411.925 187.8 412.414 187.541C412.905 187.28 413.476 187.151 414.127 187.153ZM414.14 188.602C413.853 188.602 413.597 188.67 413.373 188.807C413.151 188.943 412.975 189.126 412.844 189.357C412.716 189.587 412.654 189.844 412.657 190.128C412.657 190.415 412.719 190.673 412.844 190.903C412.972 191.131 413.145 191.312 413.364 191.449C413.586 191.582 413.838 191.649 414.123 191.649C414.336 191.649 414.533 191.609 414.715 191.53C414.897 191.45 415.054 191.341 415.188 191.202C415.324 191.06 415.431 190.896 415.507 190.712C415.584 190.527 415.623 190.331 415.623 190.124C415.62 189.848 415.554 189.595 415.426 189.365C415.299 189.135 415.123 188.95 414.898 188.811C414.674 188.672 414.421 188.602 414.14 188.602ZM419.618 196.111C419.336 196.111 419.095 196.011 418.893 195.812C418.694 195.611 418.595 195.369 418.595 195.088C418.595 194.81 418.694 194.571 418.893 194.372C419.095 194.173 419.336 194.074 419.618 194.074C419.89 194.074 420.129 194.173 420.333 194.372C420.538 194.571 420.64 194.81 420.64 195.088C420.64 195.276 420.592 195.447 420.495 195.604C420.402 195.757 420.278 195.881 420.125 195.974C419.971 196.065 419.802 196.111 419.618 196.111ZM427.174 196.128C426.572 196.128 426.052 196.02 425.614 195.804C425.177 195.588 424.84 195.295 424.604 194.926C424.371 194.554 424.255 194.139 424.255 193.682C424.255 193.341 424.323 193.038 424.46 192.774C424.596 192.51 424.786 192.267 425.031 192.045C425.275 191.821 425.559 191.598 425.883 191.376L427.575 190.264C427.793 190.125 427.954 189.979 428.056 189.825C428.158 189.669 428.21 189.5 428.21 189.318C428.21 189.145 428.14 188.984 428.001 188.837C427.862 188.689 427.664 188.616 427.408 188.619C427.238 188.619 427.09 188.658 426.965 188.734C426.84 188.808 426.742 188.906 426.671 189.028C426.603 189.148 426.569 189.281 426.569 189.429C426.569 189.611 426.62 189.795 426.722 189.983C426.825 190.17 426.961 190.369 427.131 190.58C427.302 190.787 427.488 191.011 427.69 191.253L431.827 196H429.935L426.484 192.156C426.256 191.898 426.029 191.628 425.802 191.347C425.577 191.062 425.39 190.761 425.239 190.443C425.089 190.122 425.013 189.774 425.013 189.399C425.013 188.976 425.112 188.595 425.308 188.257C425.506 187.919 425.785 187.652 426.143 187.456C426.501 187.257 426.918 187.158 427.396 187.158C427.862 187.158 428.263 187.253 428.602 187.443C428.942 187.631 429.204 187.881 429.386 188.193C429.57 188.503 429.663 188.844 429.663 189.216C429.663 189.628 429.56 190.001 429.356 190.337C429.154 190.669 428.87 190.967 428.504 191.232L426.722 192.514C426.481 192.69 426.302 192.871 426.185 193.055C426.072 193.237 426.015 193.412 426.015 193.58C426.015 193.787 426.066 193.973 426.168 194.138C426.271 194.303 426.415 194.433 426.603 194.53C426.79 194.624 427.011 194.67 427.263 194.67C427.57 194.67 427.873 194.601 428.171 194.462C428.472 194.32 428.745 194.119 428.989 193.861C429.237 193.599 429.434 193.29 429.582 192.932C429.729 192.574 429.803 192.178 429.803 191.743H431.308C431.308 192.277 431.249 192.759 431.133 193.188C431.016 193.614 430.854 193.986 430.647 194.304C430.44 194.619 430.202 194.878 429.935 195.08C429.85 195.134 429.768 195.185 429.688 195.233C429.609 195.281 429.526 195.332 429.441 195.386C429.117 195.648 428.755 195.837 428.354 195.953C427.957 196.07 427.563 196.128 427.174 196.128ZM439.141 187.273V196H437.296V189.024H437.245L435.246 190.277V188.641L437.407 187.273H439.141ZM444.637 196.192C443.904 196.189 443.273 196.009 442.745 195.651C442.219 195.293 441.815 194.774 441.531 194.095C441.249 193.416 441.11 192.599 441.113 191.645C441.113 190.693 441.254 189.882 441.535 189.212C441.819 188.541 442.224 188.031 442.749 187.682C443.278 187.33 443.907 187.153 444.637 187.153C445.367 187.153 445.995 187.33 446.521 187.682C447.049 188.034 447.455 188.545 447.739 189.216C448.023 189.884 448.164 190.693 448.161 191.645C448.161 192.602 448.019 193.42 447.735 194.099C447.454 194.778 447.05 195.297 446.525 195.655C445.999 196.013 445.37 196.192 444.637 196.192ZM444.637 194.662C445.137 194.662 445.536 194.411 445.835 193.908C446.133 193.405 446.281 192.651 446.278 191.645C446.278 190.983 446.21 190.432 446.073 189.991C445.94 189.551 445.749 189.22 445.502 188.999C445.258 188.777 444.969 188.666 444.637 188.666C444.14 188.666 443.742 188.915 443.444 189.412C443.146 189.909 442.995 190.653 442.992 191.645C442.992 192.315 443.059 192.875 443.192 193.324C443.329 193.77 443.521 194.105 443.768 194.33C444.015 194.551 444.305 194.662 444.637 194.662ZM450.203 196.111C449.922 196.111 449.681 196.011 449.479 195.812C449.28 195.611 449.181 195.369 449.181 195.088C449.181 194.81 449.28 194.571 449.479 194.372C449.681 194.173 449.922 194.074 450.203 194.074C450.476 194.074 450.715 194.173 450.919 194.372C451.124 194.571 451.226 194.81 451.226 195.088C451.226 195.276 451.178 195.447 451.081 195.604C450.988 195.757 450.864 195.881 450.711 195.974C450.557 196.065 450.388 196.111 450.203 196.111ZM402.724 204.455H404.54V211.324C404.54 211.83 404.44 212.239 404.241 212.551C404.043 212.864 403.757 213.092 403.385 213.237C403.016 213.382 402.574 213.455 402.06 213.455C401.997 213.455 401.938 213.453 401.881 213.45C401.821 213.45 401.759 213.449 401.693 213.446V212.027C401.741 212.03 401.784 212.031 401.821 212.031C401.855 212.034 401.892 212.036 401.932 212.036C402.224 212.036 402.429 211.973 402.545 211.848C402.665 211.726 402.724 211.541 402.724 211.294V204.455ZM403.628 203.611C403.361 203.611 403.131 203.521 402.938 203.342C402.744 203.161 402.648 202.943 402.648 202.69C402.648 202.44 402.744 202.226 402.938 202.047C403.131 201.865 403.361 201.774 403.628 201.774C403.901 201.774 404.132 201.865 404.322 202.047C404.516 202.226 404.612 202.44 404.612 202.69C404.612 202.943 404.516 203.161 404.322 203.342C404.132 203.521 403.901 203.611 403.628 203.611ZM410.191 208.213V204.455H412.007V211H410.264V209.811H410.196C410.048 210.195 409.802 210.503 409.458 210.736C409.118 210.969 408.701 211.085 408.21 211.085C407.772 211.085 407.387 210.986 407.055 210.787C406.723 210.588 406.463 210.305 406.275 209.939C406.091 209.572 405.997 209.134 405.994 208.622V204.455H407.809V208.298C407.812 208.685 407.916 208.99 408.12 209.214C408.325 209.439 408.599 209.551 408.943 209.551C409.162 209.551 409.366 209.501 409.556 209.402C409.747 209.3 409.9 209.149 410.017 208.95C410.136 208.751 410.194 208.506 410.191 208.213ZM415.274 207.216V211H413.459V204.455H415.189V205.609H415.266C415.411 205.229 415.653 204.928 415.994 204.706C416.335 204.482 416.749 204.369 417.234 204.369C417.689 204.369 418.085 204.469 418.423 204.668C418.761 204.866 419.024 205.151 419.212 205.52C419.399 205.886 419.493 206.324 419.493 206.832V211H417.678V207.156C417.68 206.756 417.578 206.443 417.371 206.219C417.163 205.991 416.878 205.878 416.514 205.878C416.27 205.878 416.054 205.93 415.866 206.036C415.682 206.141 415.537 206.294 415.432 206.496C415.33 206.695 415.277 206.935 415.274 207.216ZM420.924 211V204.455H422.739V211H420.924ZM421.836 203.611C421.566 203.611 421.334 203.521 421.141 203.342C420.951 203.161 420.855 202.943 420.855 202.69C420.855 202.44 420.951 202.226 421.141 202.047C421.334 201.865 421.566 201.774 421.836 201.774C422.105 201.774 422.336 201.865 422.526 202.047C422.719 202.226 422.816 202.44 422.816 202.69C422.816 202.943 422.719 203.161 422.526 203.342C422.336 203.521 422.105 203.611 421.836 203.611ZM402.707 226V224.67L405.814 221.794C406.078 221.538 406.3 221.308 406.479 221.104C406.661 220.899 406.798 220.699 406.892 220.503C406.986 220.304 407.033 220.089 407.033 219.859C407.033 219.604 406.974 219.384 406.858 219.199C406.741 219.011 406.582 218.868 406.381 218.768C406.179 218.666 405.95 218.615 405.695 218.615C405.428 218.615 405.195 218.669 404.996 218.777C404.797 218.885 404.643 219.04 404.536 219.241C404.428 219.443 404.374 219.683 404.374 219.962H402.622C402.622 219.391 402.751 218.895 403.01 218.474C403.268 218.054 403.631 217.729 404.097 217.499C404.563 217.268 405.099 217.153 405.707 217.153C406.332 217.153 406.876 217.264 407.339 217.486C407.805 217.705 408.168 218.009 408.426 218.398C408.685 218.787 408.814 219.233 408.814 219.736C408.814 220.065 408.749 220.391 408.618 220.712C408.49 221.033 408.261 221.389 407.932 221.781C407.602 222.17 407.138 222.638 406.538 223.183L405.264 224.432V224.491H408.929V226H402.707ZM413.688 226.192C412.955 226.189 412.324 226.009 411.796 225.651C411.27 225.293 410.865 224.774 410.581 224.095C410.3 223.416 410.161 222.599 410.164 221.645C410.164 220.693 410.304 219.882 410.586 219.212C410.87 218.541 411.275 218.031 411.8 217.682C412.328 217.33 412.958 217.153 413.688 217.153C414.418 217.153 415.046 217.33 415.571 217.682C416.1 218.034 416.506 218.545 416.79 219.216C417.074 219.884 417.215 220.693 417.212 221.645C417.212 222.602 417.07 223.42 416.786 224.099C416.505 224.778 416.101 225.297 415.576 225.655C415.05 226.013 414.421 226.192 413.688 226.192ZM413.688 224.662C414.188 224.662 414.587 224.411 414.885 223.908C415.184 223.405 415.331 222.651 415.328 221.645C415.328 220.983 415.26 220.432 415.124 219.991C414.99 219.551 414.8 219.22 414.553 218.999C414.309 218.777 414.02 218.666 413.688 218.666C413.191 218.666 412.793 218.915 412.495 219.412C412.196 219.909 412.046 220.653 412.043 221.645C412.043 222.315 412.11 222.875 412.243 223.324C412.38 223.77 412.571 224.105 412.819 224.33C413.066 224.551 413.355 224.662 413.688 224.662ZM418.528 226V224.67L421.634 221.794C421.898 221.538 422.12 221.308 422.299 221.104C422.481 220.899 422.619 220.699 422.712 220.503C422.806 220.304 422.853 220.089 422.853 219.859C422.853 219.604 422.795 219.384 422.678 219.199C422.562 219.011 422.403 218.868 422.201 218.768C421.999 218.666 421.771 218.615 421.515 218.615C421.248 218.615 421.015 218.669 420.816 218.777C420.617 218.885 420.464 219.04 420.356 219.241C420.248 219.443 420.194 219.683 420.194 219.962H418.442C418.442 219.391 418.572 218.895 418.83 218.474C419.089 218.054 419.451 217.729 419.917 217.499C420.383 217.268 420.92 217.153 421.528 217.153C422.153 217.153 422.697 217.264 423.16 217.486C423.626 217.705 423.988 218.009 424.246 218.398C424.505 218.787 424.634 219.233 424.634 219.736C424.634 220.065 424.569 220.391 424.438 220.712C424.31 221.033 424.082 221.389 423.752 221.781C423.423 222.17 422.958 222.638 422.359 223.183L421.085 224.432V224.491H424.749V226H418.528ZM429.312 226.119C428.676 226.119 428.109 226.01 427.612 225.791C427.118 225.57 426.727 225.266 426.44 224.879C426.156 224.49 426.01 224.041 426.001 223.533H427.859C427.87 223.746 427.94 223.933 428.068 224.095C428.199 224.254 428.372 224.378 428.588 224.466C428.804 224.554 429.047 224.598 429.316 224.598C429.598 224.598 429.846 224.548 430.062 224.449C430.278 224.349 430.447 224.212 430.569 224.036C430.691 223.859 430.752 223.656 430.752 223.426C430.752 223.193 430.687 222.987 430.556 222.808C430.429 222.626 430.244 222.484 430.002 222.382C429.764 222.28 429.48 222.229 429.15 222.229H428.336V220.874H429.15C429.429 220.874 429.674 220.825 429.887 220.729C430.103 220.632 430.271 220.499 430.39 220.328C430.51 220.155 430.569 219.953 430.569 219.723C430.569 219.504 430.517 219.312 430.412 219.148C430.309 218.98 430.164 218.849 429.977 218.756C429.792 218.662 429.576 218.615 429.329 218.615C429.079 218.615 428.85 218.661 428.643 218.751C428.436 218.839 428.27 218.966 428.145 219.131C428.02 219.295 427.953 219.489 427.944 219.71H426.176C426.184 219.207 426.328 218.764 426.606 218.381C426.885 217.997 427.26 217.697 427.731 217.482C428.206 217.263 428.741 217.153 429.338 217.153C429.94 217.153 430.467 217.263 430.919 217.482C431.37 217.7 431.721 217.996 431.971 218.368C432.224 218.737 432.349 219.152 432.346 219.612C432.349 220.101 432.197 220.509 431.89 220.835C431.586 221.162 431.19 221.369 430.701 221.457V221.526C431.343 221.608 431.832 221.831 432.167 222.195C432.505 222.555 432.673 223.007 432.67 223.55C432.673 224.047 432.529 224.489 432.24 224.875C431.953 225.261 431.556 225.565 431.051 225.787C430.545 226.009 429.966 226.119 429.312 226.119Z" fill="#FF5B22"/>
</svg>
