<svg width="1389" height="407" viewBox="0 0 1389 407" fill="none" xmlns="http://www.w3.org/2000/svg">
<path d="M6 84H63.2766L165.017 230.104H109.33L42.6962 129.454V333.999H64.1942" stroke="#FF5B22" stroke-width="28" stroke-miterlimit="10"/>
<path d="M6 334H73.2151" stroke="#FF5B22" stroke-width="28" stroke-miterlimit="10"/>
<path d="M165.017 184.519L233.914 84H267.308" stroke="#FF5B22" stroke-width="28" stroke-miterlimit="10"/>
<path d="M235.351 119.714V333.999H205.016H267.307" stroke="#FF5B22" stroke-width="28" stroke-miterlimit="10"/>
<path d="M419 337.71C426.587 337.71 456.703 338.552 471.331 336.105C485.959 333.658 493.643 324.542 493.643 324.542C493.643 324.542 500.429 317.056 502.973 308.738C507.624 293.536 507.009 284.616 507.009 275.464C507.009 267.883 507.017 82.6415 507.017 80" stroke="#FF5B22" stroke-width="28" stroke-miterlimit="10"/>
<path d="M335.767 127.716C335.767 199.776 335.866 258.594 335.866 278.794C335.866 288.538 336.433 295.573 340.107 304.579C343.5 312.897 346.893 318.72 357.071 327.869C364.668 334.697 376.58 340.346 386.759 337.019C396.937 333.692 398.634 322.878 398.634 315.392C397.786 271.308 396.937 228.888 396.937 185.636C396.937 134.898 399.513 109.441 392.696 98.2995C390.152 94.1406 388.835 92.0844 380.821 89.151C375.787 87.3082 364.705 88.3178 296 88.3195" stroke="#FF5B22" stroke-width="28" stroke-miterlimit="10"/>
<path d="M667.385 153.071C670.72 153.071 676.557 153.071 682.393 153.071C695.732 153.071 696.504 153.774 698.763 152.153C707.379 145.928 706.124 112.245 690.398 97.04C684.794 91.5935 682.799 89.6263 675.723 86.3726C670.72 84.0723 661.549 84.0715 642.997 84.0723C638.563 83.9102 632.369 84.0713 620.696 84.0715C601.52 83.8714 591.887 85.0125 587.23 87.3142C569.218 96.1971 562.47 118.566 562.135 119.733C560.546 125.212 560.156 133.123 559.347 148.911C558.817 159.252 558.957 165.898 559.347 171.604C559.988 181.33 560.323 186.193 562.135 191.056C566.262 202.143 575.742 207.362 581.654 210.507C597.742 219.066 628.107 234.368 668.092 252.652" stroke="#FF5B22" stroke-width="28" stroke-miterlimit="10"/>
<path d="M600.886 264.785C595.884 264.785 587.91 264.785 585.045 264.785C580.043 264.785 576.924 264.79 573.373 264.79C568.542 264.79 567.431 266.819 565.869 268.959C564.202 273.128 564.836 273.128 564.836 282.299C564.836 288.969 564.836 288.969 564.836 296.472C564.836 302.308 563.37 312.587 569.838 320.108C578.036 329.607 592.349 333.99 606.523 333.99C608.952 333.99 612.558 333.99 636.737 333.99C653.65 333.99 663.085 334.277 670.92 331.489C680.818 327.988 687.334 321.762 689.063 320.108C693.231 316.121 696.304 312.826 699.901 304.267C703.414 295.871 706.128 283.718 705.737 262.581C705.124 228.281 702.634 227.206 699.901 221.728C696.165 214.271 687.395 210.055 674.055 203.385C654.879 195.048 659.087 196.447 637.371 186.711C624.461 180.357 618.195 177.248 600.687 167.243C588.181 160.097 586.513 158.906 579.01 154.737" stroke="#FF5B22" stroke-width="28" stroke-miterlimit="10"/>
<path d="M797.564 119.449V334H762H882" stroke="#FF5B22" stroke-width="28" stroke-miterlimit="10"/>
<path d="M762 84H848.462H882" stroke="#FF5B22" stroke-width="28" stroke-miterlimit="10"/>
<path d="M848.462 84V323.08" stroke="#FF5B22" stroke-width="28" stroke-miterlimit="10"/>
<path d="M937 86.8555H1012.19H1042.9" stroke="#FF5B22" stroke-width="28" stroke-miterlimit="10"/>
<path d="M969.845 122.215V335.814H937H962.524H988.845H1042.29" stroke="#FF5B22" stroke-width="28" stroke-miterlimit="10"/>
<path d="M1012.19 86.8555V329.823" stroke="#FF5B22" stroke-width="28" stroke-miterlimit="10"/>
<path d="M1123.34 74L1013.36 194.536" stroke="#FF5B22" stroke-width="28" stroke-miterlimit="10"/>
<path d="M1067.62 189.715L1138 344" stroke="#FF5B22" stroke-width="28" stroke-miterlimit="10"/>
<path d="M1070.97 36.4812L1080.49 51.7032C1084.11 57.4516 1088 58.415 1091.23 56.3597C1094.78 54.1117 1095.48 50.1296 1091.93 44.4455L1082.41 29.2235L1085.54 27.2324L1094.94 42.2296C1099.89 50.1296 1098.04 55.8459 1092.83 59.1215C1087.91 62.2366 1082.32 61.5622 1077.33 53.5979L1067.84 38.4402L1070.97 36.4491V36.4812Z" fill="#110CFF"/>
<path d="M1099.76 36.1604C1098.84 34.1051 1098.07 32.4352 1097.21 30.8295L1100.21 29.4807L1101.87 32.6921H1101.94C1102 30.3478 1103.34 27.5218 1106.41 26.1409C1108.97 24.9848 1113.7 24.8242 1116.76 31.6645L1122.07 43.5466L1118.68 45.056L1113.57 33.5592C1112.13 30.3478 1109.83 28.1641 1106.63 29.6092C1104.4 30.6047 1103.44 33.0775 1103.76 35.3576C1103.82 35.8714 1104.01 36.5458 1104.27 37.156L1109.61 49.1344L1106.22 50.6438L1099.73 36.1283L1099.76 36.1604Z" fill="#110CFF"/>
<path d="M1134.53 6.06934L1142.04 31.343C1142.58 33.2056 1143.26 35.293 1143.8 36.706L1140.6 37.6694L1139.36 34.0727H1139.26C1138.88 36.7702 1137.02 39.243 1133.83 40.2064C1129.1 41.6194 1124.21 38.408 1122.32 32.0816C1120.22 25.145 1123 19.6535 1127.76 18.2405C1130.73 17.3413 1133.22 18.2405 1134.6 19.6856H1134.66L1130.95 7.16121L1134.5 6.10144L1134.53 6.06934ZM1136.42 25.4019C1136.29 24.9202 1136.03 24.2779 1135.78 23.8604C1134.53 21.6125 1132.01 20.1994 1129.35 20.9702C1125.68 22.0621 1124.53 26.1726 1125.9 30.797C1127.15 35.0361 1130.12 37.9584 1133.96 36.8023C1136.35 36.0958 1138.01 33.7515 1137.82 30.7007C1137.79 30.1548 1137.66 29.6088 1137.5 28.9986L1136.42 25.3698V25.4019Z" fill="#110CFF"/>
<path d="M1149.07 25.2739C1150.03 30.5406 1153.55 32.2105 1157.19 31.6004C1159.81 31.1508 1161.31 30.4122 1162.56 29.5451L1163.64 32.2427C1162.46 33.0776 1160.38 34.1695 1157.19 34.6833C1150.99 35.711 1146.58 31.9857 1145.52 25.4987C1144.44 19.0117 1147.19 13.2954 1153.03 12.2999C1159.59 11.208 1162.37 17.0849 1163 21.067C1163.13 21.8699 1163.16 22.5121 1163.2 22.8975L1149.07 25.2739ZM1159.33 20.6816C1158.95 18.1768 1157.32 14.4837 1153.23 15.1581C1149.52 15.7682 1148.53 19.6861 1148.69 22.4479L1159.36 20.6495L1159.33 20.6816Z" fill="#110CFF"/>
<path d="M1167.83 17.7594C1167.67 15.1903 1167.45 13.0065 1167.19 10.9834L1170.42 10.7586L1170.83 15.0297H1170.99C1171.73 12.0431 1173.81 10.0199 1176.3 9.85938C1176.71 9.85938 1177 9.85938 1177.35 9.9236L1177.61 13.6488C1177.22 13.5846 1176.84 13.5525 1176.33 13.5846C1173.74 13.7773 1172.02 15.9931 1171.73 19.0118C1171.7 19.5578 1171.63 20.2001 1171.7 20.8744L1172.5 32.4676L1168.85 32.7245L1167.83 17.7594Z" fill="#110CFF"/>
<path d="M1190.17 31.8891C1190.36 30.4119 1190.65 28.2281 1190.81 26.3013L1192.98 0L1196.62 0.289026L1195.5 13.9374H1195.6C1197.1 11.6252 1199.59 10.2443 1202.85 10.5334C1207.87 10.9508 1211.07 15.7358 1210.49 22.3513C1209.85 30.1228 1204.96 33.6232 1200.42 33.2379C1197.48 32.981 1195.25 31.6001 1193.97 28.5814H1193.84L1193.36 32.146L1190.17 31.8891ZM1194.7 23.4753C1194.67 23.957 1194.7 24.4708 1194.77 24.9204C1195.25 27.7143 1197.23 29.7696 1199.91 29.9944C1203.78 30.3155 1206.37 27.1362 1206.75 22.1586C1207.1 17.7911 1205.31 13.9053 1201.38 13.5842C1198.86 13.3915 1196.37 15.0293 1195.38 17.9838C1195.25 18.4334 1195.09 18.9472 1195.02 19.5895L1194.7 23.5074V23.4753Z" fill="#110CFF"/>
<path d="M1216.11 19.622C1216.59 17.085 1216.95 14.9333 1217.2 12.9102L1220.4 13.5203L1219.73 17.7593H1219.89C1221.32 15.0939 1223.88 13.6809 1226.31 14.1305C1226.72 14.1947 1227.01 14.3232 1227.33 14.4516L1226.63 18.1447C1226.28 17.9841 1225.89 17.8557 1225.41 17.7915C1222.86 17.3098 1220.65 19.0439 1219.6 21.8699C1219.41 22.3838 1219.21 22.9939 1219.09 23.6683L1216.95 35.1009L1213.33 34.4265L1216.11 19.6862V19.622Z" fill="#110CFF"/>
<path d="M1246.47 31.3114C1244.2 39.0508 1238.23 40.9455 1233.5 39.5646C1228.23 37.9911 1225.35 32.628 1227.3 26.0126C1229.34 19.0117 1234.84 16.1536 1240.24 17.7593C1245.83 19.4292 1248.36 24.9207 1246.47 31.3114ZM1230.91 26.9439C1229.57 31.5362 1231.01 35.711 1234.49 36.7386C1237.88 37.7341 1241.42 35.0687 1242.8 30.3479C1243.85 26.8154 1243.5 21.8056 1239.31 20.5532C1235.13 19.3008 1232.09 22.9296 1230.91 26.9118V26.9439Z" fill="#110CFF"/>
<path d="M1252.74 34.8436C1250.69 39.7891 1252.74 43.0968 1256.12 44.5741C1258.55 45.6338 1260.21 45.8265 1261.75 45.7944L1261.2 48.6525C1259.77 48.7168 1257.43 48.492 1254.46 47.1753C1248.71 44.6704 1247.05 39.1147 1249.64 33.0773C1252.26 27.0399 1257.63 23.7322 1263.06 26.1086C1269.16 28.7741 1268.3 35.2289 1266.7 38.922C1266.38 39.6607 1266.06 40.2066 1265.84 40.5599L1252.74 34.8436ZM1263.82 36.5777C1264.88 34.2655 1265.49 30.2834 1261.68 28.6135C1258.26 27.1041 1255.29 29.8338 1253.92 32.2424L1263.82 36.5777Z" fill="#110CFF"/>
<path d="M1273.25 37.9906C1274.4 36.0638 1275.3 34.426 1276.1 32.8203L1278.91 34.4902L1277.28 37.7016H1277.34C1279.26 36.4813 1282.33 35.9354 1285.2 37.6695C1287.63 39.1146 1290.48 42.9041 1286.71 49.359L1280.12 60.5667L1276.93 58.672L1283.29 47.8496C1285.08 44.8309 1285.49 41.6837 1282.49 39.8854C1280.38 38.6329 1277.82 39.2752 1276.16 40.8488C1275.78 41.202 1275.36 41.7159 1275.01 42.326L1268.36 53.6301L1265.17 51.7354L1273.22 38.0228L1273.25 37.9906Z" fill="#110CFF"/>
<path d="M1306.45 63.6497L1304.6 65.9298L1296.55 59.3465L1298.4 57.0664L1306.45 63.6497Z" fill="#110CFF"/>
<path d="M1332.63 91.7177C1335.69 88.7953 1339.4 85.2949 1342.28 82.8542L1342.18 82.7579C1338.86 84.3315 1335.21 85.905 1331.12 87.5107L1316.71 93.2591L1314.89 91.1396L1322.88 78.2298C1325.24 74.4083 1327.48 71.0042 1329.69 68.0497L1329.62 67.9855C1326.71 70.394 1322.72 73.5412 1319.11 76.303L1308.75 84.203L1306.49 81.5376L1330.77 63.2969L1333.81 66.8615L1325.82 80.1245C1323.74 83.4644 1321.86 86.3546 1319.94 88.9559L1320.04 89.0522C1322.82 87.6071 1326.01 86.1941 1329.72 84.6847L1344.13 79.0006L1347.17 82.5652L1325.31 103.664L1322.98 100.934L1332.63 91.7177Z" fill="#110CFF"/>
<path d="M1327.74 108.256L1345.89 96.2458L1347.93 99.3608L1329.78 111.371L1327.74 108.256ZM1353.24 96.3421C1352.15 97.1128 1350.71 96.9523 1349.91 95.6998C1349.21 94.6079 1349.59 93.227 1350.71 92.4884C1351.86 91.7177 1353.3 91.9425 1354.04 93.0665C1354.8 94.2226 1354.39 95.5714 1353.24 96.3421Z" fill="#110CFF"/>
<path d="M1369.18 116.445L1345.98 128.809C1344.29 129.708 1342.37 130.8 1341.09 131.603L1339.53 128.649L1342.79 126.722V126.658C1340.07 126.786 1337.29 125.437 1335.73 122.515C1333.42 118.147 1335.57 112.688 1341.41 109.605C1347.77 106.169 1353.68 107.807 1355.99 112.206C1357.46 114.968 1357.04 117.569 1355.92 119.207V119.272L1367.43 113.17L1369.15 116.445H1369.18ZM1350.68 122.098C1351.13 121.873 1351.7 121.519 1352.05 121.166C1354 119.496 1354.9 116.734 1353.59 114.262C1351.8 110.858 1347.55 110.537 1343.33 112.784C1339.43 114.84 1337.2 118.372 1339.05 121.905C1340.2 124.121 1342.82 125.309 1345.76 124.506C1346.3 124.378 1346.78 124.153 1347.36 123.864L1350.68 122.098Z" fill="#110CFF"/>
<path d="M1379.15 141.751L1354.52 150.871C1352.69 151.546 1350.65 152.349 1349.31 152.991L1348.16 149.844L1351.64 148.367V148.302C1348.96 148.078 1346.37 146.376 1345.22 143.228C1343.52 138.572 1346.37 133.466 1352.57 131.186C1359.34 128.649 1364.96 131.057 1366.69 135.746C1367.78 138.668 1367.01 141.205 1365.7 142.682V142.747L1377.91 138.251L1379.19 141.751H1379.15ZM1360.04 144.834C1360.49 144.674 1361.13 144.384 1361.55 144.095C1363.72 142.715 1364.96 140.081 1364.01 137.48C1362.7 133.883 1358.54 132.984 1354.04 134.654C1349.91 136.195 1347.2 139.343 1348.57 143.132C1349.43 145.476 1351.86 147.018 1354.87 146.6C1355.41 146.536 1355.92 146.376 1356.53 146.183L1360.08 144.866L1360.04 144.834Z" fill="#110CFF"/>
<path d="M1360.97 157.519C1355.79 158.803 1354.36 162.432 1355.19 166.061C1355.76 168.662 1356.62 170.107 1357.52 171.328L1354.9 172.58C1354 171.456 1352.79 169.433 1352.09 166.254C1350.68 160.12 1354.13 155.463 1360.52 153.986C1366.91 152.509 1372.73 154.917 1374.07 160.73C1375.54 167.249 1369.85 170.364 1365.96 171.263C1365.16 171.456 1364.55 171.488 1364.13 171.552L1360.94 157.551L1360.97 157.519ZM1366.15 167.506C1368.61 166.992 1372.19 165.13 1371.26 161.051C1370.43 157.39 1366.47 156.587 1363.75 156.908L1366.15 167.506Z" fill="#110CFF"/>
<path d="M1386.25 173.512L1386.76 177.205L1355.19 181.54L1354.68 177.847L1386.25 173.512Z" fill="#110CFF"/>
<path d="M1355.86 187.609L1374.52 186.228L1374.3 183.37L1377.3 183.146L1377.52 186.004L1378.55 185.939C1381.58 185.715 1384.43 186.132 1386.28 187.738C1387.81 189.022 1388.55 190.821 1388.68 192.555C1388.77 193.872 1388.55 195.028 1388.29 195.766L1385.22 195.477C1385.45 194.899 1385.61 194.128 1385.54 193.069C1385.32 189.922 1382.29 189.311 1378.99 189.568L1377.84 189.665L1378.19 194.61L1375.19 194.835L1374.84 189.889L1356.18 191.27L1355.92 187.609H1355.86Z" fill="#110CFF"/>
<path d="M1356.43 210.186L1359.18 209.929V209.8C1357.49 208.644 1356.02 206.396 1356.05 203.474C1356.11 199.331 1359.24 197.276 1362.38 197.308C1367.62 197.404 1370.43 201.836 1370.24 209.736H1370.69C1372.47 209.768 1375.7 209.351 1375.8 205.176C1375.8 203.281 1375.22 201.29 1374.26 199.813L1376.88 199.01C1378.03 200.712 1378.74 203.185 1378.71 205.754C1378.61 212.016 1374.04 213.461 1369.69 213.397L1361.58 213.269C1359.69 213.269 1357.84 213.269 1356.37 213.526L1356.43 210.154V210.186ZM1367.52 209.832C1367.68 205.786 1366.98 201.162 1362.76 201.097C1360.2 201.065 1358.96 202.639 1358.93 204.534C1358.89 207.199 1360.65 208.933 1362.47 209.543C1362.89 209.672 1363.34 209.768 1363.72 209.768L1367.49 209.832H1367.52Z" fill="#110CFF"/>
<path d="M1370.75 220.173C1373.31 220.462 1375.48 220.654 1377.49 220.783L1377.14 224.026L1372.89 223.673V223.834C1375.67 225.086 1377.24 227.527 1376.98 230C1376.95 230.417 1376.85 230.706 1376.72 231.027L1373.02 230.61C1373.15 230.256 1373.24 229.871 1373.31 229.357C1373.59 226.756 1371.71 224.669 1368.83 223.834C1368.32 223.673 1367.68 223.545 1367.01 223.448L1355.51 222.132L1355.92 218.471L1370.78 220.141L1370.75 220.173Z" fill="#110CFF"/>
<path d="M1380.59 242.46L1374.46 241.239L1373.43 246.474L1370.49 245.896L1371.55 240.661L1360.04 238.349C1357.39 237.803 1355.76 238.22 1355.38 240.244C1355.19 241.207 1355.19 241.914 1355.22 242.395L1352.28 241.978C1352.12 241.207 1352.12 240.051 1352.41 238.638C1352.76 236.936 1353.59 235.683 1354.8 235.041C1356.15 234.238 1358.13 234.238 1360.62 234.752L1372.25 237.096L1372.86 233.981L1375.8 234.559L1375.19 237.675L1380.3 238.702L1380.59 242.46Z" fill="#110CFF"/>
<path d="M1355.28 246.218C1354.23 247.053 1352.92 248.69 1352.41 250.489C1351.64 253.09 1352.66 254.696 1354.39 255.209C1356.21 255.755 1357.49 255.017 1359.28 252.672C1361.64 249.525 1364.2 248.466 1366.69 249.204C1370.05 250.2 1372.06 253.54 1370.84 257.779C1370.27 259.77 1369.15 261.343 1368.16 262.242L1365.67 260.54C1366.4 259.93 1367.52 258.71 1368.03 256.879C1368.64 254.76 1367.68 253.218 1366.15 252.769C1364.42 252.255 1363.3 253.218 1361.51 255.466C1359.15 258.485 1356.82 259.673 1353.72 258.774C1350.04 257.714 1348.25 254.278 1349.59 249.589C1350.23 247.438 1351.35 245.607 1352.63 244.483L1355.25 246.218H1355.28Z" fill="#110CFF"/>
<path d="M1372.31 282.698L1370.72 286.038L1358.51 280.129V280.193C1359.21 281.221 1359.72 282.473 1359.82 283.79C1359.95 285.075 1359.82 286.456 1359.18 287.708C1358 290.181 1354.48 293.36 1347.74 290.084L1336.11 284.465L1337.71 281.125L1348.96 286.552C1352.12 288.093 1355.31 288.254 1356.82 285.107C1357.87 282.923 1357.07 280.45 1355.41 278.909C1355.03 278.491 1354.52 278.202 1353.81 277.849L1342.02 272.133L1343.62 268.793L1372.31 282.666V282.698Z" fill="#110CFF"/>
<path d="M1351.35 301.325L1338.12 298.178C1336.65 297.792 1334.96 297.311 1333.68 296.893V296.957C1334.54 297.985 1335.69 299.237 1336.75 300.522L1345.31 310.831L1343.2 314.138L1333.14 301.068C1328.28 294.806 1326.04 291.209 1325.44 287.805C1324.96 285.364 1325.37 283.47 1325.72 282.57L1329.01 283.566C1328.79 284.529 1328.66 285.878 1328.89 287.355C1329.05 288.672 1329.69 290.567 1330.93 292.365C1331.19 292.718 1331.38 293.007 1331.57 293.136C1331.76 293.264 1332.08 293.361 1332.59 293.489L1353.52 297.921L1351.35 301.325Z" fill="#110CFF"/>
<path d="M1329.37 331.511C1328.22 330.452 1326.91 329.264 1324.86 327.561L1315.11 319.533C1311.25 316.354 1309.49 313.688 1309.27 310.959C1308.98 308.165 1310.32 305.531 1311.95 303.54C1313.48 301.646 1315.69 299.944 1317.64 299.43L1319.36 302.063C1317.83 302.545 1315.85 303.669 1314.25 305.628C1311.85 308.582 1311.73 312.083 1315.94 315.551L1317.83 317.092L1317.89 317.028C1317.06 314.844 1317.19 312.115 1319.2 309.674C1322.4 305.756 1328.25 305.852 1332.88 309.674C1338.57 314.363 1338.95 320.529 1335.98 324.157C1333.74 326.919 1331 327.144 1329.05 326.694L1328.98 326.759L1331.41 328.975L1329.37 331.479V331.511ZM1325.15 323.066C1325.66 323.483 1326.14 323.836 1326.68 324.061C1328.89 324.992 1331.48 324.8 1333.2 322.712C1335.44 319.983 1334.58 315.968 1330.68 312.757C1327.38 310.027 1323.36 309.353 1320.83 312.436C1319.4 314.202 1319.27 316.771 1320.71 318.987C1321.09 319.565 1321.63 320.143 1322.14 320.561L1325.15 323.066Z" fill="#110CFF"/>
<path d="M1311.22 349.271C1310.19 348.05 1309.07 346.734 1307.25 344.775L1298.62 335.526C1295.21 331.865 1293.8 329.007 1293.96 326.277C1294.06 323.483 1295.72 321.043 1297.57 319.276C1299.36 317.606 1301.76 316.193 1303.74 315.937L1305.11 318.763C1303.51 319.019 1301.44 319.887 1299.58 321.621C1296.84 324.222 1296.23 327.69 1300 331.672L1301.66 333.439L1301.72 333.374C1301.18 331.126 1301.66 328.429 1303.96 326.245C1307.64 322.777 1313.42 323.644 1317.54 328.043C1322.59 333.439 1322.14 339.572 1318.76 342.784C1316.17 345.224 1313.42 345.096 1311.53 344.389L1311.47 344.454L1313.58 346.959L1311.22 349.174V349.271ZM1308.15 340.375C1308.59 340.857 1309.04 341.274 1309.52 341.531C1311.57 342.752 1314.19 342.88 1316.14 341.018C1318.72 338.577 1318.37 334.53 1314.92 330.837C1312.01 327.722 1308.12 326.502 1305.21 329.264C1303.55 330.837 1303.1 333.374 1304.22 335.751C1304.54 336.393 1304.98 337.003 1305.43 337.485L1308.12 340.343L1308.15 340.375Z" fill="#110CFF"/>
<path d="M1296.74 345.963C1293.54 341.66 1289.65 341.788 1286.67 343.972C1284.53 345.546 1283.54 346.894 1282.77 348.211L1280.6 346.284C1281.27 345 1282.68 343.105 1285.27 341.178C1290.32 337.453 1295.94 338.834 1299.81 344.133C1303.67 349.464 1303.77 355.79 1298.98 359.29C1293.61 363.208 1288.49 359.194 1286.16 355.951C1285.68 355.276 1285.4 354.73 1285.17 354.377L1296.74 345.899V345.963ZM1289.65 354.666C1291.08 356.721 1294.21 359.323 1297.57 356.85C1300.61 354.634 1299.74 350.684 1298.37 348.275L1289.65 354.666Z" fill="#110CFF"/>
<path d="M1292.11 375.636L1288.94 377.563L1272.45 350.138L1275.62 348.211L1292.11 375.636Z" fill="#110CFF"/>
<path d="M1267.4 353.028L1277.6 372.297L1274.34 374.031L1264.14 354.762L1267.4 353.028ZM1276.83 379.683C1276.16 378.495 1276.48 377.114 1277.76 376.407C1278.91 375.797 1280.22 376.311 1280.86 377.499C1281.5 378.719 1281.14 380.132 1279.96 380.775C1278.75 381.417 1277.44 380.903 1276.8 379.651L1276.83 379.683Z" fill="#110CFF"/>
<path d="M1251.59 384.275C1251.04 382.798 1250.47 381.128 1249.44 378.687L1244.59 366.998C1242.67 362.374 1242.35 359.194 1243.44 356.689C1244.49 354.088 1246.89 352.418 1249.29 351.423C1251.52 350.491 1254.27 350.01 1256.22 350.459L1256.51 353.607C1254.91 353.285 1252.67 353.35 1250.34 354.345C1246.86 355.822 1245.1 358.841 1247.21 363.915L1248.13 366.163H1248.2C1248.45 363.819 1249.86 361.474 1252.77 360.254C1257.43 358.295 1262.51 361.153 1264.85 366.709C1267.69 373.517 1265.14 379.137 1260.82 380.935C1257.56 382.316 1255.01 381.225 1253.5 379.908H1253.44L1254.56 383.055L1251.59 384.307V384.275ZM1251.81 374.834C1252.07 375.476 1252.32 375.99 1252.7 376.407C1254.21 378.27 1256.6 379.33 1259.1 378.27C1262.35 376.889 1263.47 372.971 1261.52 368.315C1259.89 364.365 1256.67 361.86 1252.96 363.401C1250.85 364.268 1249.54 366.484 1249.76 369.118C1249.83 369.824 1250.05 370.563 1250.31 371.173L1251.81 374.802V374.834Z" fill="#110CFF"/>
<path d="M1239.86 369.47C1238.61 369.053 1236.5 368.796 1234.75 369.31C1232.16 370.08 1231.36 371.814 1231.84 373.549C1232.38 375.379 1233.66 376.086 1236.6 376.343C1240.5 376.664 1242.77 378.237 1243.47 380.774C1244.46 384.146 1242.7 387.679 1238.52 388.899C1236.53 389.477 1234.62 389.381 1233.34 388.995L1233.43 385.977C1234.36 386.266 1235.96 386.555 1237.78 386.009C1239.89 385.399 1240.69 383.761 1240.21 382.187C1239.7 380.453 1238.32 380.004 1235.48 379.715C1231.68 379.329 1229.41 378.012 1228.51 374.897C1227.46 371.204 1229.38 367.832 1234.01 366.484C1236.15 365.841 1238.29 365.841 1239.92 366.291L1239.86 369.47Z" fill="#110CFF"/>
<path d="M1223.91 398.309L1222.7 392.175L1217.49 393.203L1216.91 390.248L1222.12 389.221L1219.82 377.692C1219.28 375.026 1218.29 373.678 1216.27 374.095C1215.32 374.288 1214.64 374.545 1214.23 374.769L1213.49 371.879C1214.13 371.43 1215.22 370.98 1216.59 370.691C1218.29 370.338 1219.76 370.659 1220.84 371.526C1222.09 372.457 1222.86 374.288 1223.37 376.825L1225.7 388.482L1228.8 387.872L1229.41 390.826L1226.31 391.437L1227.33 396.575L1223.98 398.309H1223.91Z" fill="#110CFF"/>
<path d="M1209.15 382.734C1208.51 377.403 1205.12 375.54 1201.45 375.926C1198.83 376.182 1197.26 376.857 1195.95 377.628L1195.02 374.866C1196.27 374.095 1198.41 373.164 1201.61 372.843C1207.84 372.2 1212.02 376.215 1212.7 382.766C1213.37 389.317 1210.3 394.841 1204.39 395.451C1197.77 396.125 1195.38 390.088 1194.96 386.074C1194.86 385.271 1194.9 384.628 1194.9 384.211L1209.12 382.734H1209.15ZM1198.64 386.684C1198.86 389.189 1200.26 393.01 1204.39 392.56C1208.13 392.175 1209.37 388.321 1209.37 385.56L1198.6 386.652L1198.64 386.684Z" fill="#110CFF"/>
<path d="M1180.9 374.031L1180.2 392.817L1183.04 392.914L1182.91 395.932L1180.07 395.836V396.864C1179.91 399.914 1179.17 402.708 1177.38 404.378C1175.95 405.759 1174.06 406.273 1172.34 406.209C1171.03 406.177 1169.91 405.791 1169.2 405.47L1169.81 402.419C1170.35 402.708 1171.09 402.965 1172.14 402.997C1175.31 403.126 1176.2 400.171 1176.33 396.832V395.675L1171.44 395.483L1171.54 392.464L1176.46 392.657L1177.16 373.87L1180.8 373.999L1180.9 374.031Z" fill="#110CFF"/>
<path d="M1166.93 383.472C1167.51 378.141 1164.63 375.54 1160.96 375.09C1158.34 374.769 1156.68 375.058 1155.24 375.507L1154.95 372.617C1156.33 372.168 1158.63 371.718 1161.85 372.136C1168.09 372.938 1171.25 377.788 1170.42 384.307C1169.59 390.826 1165.37 395.514 1159.49 394.776C1152.91 393.941 1151.92 387.486 1152.43 383.504C1152.52 382.701 1152.68 382.091 1152.78 381.673L1166.97 383.472H1166.93ZM1155.81 384.917C1155.46 387.422 1155.97 391.436 1160.1 391.95C1163.8 392.432 1165.91 388.963 1166.52 386.266L1155.78 384.917H1155.81Z" fill="#110CFF"/>
<path d="M1149.74 374.737C1148.85 373.741 1147.15 372.489 1145.33 372.071C1142.71 371.461 1141.15 372.585 1140.73 374.319C1140.32 376.15 1141.08 377.402 1143.51 379.104C1146.77 381.32 1147.95 383.793 1147.35 386.362C1146.55 389.798 1143.32 391.982 1139.04 390.986C1137.02 390.505 1135.43 389.477 1134.47 388.513L1136.03 385.912C1136.7 386.619 1137.95 387.646 1139.8 388.096C1141.95 388.61 1143.42 387.55 1143.8 385.976C1144.21 384.21 1143.19 383.15 1140.86 381.481C1137.76 379.265 1136.42 377.017 1137.15 373.837C1138.01 370.112 1141.34 368.121 1146.04 369.213C1148.21 369.727 1150.09 370.755 1151.28 371.975L1149.68 374.704L1149.74 374.737Z" fill="#110CFF"/>
<path d="M1121.69 392.014L1123.63 386.041L1118.59 384.371L1119.51 381.513L1124.56 383.183L1128.2 372.007C1129.04 369.438 1128.84 367.768 1126.86 367.094C1125.94 366.805 1125.23 366.708 1124.75 366.676L1125.52 363.786C1126.29 363.722 1127.44 363.85 1128.81 364.3C1130.44 364.846 1131.59 365.841 1132.1 367.126C1132.74 368.571 1132.49 370.53 1131.72 372.971L1128.04 384.275L1131.05 385.27L1130.12 388.128L1127.12 387.133L1125.49 392.11L1121.72 391.982L1121.69 392.014Z" fill="#110CFF"/>
<path d="M1107.78 386.683C1108.23 385.398 1109.51 384.756 1110.88 385.302C1112.1 385.784 1112.55 387.133 1112.07 388.385C1111.56 389.67 1110.25 390.312 1109 389.83C1107.72 389.316 1107.31 387.968 1107.82 386.683H1107.78ZM1121.97 362.276L1113.89 382.54L1110.44 381.159L1118.52 360.896L1121.97 362.276Z" fill="#110CFF"/>
<path d="M1102.42 377.692L1104.33 364.942C1104.62 362.855 1104.94 361.024 1105.36 359.194L1105.23 359.13C1104.01 360.543 1102.67 361.891 1101.2 363.337L1092.19 372.521L1088.74 370.787L1105.64 354.891L1108.81 356.496L1105.96 379.49L1102.42 377.724V377.692Z" fill="#110CFF"/>
<path d="M1086.92 343.683L1085.67 346.156L1085.77 346.22C1087.65 345.417 1090.3 345.321 1092.77 346.927C1096.22 349.207 1096.28 352.964 1094.59 355.597C1091.71 360.029 1086.47 360.029 1079.92 355.694L1079.66 356.079C1078.67 357.588 1077.3 360.575 1080.78 362.855C1082.38 363.883 1084.36 364.461 1086.12 364.397L1085.42 367.062C1083.37 367.126 1080.91 366.42 1078.77 365.007C1073.56 361.603 1074.77 356.946 1077.14 353.285L1081.58 346.445C1082.6 344.871 1083.53 343.266 1084.14 341.885L1086.95 343.715L1086.92 343.683ZM1081.33 353.317C1084.65 355.597 1088.93 357.492 1091.23 353.927C1092.64 351.776 1091.97 349.881 1090.37 348.821C1088.16 347.376 1085.77 347.954 1084.27 349.175C1083.95 349.432 1083.63 349.785 1083.4 350.106L1081.33 353.285V353.317Z" fill="#110CFF"/>
<path d="M1060.65 364.011L1057.74 361.731L1077.3 336.457L1080.21 338.737L1060.65 364.011Z" fill="#110CFF"/>
<path d="M1165.32 201.479C1163.49 201.472 1161.91 201.021 1160.59 200.126C1159.28 199.232 1158.27 197.935 1157.56 196.238C1156.85 194.54 1156.51 192.499 1156.51 190.112C1156.51 187.733 1156.86 185.705 1157.57 184.029C1158.28 182.353 1159.29 181.078 1160.6 180.205C1161.92 179.324 1163.5 178.884 1165.32 178.884C1167.15 178.884 1168.72 179.324 1170.03 180.205C1171.35 181.085 1172.37 182.364 1173.08 184.04C1173.79 185.709 1174.14 187.733 1174.13 190.112C1174.13 192.506 1173.78 194.551 1173.07 196.249C1172.37 197.946 1171.36 199.242 1170.04 200.137C1168.73 201.032 1167.16 201.479 1165.32 201.479ZM1165.32 197.655C1166.57 197.655 1167.57 197.026 1168.32 195.769C1169.06 194.512 1169.43 192.626 1169.42 190.112C1169.42 188.457 1169.25 187.08 1168.91 185.979C1168.58 184.878 1168.1 184.05 1167.49 183.496C1166.88 182.942 1166.15 182.665 1165.32 182.665C1164.08 182.665 1163.09 183.287 1162.34 184.53C1161.59 185.773 1161.22 187.634 1161.21 190.112C1161.21 191.788 1161.38 193.188 1161.71 194.31C1162.05 195.425 1162.53 196.263 1163.15 196.824C1163.77 197.378 1164.49 197.655 1165.32 197.655ZM1185.32 178.884C1186.44 178.884 1187.52 179.072 1188.56 179.448C1189.6 179.825 1190.53 180.425 1191.35 181.249C1192.17 182.072 1192.82 183.166 1193.3 184.53C1193.78 185.886 1194.02 187.552 1194.03 189.526C1194.03 191.38 1193.82 193.035 1193.4 194.491C1192.99 195.94 1192.4 197.172 1191.62 198.188C1190.85 199.203 1189.92 199.977 1188.82 200.51C1187.73 201.036 1186.51 201.298 1185.16 201.298C1183.7 201.298 1182.42 201.018 1181.3 200.457C1180.19 199.888 1179.29 199.118 1178.61 198.145C1177.93 197.165 1177.52 196.064 1177.38 194.842H1181.93C1182.11 195.638 1182.48 196.256 1183.05 196.696C1183.62 197.129 1184.32 197.346 1185.16 197.346C1186.58 197.346 1187.66 196.728 1188.4 195.492C1189.13 194.249 1189.51 192.548 1189.51 190.389H1189.37C1189.04 191.028 1188.6 191.579 1188.04 192.04C1187.49 192.495 1186.85 192.847 1186.14 193.095C1185.43 193.344 1184.67 193.468 1183.87 193.468C1182.58 193.468 1181.44 193.166 1180.43 192.562C1179.42 191.959 1178.62 191.128 1178.04 190.07C1177.46 189.011 1177.17 187.804 1177.17 186.447C1177.16 184.984 1177.5 183.681 1178.18 182.538C1178.86 181.394 1179.81 180.499 1181.03 179.853C1182.26 179.2 1183.69 178.876 1185.32 178.884ZM1185.35 182.506C1184.63 182.506 1183.99 182.676 1183.43 183.017C1182.88 183.358 1182.44 183.816 1182.11 184.391C1181.79 184.967 1181.63 185.609 1181.64 186.32C1181.64 187.037 1181.8 187.683 1182.11 188.259C1182.43 188.827 1182.86 189.281 1183.41 189.622C1183.96 189.956 1184.6 190.123 1185.31 190.123C1185.84 190.123 1186.33 190.023 1186.79 189.825C1187.24 189.626 1187.64 189.352 1187.97 189.004C1188.31 188.649 1188.58 188.241 1188.77 187.779C1188.96 187.317 1189.06 186.827 1189.06 186.309C1189.05 185.62 1188.89 184.988 1188.57 184.413C1188.25 183.837 1187.81 183.376 1187.25 183.028C1186.68 182.68 1186.05 182.506 1185.35 182.506ZM1199.04 201.277C1198.34 201.277 1197.74 201.028 1197.23 200.531C1196.74 200.027 1196.49 199.423 1196.49 198.72C1196.49 198.024 1196.74 197.428 1197.23 196.93C1197.74 196.433 1198.34 196.185 1199.04 196.185C1199.73 196.185 1200.32 196.433 1200.83 196.93C1201.34 197.428 1201.6 198.024 1201.6 198.72C1201.6 199.189 1201.48 199.619 1201.24 200.009C1201 200.393 1200.7 200.702 1200.31 200.936C1199.93 201.163 1199.51 201.277 1199.04 201.277ZM1217.94 201.32C1216.43 201.32 1215.13 201.05 1214.04 200.51C1212.94 199.97 1212.1 199.239 1211.51 198.315C1210.93 197.385 1210.64 196.348 1210.64 195.205C1210.64 194.352 1210.81 193.596 1211.15 192.935C1211.49 192.275 1211.97 191.668 1212.58 191.114C1213.19 190.553 1213.9 189.995 1214.71 189.441L1218.94 186.661C1219.48 186.312 1219.88 185.947 1220.14 185.563C1220.4 185.173 1220.52 184.75 1220.52 184.295C1220.52 183.862 1220.35 183.461 1220 183.092C1219.65 182.722 1219.16 182.541 1218.52 182.548C1218.09 182.548 1217.73 182.644 1217.41 182.836C1217.1 183.021 1216.86 183.266 1216.68 183.571C1216.51 183.869 1216.42 184.203 1216.42 184.572C1216.42 185.027 1216.55 185.489 1216.81 185.957C1217.06 186.426 1217.4 186.923 1217.83 187.449C1218.25 187.967 1218.72 188.528 1219.22 189.132L1229.57 201H1224.84L1216.21 191.391C1215.64 190.744 1215.07 190.07 1214.5 189.366C1213.94 188.656 1213.47 187.903 1213.1 187.108C1212.72 186.305 1212.53 185.435 1212.53 184.498C1212.53 183.44 1212.78 182.488 1213.27 181.643C1213.77 180.798 1214.46 180.13 1215.36 179.64C1216.25 179.143 1217.3 178.894 1218.49 178.894C1219.65 178.894 1220.66 179.132 1221.5 179.608C1222.36 180.077 1223.01 180.702 1223.46 181.483C1223.93 182.257 1224.16 183.109 1224.16 184.04C1224.16 185.07 1223.9 186.004 1223.39 186.842C1222.89 187.673 1222.18 188.418 1221.26 189.079L1216.81 192.286C1216.2 192.726 1215.75 193.177 1215.46 193.638C1215.18 194.093 1215.04 194.53 1215.04 194.949C1215.04 195.467 1215.17 195.933 1215.42 196.344C1215.68 196.756 1216.04 197.083 1216.51 197.325C1216.98 197.559 1217.53 197.676 1218.16 197.676C1218.93 197.676 1219.68 197.502 1220.43 197.154C1221.18 196.799 1221.86 196.298 1222.47 195.652C1223.09 194.999 1223.58 194.224 1223.95 193.33C1224.32 192.435 1224.51 191.444 1224.51 190.357H1228.27C1228.27 191.692 1228.12 192.896 1227.83 193.969C1227.54 195.034 1227.14 195.964 1226.62 196.76C1226.1 197.548 1225.51 198.195 1224.84 198.699C1224.63 198.834 1224.42 198.962 1224.22 199.082C1224.02 199.203 1223.82 199.331 1223.6 199.466C1222.79 200.119 1221.89 200.592 1220.89 200.883C1219.89 201.174 1218.91 201.32 1217.94 201.32ZM1247.85 179.182V201H1243.24V183.56H1243.11L1238.12 186.692V182.602L1243.52 179.182H1247.85ZM1261.59 201.479C1259.76 201.472 1258.18 201.021 1256.86 200.126C1255.55 199.232 1254.54 197.935 1253.83 196.238C1253.12 194.54 1252.78 192.499 1252.78 190.112C1252.78 187.733 1253.13 185.705 1253.84 184.029C1254.55 182.353 1255.56 181.078 1256.87 180.205C1258.19 179.324 1259.77 178.884 1261.59 178.884C1263.42 178.884 1264.99 179.324 1266.3 180.205C1267.62 181.085 1268.64 182.364 1269.35 184.04C1270.06 185.709 1270.41 187.733 1270.4 190.112C1270.4 192.506 1270.05 194.551 1269.34 196.249C1268.63 197.946 1267.63 199.242 1266.31 200.137C1265 201.032 1263.43 201.479 1261.59 201.479ZM1261.59 197.655C1262.84 197.655 1263.84 197.026 1264.59 195.769C1265.33 194.512 1265.7 192.626 1265.69 190.112C1265.69 188.457 1265.52 187.08 1265.18 185.979C1264.85 184.878 1264.37 184.05 1263.76 183.496C1263.14 182.942 1262.42 182.665 1261.59 182.665C1260.35 182.665 1259.36 183.287 1258.61 184.53C1257.86 185.773 1257.49 187.634 1257.48 190.112C1257.48 191.788 1257.65 193.188 1257.98 194.31C1258.32 195.425 1258.8 196.263 1259.42 196.824C1260.04 197.378 1260.76 197.655 1261.59 197.655ZM1275.51 201.277C1274.81 201.277 1274.2 201.028 1273.7 200.531C1273.2 200.027 1272.95 199.423 1272.95 198.72C1272.95 198.024 1273.2 197.428 1273.7 196.93C1274.2 196.433 1274.81 196.185 1275.51 196.185C1276.19 196.185 1276.79 196.433 1277.3 196.93C1277.81 197.428 1278.07 198.024 1278.07 198.72C1278.07 199.189 1277.94 199.619 1277.7 200.009C1277.47 200.393 1277.16 200.702 1276.78 200.936C1276.39 201.163 1275.97 201.277 1275.51 201.277ZM1156.81 220.636H1161.35V237.81C1161.35 239.074 1161.1 240.097 1160.6 240.878C1160.11 241.659 1159.39 242.231 1158.46 242.593C1157.54 242.955 1156.43 243.136 1155.15 243.136C1154.99 243.136 1154.84 243.133 1154.7 243.126C1154.55 243.126 1154.4 243.122 1154.23 243.115V239.567C1154.35 239.575 1154.46 239.578 1154.55 239.578C1154.64 239.585 1154.73 239.589 1154.83 239.589C1155.56 239.589 1156.07 239.433 1156.36 239.12C1156.66 238.815 1156.81 238.353 1156.81 237.735V220.636ZM1159.07 218.527C1158.4 218.527 1157.83 218.303 1157.34 217.856C1156.86 217.401 1156.62 216.858 1156.62 216.226C1156.62 215.601 1156.86 215.065 1157.34 214.617C1157.83 214.163 1158.4 213.935 1159.07 213.935C1159.75 213.935 1160.33 214.163 1160.81 214.617C1161.29 215.065 1161.53 215.601 1161.53 216.226C1161.53 216.858 1161.29 217.401 1160.81 217.856C1160.33 218.303 1159.75 218.527 1159.07 218.527ZM1175.48 230.033V220.636H1180.02V237H1175.66V234.028H1175.49C1175.12 234.987 1174.51 235.757 1173.65 236.339C1172.79 236.922 1171.75 237.213 1170.52 237.213C1169.43 237.213 1168.47 236.964 1167.64 236.467C1166.81 235.97 1166.16 235.263 1165.69 234.347C1165.23 233.431 1164.99 232.334 1164.98 231.055V220.636H1169.52V230.246C1169.53 231.212 1169.79 231.975 1170.3 232.536C1170.81 233.097 1171.5 233.378 1172.36 233.378C1172.9 233.378 1173.42 233.254 1173.89 233.005C1174.37 232.749 1174.75 232.373 1175.04 231.876C1175.34 231.379 1175.49 230.764 1175.48 230.033ZM1188.19 227.54V237H1183.65V220.636H1187.97V223.523H1188.16C1188.53 222.572 1189.13 221.819 1189.99 221.265C1190.84 220.704 1191.87 220.423 1193.09 220.423C1194.22 220.423 1195.21 220.672 1196.06 221.169C1196.9 221.666 1197.56 222.376 1198.03 223.3C1198.5 224.216 1198.73 225.31 1198.73 226.581V237H1194.19V227.391C1194.2 226.389 1193.95 225.608 1193.43 225.047C1192.91 224.479 1192.19 224.195 1191.29 224.195C1190.67 224.195 1190.13 224.326 1189.67 224.589C1189.2 224.852 1188.84 225.235 1188.58 225.739C1188.32 226.237 1188.19 226.837 1188.19 227.54ZM1202.31 237V220.636H1206.85V237H1202.31ZM1204.59 218.527C1203.91 218.527 1203.34 218.303 1202.85 217.856C1202.38 217.401 1202.14 216.858 1202.14 216.226C1202.14 215.601 1202.38 215.065 1202.85 214.617C1203.34 214.163 1203.91 213.935 1204.59 213.935C1205.26 213.935 1205.84 214.163 1206.31 214.617C1206.8 215.065 1207.04 215.601 1207.04 216.226C1207.04 216.858 1206.8 217.401 1206.31 217.856C1205.84 218.303 1205.26 218.527 1204.59 218.527ZM1156.77 273V269.676L1164.53 262.485C1165.2 261.846 1165.75 261.271 1166.2 260.759C1166.65 260.248 1167 259.747 1167.23 259.257C1167.46 258.76 1167.58 258.224 1167.58 257.648C1167.58 257.009 1167.44 256.459 1167.14 255.997C1166.85 255.528 1166.46 255.17 1165.95 254.921C1165.45 254.665 1164.88 254.538 1164.24 254.538C1163.57 254.538 1162.99 254.673 1162.49 254.942C1161.99 255.212 1161.61 255.599 1161.34 256.104C1161.07 256.608 1160.93 257.208 1160.93 257.904H1156.56C1156.56 256.477 1156.88 255.237 1157.52 254.186C1158.17 253.135 1159.08 252.322 1160.24 251.746C1161.41 251.171 1162.75 250.884 1164.27 250.884C1165.83 250.884 1167.19 251.161 1168.35 251.714C1169.51 252.261 1170.42 253.021 1171.07 253.994C1171.71 254.967 1172.03 256.082 1172.03 257.339C1172.03 258.163 1171.87 258.977 1171.54 259.779C1171.23 260.582 1170.65 261.473 1169.83 262.453C1169.01 263.426 1167.84 264.594 1166.35 265.958L1163.16 269.08V269.229H1172.32V273H1156.77ZM1184.22 273.479C1182.39 273.472 1180.81 273.021 1179.49 272.126C1178.18 271.232 1177.16 269.935 1176.45 268.238C1175.75 266.54 1175.4 264.499 1175.41 262.112C1175.41 259.733 1175.76 257.705 1176.46 256.029C1177.17 254.353 1178.19 253.078 1179.5 252.205C1180.82 251.324 1182.39 250.884 1184.22 250.884C1186.04 250.884 1187.61 251.324 1188.93 252.205C1190.25 253.085 1191.27 254.364 1191.98 256.04C1192.69 257.709 1193.04 259.733 1193.03 262.112C1193.03 264.506 1192.67 266.551 1191.96 268.249C1191.26 269.946 1190.25 271.242 1188.94 272.137C1187.63 273.032 1186.05 273.479 1184.22 273.479ZM1184.22 269.655C1185.47 269.655 1186.47 269.026 1187.21 267.769C1187.96 266.512 1188.33 264.626 1188.32 262.112C1188.32 260.457 1188.15 259.08 1187.81 257.979C1187.48 256.878 1187 256.05 1186.38 255.496C1185.77 254.942 1185.05 254.665 1184.22 254.665C1182.98 254.665 1181.98 255.287 1181.24 256.53C1180.49 257.773 1180.11 259.634 1180.11 262.112C1180.11 263.788 1180.27 265.188 1180.61 266.31C1180.95 267.425 1181.43 268.263 1182.05 268.824C1182.66 269.378 1183.39 269.655 1184.22 269.655ZM1196.32 273V269.676L1204.09 262.485C1204.75 261.846 1205.3 261.271 1205.75 260.759C1206.2 260.248 1206.55 259.747 1206.78 259.257C1207.02 258.76 1207.13 258.224 1207.13 257.648C1207.13 257.009 1206.99 256.459 1206.7 255.997C1206.4 255.528 1206.01 255.17 1205.5 254.921C1205 254.665 1204.43 254.538 1203.79 254.538C1203.12 254.538 1202.54 254.673 1202.04 254.942C1201.54 255.212 1201.16 255.599 1200.89 256.104C1200.62 256.608 1200.48 257.208 1200.48 257.904H1196.11C1196.11 256.477 1196.43 255.237 1197.08 254.186C1197.72 253.135 1198.63 252.322 1199.79 251.746C1200.96 251.171 1202.3 250.884 1203.82 250.884C1205.38 250.884 1206.74 251.161 1207.9 251.714C1209.06 252.261 1209.97 253.021 1210.62 253.994C1211.26 254.967 1211.59 256.082 1211.59 257.339C1211.59 258.163 1211.42 258.977 1211.1 259.779C1210.78 260.582 1210.2 261.473 1209.38 262.453C1208.56 263.426 1207.4 264.594 1205.9 265.958L1202.71 269.08V269.229H1211.87V273H1196.32ZM1223.28 273.298C1221.69 273.298 1220.27 273.025 1219.03 272.478C1217.79 271.924 1216.82 271.164 1216.1 270.198C1215.39 269.225 1215.02 268.103 1215 266.832H1219.65C1219.68 267.364 1219.85 267.833 1220.17 268.238C1220.5 268.636 1220.93 268.945 1221.47 269.165C1222.01 269.385 1222.62 269.495 1223.29 269.495C1223.99 269.495 1224.62 269.371 1225.16 269.122C1225.7 268.874 1226.12 268.529 1226.42 268.089C1226.73 267.648 1226.88 267.141 1226.88 266.565C1226.88 265.983 1226.72 265.468 1226.39 265.021C1226.07 264.566 1225.61 264.211 1225.01 263.955C1224.41 263.7 1223.7 263.572 1222.88 263.572H1220.84V260.184H1222.88C1223.57 260.184 1224.19 260.063 1224.72 259.822C1225.26 259.58 1225.68 259.246 1225.98 258.82C1226.27 258.387 1226.42 257.883 1226.42 257.308C1226.42 256.761 1226.29 256.281 1226.03 255.869C1225.77 255.45 1225.41 255.124 1224.94 254.889C1224.48 254.655 1223.94 254.538 1223.32 254.538C1222.7 254.538 1222.13 254.651 1221.61 254.879C1221.09 255.099 1220.67 255.415 1220.36 255.827C1220.05 256.239 1219.88 256.722 1219.86 257.276H1215.44C1215.46 256.018 1215.82 254.911 1216.52 253.952C1217.21 252.993 1218.15 252.244 1219.33 251.704C1220.51 251.157 1221.85 250.884 1223.34 250.884C1224.85 250.884 1226.17 251.157 1227.3 251.704C1228.43 252.251 1229.3 252.989 1229.93 253.92C1230.56 254.843 1230.87 255.88 1230.87 257.031C1230.87 258.252 1230.49 259.271 1229.73 260.088C1228.97 260.905 1227.97 261.423 1226.75 261.643V261.814C1228.36 262.02 1229.58 262.577 1230.42 263.487C1231.26 264.388 1231.68 265.518 1231.68 266.874C1231.68 268.117 1231.32 269.222 1230.6 270.188C1229.88 271.153 1228.89 271.913 1227.63 272.467C1226.36 273.021 1224.91 273.298 1223.28 273.298Z" fill="#FF5B22"/>
</svg>
