<svg width="1389" height="407" viewBox="0 0 1389 407" fill="none" xmlns="http://www.w3.org/2000/svg">
<path d="M34 120H79.1536L159.36 224.026H115.46L62.9292 152.364V298H79.877" stroke="#FF5B22" stroke-width="15" stroke-miterlimit="10"/>
<path d="M34 298H86.9886" stroke="#FF5B22" stroke-width="15" stroke-miterlimit="10"/>
<path d="M159.36 191.57L213.675 120H240" stroke="#FF5B22" stroke-width="15" stroke-miterlimit="10"/>
<path d="M214.807 145.429V298H190.893H240" stroke="#FF5B22" stroke-width="15" stroke-miterlimit="10"/>
<path d="M338.923 301.791C344.531 301.791 366.793 302.398 377.606 300.634C388.419 298.87 394.099 292.297 394.099 292.297C394.099 292.297 399.115 286.901 400.997 280.904C404.434 269.945 403.98 263.514 403.98 256.916C403.98 251.45 403.986 117.904 403.986 116" stroke="#FF5B22" stroke-width="16" stroke-miterlimit="10"/>
<path d="M277.396 150.4C277.396 202.35 277.469 244.754 277.469 259.317C277.469 266.341 277.889 271.413 280.604 277.906C283.112 283.903 285.62 288.1 293.145 294.697C298.76 299.619 307.566 303.691 315.09 301.293C322.614 298.894 323.868 291.099 323.868 285.702C323.241 253.92 322.614 223.338 322.614 192.156C322.614 155.577 324.518 137.225 319.479 129.193C317.598 126.195 316.624 124.712 310.701 122.597C306.98 121.269 298.788 121.997 248 121.998" stroke="#FF5B22" stroke-width="16" stroke-miterlimit="10"/>
<path d="M522.521 168.732C525.43 168.732 530.519 168.732 535.609 168.732C547.242 168.732 547.916 169.237 549.885 168.07C557.399 163.588 556.305 139.336 542.59 128.389C537.703 124.467 535.963 123.051 529.792 120.708C525.43 119.052 517.432 119.052 501.252 119.052C497.386 118.935 491.984 119.051 481.804 119.052C465.081 118.907 456.68 119.729 452.619 121.386C436.911 127.782 431.026 143.888 430.734 144.728C429.348 148.673 429.008 154.368 428.303 165.736C427.841 173.182 427.962 177.967 428.303 182.075C428.862 189.078 429.154 192.579 430.734 196.08C434.333 204.063 442.601 207.821 447.756 210.086C461.787 216.248 488.267 227.265 523.137 240.43" stroke="#FF5B22" stroke-width="16" stroke-miterlimit="10"/>
<path d="M464.528 249.165C460.166 249.165 453.212 249.165 450.714 249.165C446.351 249.165 443.632 249.169 440.534 249.169C436.322 249.169 435.352 250.63 433.991 252.171C432.536 255.172 433.09 255.172 433.09 261.775C433.09 266.578 433.09 266.578 433.09 271.98C433.09 276.182 431.811 283.583 437.452 288.998C444.601 295.838 457.083 298.994 469.444 298.994C471.563 298.994 474.707 298.994 495.793 298.994C510.543 298.994 518.771 299.2 525.604 297.193C534.236 294.672 539.918 290.189 541.426 288.998C545.061 286.128 547.741 283.755 550.878 277.593C553.942 271.547 556.308 262.797 555.967 247.578C555.432 222.882 553.261 222.109 550.878 218.164C547.619 212.795 539.972 209.76 528.338 204.957C511.615 198.955 515.284 199.962 496.346 192.952C485.088 188.377 479.623 186.139 464.354 178.935C453.448 173.79 451.994 172.932 445.45 169.931" stroke="#FF5B22" stroke-width="16" stroke-miterlimit="10"/>
<path d="M603.377 144.665V300H577H666" stroke="#FF5B22" stroke-width="16" stroke-miterlimit="10"/>
<path d="M577 119H641.126H666" stroke="#FF5B22" stroke-width="16" stroke-miterlimit="10"/>
<path d="M641.126 119V292.094" stroke="#FF5B22" stroke-width="16" stroke-miterlimit="10"/>
<path d="M684 119.38H738.991H761.446" stroke="#FF5B22" stroke-width="16" stroke-miterlimit="10"/>
<path d="M708.021 145.179V301.027H684H702.667H721.917H761" stroke="#FF5B22" stroke-width="16" stroke-miterlimit="10"/>
<path d="M738.991 119.38V296.656" stroke="#FF5B22" stroke-width="16" stroke-miterlimit="10"/>
<path d="M820.276 110L739.849 197.946" stroke="#FF5B22" stroke-width="16" stroke-miterlimit="10"/>
<path d="M779.526 194.429L831 307" stroke="#FF5B22" stroke-width="16" stroke-miterlimit="10"/>
<path d="M769.323 55.2209L777.473 68.248C780.564 73.1675 783.901 73.992 786.663 72.2331C789.699 70.3092 790.301 66.9013 787.265 62.0368L779.114 49.0096L781.795 47.3057L789.836 60.1404C794.075 66.9013 792.489 71.7933 788.031 74.5966C783.819 77.2625 779.032 76.6854 774.766 69.8695L766.643 56.8974L769.323 55.1934V55.2209Z" fill="#110CFF"/>
<path d="M793.965 54.9462C793.172 53.1872 792.516 51.7581 791.777 50.3839L794.348 49.2296L795.771 51.978H795.825C795.88 49.9717 797.029 47.5531 799.654 46.3713C801.842 45.3819 805.89 45.2445 808.516 51.0985L813.056 61.2673L810.157 62.559L805.781 52.72C804.55 49.9717 802.581 48.1028 799.846 49.3396C797.931 50.1915 797.111 52.3078 797.384 54.2591C797.439 54.6988 797.603 55.276 797.822 55.7981L802.389 66.0494L799.49 67.3412L793.938 54.9187L793.965 54.9462Z" fill="#110CFF"/>
<path d="M823.722 29.1943L830.15 50.8237C830.615 52.4178 831.189 54.2042 831.654 55.4135L828.919 56.238L827.852 53.1598H827.77C827.442 55.4684 825.856 57.5847 823.121 58.4092C819.073 59.6184 814.888 56.8701 813.275 51.4559C811.47 45.5195 813.849 40.8198 817.924 39.6105C820.468 38.841 822.601 39.6105 823.777 40.8473H823.832L820.659 30.1288L823.695 29.2218L823.722 29.1943ZM825.336 45.7393C825.227 45.3271 825.008 44.7774 824.789 44.4201C823.723 42.4963 821.562 41.287 819.292 41.9466C816.147 42.8811 815.162 46.3989 816.338 50.3565C817.405 53.9843 819.948 56.4853 823.23 55.4959C825.281 54.8913 826.704 52.885 826.54 50.2741C826.512 49.8069 826.403 49.3396 826.266 48.8175L825.336 45.7118V45.7393Z" fill="#110CFF"/>
<path d="M836.167 45.6301C836.987 50.1374 839.996 51.5665 843.114 51.0444C845.356 50.6596 846.642 50.0275 847.709 49.2854L848.639 51.594C847.627 52.3086 845.849 53.243 843.114 53.6828C837.808 54.5622 834.034 51.3742 833.131 45.8225C832.201 40.2709 834.553 35.3788 839.558 34.5268C845.165 33.5924 847.545 38.6219 848.092 42.0298C848.201 42.7169 848.228 43.2666 848.256 43.5964L836.167 45.6301ZM844.946 41.7C844.618 39.5563 843.223 36.3957 839.722 36.9729C836.55 37.4951 835.702 40.848 835.839 43.2116L844.974 41.6725L844.946 41.7Z" fill="#110CFF"/>
<path d="M852.221 39.1984C852.085 36.9997 851.893 35.1309 851.674 33.3994L854.437 33.207L854.792 36.8623H854.929C855.558 34.3064 857.336 32.5749 859.469 32.4375C859.825 32.4375 860.071 32.4375 860.372 32.4925L860.591 35.6805C860.262 35.6256 859.934 35.5981 859.496 35.6256C857.281 35.7905 855.804 37.6868 855.558 40.2703C855.531 40.7375 855.476 41.2871 855.531 41.8643L856.214 51.7858L853.097 52.0057L852.221 39.1984Z" fill="#110CFF"/>
<path d="M871.339 51.291C871.503 50.0268 871.749 48.1579 871.886 46.5089L873.746 24L876.864 24.2474L875.907 35.9278H875.989C877.274 33.949 879.407 32.7672 882.197 33.0145C886.491 33.3718 889.226 37.4669 888.734 43.1284C888.187 49.7794 884.002 52.7751 880.119 52.4453C877.602 52.2254 875.688 51.0436 874.594 48.4602H874.484L874.074 51.5109L871.339 51.291ZM875.223 44.0903C875.195 44.5026 875.223 44.9423 875.278 45.3271C875.688 47.7181 877.383 49.4771 879.681 49.6695C882.99 49.9443 885.206 47.2234 885.534 42.9635C885.835 39.2258 884.303 35.9003 880.939 35.6255C878.778 35.4606 876.645 36.8622 875.797 39.3907C875.688 39.7755 875.551 40.2152 875.496 40.7649L875.223 44.1178V44.0903Z" fill="#110CFF"/>
<path d="M893.547 40.7929C893.958 38.6217 894.259 36.7803 894.477 35.0488L897.212 35.571L896.638 39.1988H896.775C898.006 36.9177 900.194 35.7084 902.272 36.0932C902.628 36.1482 902.874 36.2581 903.147 36.368L902.546 39.5286C902.245 39.3912 901.917 39.2813 901.506 39.2263C899.318 38.8141 897.431 40.2982 896.529 42.7167C896.365 43.1564 896.2 43.6786 896.091 44.2558L894.259 54.0398L891.168 53.4627L893.547 40.8478V40.7929Z" fill="#110CFF"/>
<path d="M919.53 50.7965C917.588 57.42 912.474 59.0415 908.426 57.8597C903.913 56.513 901.452 51.9233 903.12 46.2617C904.87 40.2704 909.575 37.8243 914.197 39.1985C918.983 40.6277 921.144 45.3273 919.53 50.7965ZM906.211 47.0588C905.062 50.9889 906.293 54.5617 909.274 55.4412C912.173 56.2932 915.209 54.0121 916.385 49.972C917.287 46.9488 916.987 42.6614 913.404 41.5896C909.821 40.5177 907.223 43.6233 906.211 47.0313V47.0588Z" fill="#110CFF"/>
<path d="M924.891 53.8191C923.14 58.0515 924.891 60.8823 927.79 62.1465C929.868 63.0535 931.291 63.2184 932.604 63.1909L932.139 65.6369C930.908 65.6919 928.911 65.4995 926.368 64.3727C921.445 62.229 920.022 57.4743 922.238 52.3075C924.48 47.1406 929.075 44.3098 933.725 46.3436C938.949 48.6247 938.21 54.1489 936.843 57.3094C936.569 57.9416 936.296 58.4088 936.104 58.7111L924.891 53.8191ZM934.381 55.3032C935.284 53.3244 935.804 49.9164 932.549 48.4873C929.622 47.1956 927.079 49.5317 925.903 51.5929L934.381 55.3032Z" fill="#110CFF"/>
<path d="M942.45 56.5127C943.434 54.8637 944.2 53.4621 944.884 52.0879L947.291 53.517L945.896 56.2654H945.95C947.591 55.221 950.217 54.7538 952.679 56.2379C954.757 57.4746 957.191 60.7177 953.964 66.2418L948.33 75.8335L945.595 74.212L951.038 64.9501C952.569 62.3667 952.925 59.6733 950.354 58.1342C948.549 57.0624 946.361 57.612 944.938 58.9587C944.61 59.261 944.255 59.7008 943.954 60.223L938.265 69.8971L935.53 68.2756L942.422 56.5402L942.45 56.5127Z" fill="#110CFF"/>
<path d="M970.866 78.472L969.28 80.4233L962.388 74.7892L963.974 72.8379L970.866 78.472Z" fill="#110CFF"/>
<path d="M993.266 102.493C995.892 99.9917 999.064 96.996 1001.53 94.9073L1001.44 94.8248C998.6 96.1715 995.482 97.5182 991.981 98.8924L979.646 103.812L978.087 101.998L984.924 90.9497C986.948 87.6792 988.863 84.7659 990.75 82.2374L990.695 82.1825C988.206 84.2437 984.788 86.9371 981.697 89.3007L972.836 96.0616L970.894 93.7805L991.68 78.1699L994.278 81.2206L987.441 92.5712C985.663 95.4295 984.049 97.903 982.408 100.129L982.49 100.212C984.87 98.9748 987.605 97.7656 990.777 96.4738L1003.11 91.6093L1005.71 94.6599L987.003 112.717L985.006 110.38L993.266 102.493Z" fill="#110CFF"/>
<path d="M989.082 116.647L1004.62 106.368L1006.37 109.034L990.832 119.313L989.082 116.647ZM1010.91 106.451C1009.98 107.11 1008.75 106.973 1008.06 105.901C1007.46 104.966 1007.79 103.785 1008.75 103.153C1009.73 102.493 1010.96 102.685 1011.59 103.647C1012.25 104.637 1011.89 105.791 1010.91 106.451Z" fill="#110CFF"/>
<path d="M1024.55 123.655L1004.7 134.236C1003.25 135.005 1001.61 135.94 1000.51 136.627L999.174 134.098L1001.96 132.449V132.394C999.639 132.504 997.259 131.35 995.919 128.849C993.95 125.111 995.782 120.439 1000.79 117.801C1006.23 114.86 1011.29 116.262 1013.26 120.027C1014.52 122.39 1014.16 124.617 1013.2 126.018V126.073L1023.05 120.851L1024.53 123.655H1024.55ZM1008.72 128.492C1009.1 128.299 1009.59 127.997 1009.9 127.695C1011.56 126.266 1012.33 123.902 1011.21 121.786C1009.68 118.873 1006.04 118.598 1002.43 120.522C999.092 122.281 997.177 125.304 998.764 128.327C999.748 130.223 1001.99 131.24 1004.51 130.553C1004.97 130.443 1005.38 130.251 1005.87 130.003L1008.72 128.492Z" fill="#110CFF"/>
<path d="M1033.09 145.312L1012 153.117C1010.44 153.695 1008.69 154.382 1007.54 154.931L1006.56 152.238L1009.54 150.974V150.919C1007.24 150.726 1005.03 149.27 1004.04 146.576C1002.59 142.591 1005.03 138.221 1010.33 136.27C1016.13 134.099 1020.94 136.16 1022.42 140.173C1023.35 142.674 1022.7 144.845 1021.57 146.109V146.164L1032.02 142.316L1033.12 145.312H1033.09ZM1016.73 147.951C1017.12 147.813 1017.66 147.566 1018.02 147.318C1019.88 146.137 1020.94 143.883 1020.12 141.657C1019 138.579 1015.45 137.809 1011.59 139.238C1008.06 140.557 1005.74 143.251 1006.91 146.494C1007.65 148.5 1009.73 149.819 1012.3 149.462C1012.77 149.407 1013.2 149.27 1013.72 149.105L1016.76 147.978L1016.73 147.951Z" fill="#110CFF"/>
<path d="M1017.53 158.805C1013.1 159.905 1011.86 163.01 1012.58 166.116C1013.07 168.342 1013.81 169.579 1014.57 170.623L1012.33 171.695C1011.56 170.733 1010.52 169.002 1009.92 166.281C1008.72 161.032 1011.67 157.047 1017.14 155.782C1022.61 154.518 1027.59 156.579 1028.74 161.554C1030 167.133 1025.13 169.799 1021.79 170.568C1021.11 170.733 1020.59 170.761 1020.23 170.816L1017.5 158.833L1017.53 158.805ZM1021.96 167.353C1024.06 166.913 1027.13 165.319 1026.33 161.829C1025.62 158.696 1022.23 158.008 1019.91 158.283L1021.96 167.353Z" fill="#110CFF"/>
<path d="M1039.16 172.493L1039.6 175.654L1012.58 179.364L1012.14 176.203L1039.16 172.493Z" fill="#110CFF"/>
<path d="M1013.15 184.557L1029.12 183.376L1028.93 180.93L1031.5 180.737L1031.69 183.183L1032.57 183.128C1035.17 182.936 1037.6 183.293 1039.19 184.667C1040.5 185.767 1041.13 187.306 1041.24 188.79C1041.32 189.917 1041.13 190.906 1040.91 191.538L1038.28 191.291C1038.48 190.796 1038.61 190.137 1038.56 189.23C1038.37 186.536 1035.77 186.014 1032.95 186.234L1031.97 186.316L1032.27 190.549L1029.7 190.741L1029.4 186.509L1013.42 187.691L1013.2 184.557H1013.15Z" fill="#110CFF"/>
<path d="M1013.64 203.879L1015.99 203.659V203.549C1014.54 202.559 1013.29 200.636 1013.31 198.135C1013.37 194.589 1016.05 192.83 1018.73 192.858C1023.21 192.94 1025.62 196.733 1025.46 203.494H1025.84C1027.37 203.521 1030.13 203.164 1030.22 199.591C1030.22 197.97 1029.72 196.266 1028.9 195.001L1031.15 194.314C1032.13 195.771 1032.73 197.887 1032.71 200.086C1032.62 205.445 1028.71 206.682 1024.99 206.627L1018.05 206.517C1016.43 206.517 1014.85 206.517 1013.59 206.737L1013.64 203.851V203.879ZM1023.13 203.576C1023.27 200.113 1022.67 196.156 1019.06 196.101C1016.87 196.073 1015.8 197.42 1015.78 199.041C1015.75 201.323 1017.25 202.807 1018.81 203.329C1019.17 203.439 1019.55 203.521 1019.88 203.521L1023.11 203.576H1023.13Z" fill="#110CFF"/>
<path d="M1025.89 212.426C1028.08 212.674 1029.94 212.839 1031.67 212.949L1031.37 215.724L1027.73 215.422V215.559C1030.11 216.631 1031.45 218.72 1031.23 220.836C1031.2 221.194 1031.12 221.441 1031.01 221.716L1027.84 221.358C1027.95 221.056 1028.03 220.726 1028.08 220.287C1028.33 218.06 1026.72 216.274 1024.25 215.559C1023.82 215.422 1023.27 215.312 1022.69 215.23L1012.85 214.103L1013.2 210.97L1025.92 212.399L1025.89 212.426Z" fill="#110CFF"/>
<path d="M1034.32 231.499L1029.07 230.454L1028.19 234.934L1025.68 234.439L1026.58 229.96L1016.73 227.981C1014.46 227.514 1013.07 227.871 1012.74 229.602C1012.58 230.427 1012.58 231.032 1012.6 231.444L1010.09 231.087C1009.95 230.427 1009.95 229.438 1010.2 228.228C1010.5 226.772 1011.21 225.7 1012.25 225.15C1013.4 224.463 1015.09 224.463 1017.22 224.903L1027.18 226.909L1027.7 224.243L1030.22 224.738L1029.7 227.404L1034.07 228.283L1034.32 231.499Z" fill="#110CFF"/>
<path d="M1012.66 234.716C1011.75 235.43 1010.63 236.832 1010.2 238.371C1009.54 240.597 1010.41 241.971 1011.89 242.411C1013.45 242.878 1014.54 242.246 1016.08 240.24C1018.1 237.546 1020.29 236.639 1022.42 237.272C1025.29 238.123 1027.02 240.982 1025.98 244.61C1025.48 246.314 1024.53 247.66 1023.68 248.43L1021.55 246.973C1022.18 246.451 1023.13 245.407 1023.57 243.84C1024.09 242.026 1023.27 240.707 1021.96 240.322C1020.48 239.882 1019.52 240.707 1017.99 242.631C1015.97 245.214 1013.97 246.231 1011.32 245.462C1008.17 244.555 1006.64 241.614 1007.79 237.601C1008.34 235.76 1009.29 234.193 1010.39 233.231L1012.63 234.716H1012.66Z" fill="#110CFF"/>
<path d="M1027.24 265.935L1025.87 268.794L1015.42 263.737V263.792C1016.02 264.671 1016.46 265.743 1016.54 266.87C1016.65 267.969 1016.54 269.151 1015.99 270.223C1014.98 272.339 1011.97 275.06 1006.2 272.257L996.247 267.447L997.615 264.589L1007.24 269.233C1009.95 270.553 1012.68 270.69 1013.97 267.997C1014.87 266.128 1014.19 264.012 1012.77 262.692C1012.44 262.335 1012 262.088 1011.4 261.785L1001.31 256.893L1002.67 254.035L1027.24 265.908V265.935Z" fill="#110CFF"/>
<path d="M1009.29 281.876L997.97 279.183C996.712 278.853 995.263 278.441 994.169 278.084V278.139C994.907 279.018 995.892 280.09 996.794 281.189L1004.12 290.012L1002.32 292.842L993.704 281.657C989.547 276.297 987.632 273.219 987.112 270.306C986.702 268.217 987.058 266.596 987.359 265.826L990.176 266.678C989.984 267.503 989.875 268.657 990.066 269.921C990.203 271.048 990.75 272.67 991.817 274.209C992.035 274.511 992.2 274.758 992.364 274.868C992.528 274.978 992.801 275.061 993.239 275.171L1011.15 278.963L1009.29 281.876Z" fill="#110CFF"/>
<path d="M990.477 307.711C989.492 306.804 988.371 305.787 986.62 304.33L978.278 297.46C974.969 294.739 973.465 292.458 973.273 290.121C973.027 287.73 974.176 285.477 975.571 283.773C976.883 282.151 978.771 280.695 980.439 280.255L981.916 282.509C980.603 282.921 978.907 283.883 977.54 285.559C975.489 288.088 975.379 291.083 978.989 294.052L980.603 295.371L980.658 295.316C979.947 293.447 980.056 291.111 981.779 289.022C984.514 285.669 989.519 285.752 993.485 289.022C998.353 293.035 998.682 298.311 996.138 301.417C994.224 303.781 991.871 303.973 990.203 303.588L990.148 303.643L992.227 305.54L990.477 307.683V307.711ZM986.866 300.483C987.304 300.84 987.714 301.142 988.179 301.335C990.066 302.132 992.282 301.967 993.759 300.18C995.673 297.844 994.935 294.409 991.598 291.661C988.781 289.324 985.335 288.747 983.174 291.386C981.943 292.897 981.834 295.096 983.065 296.992C983.393 297.487 983.858 297.982 984.295 298.339L986.866 300.483Z" fill="#110CFF"/>
<path d="M974.942 322.91C974.066 321.865 973.109 320.738 971.55 319.062L964.166 311.147C961.239 308.014 960.036 305.568 960.173 303.231C960.255 300.84 961.677 298.752 963.263 297.24C964.795 295.811 966.846 294.602 968.542 294.382L969.718 296.8C968.35 297.02 966.572 297.762 964.986 299.246C962.634 301.473 962.114 304.441 965.342 307.849L966.764 309.36L966.819 309.305C966.354 307.381 966.764 305.073 968.733 303.204C971.878 300.236 976.829 300.978 980.357 304.743C984.678 309.36 984.295 314.61 981.396 317.358C979.181 319.447 976.829 319.337 975.215 318.732L975.16 318.787L976.965 320.931L974.942 322.827V322.91ZM972.316 315.297C972.699 315.709 973.082 316.066 973.492 316.286C975.242 317.33 977.485 317.44 979.153 315.846C981.369 313.758 981.068 310.295 978.114 307.134C975.625 304.468 972.289 303.424 969.8 305.787C968.378 307.134 967.995 309.305 968.952 311.339C969.225 311.889 969.608 312.411 969.991 312.823L972.289 315.269L972.316 315.297Z" fill="#110CFF"/>
<path d="M962.552 320.079C959.817 316.396 956.48 316.506 953.937 318.375C952.104 319.722 951.256 320.876 950.6 322.003L948.74 320.354C949.314 319.254 950.518 317.633 952.733 315.984C957.055 312.796 961.868 313.977 965.178 318.512C968.487 323.074 968.569 328.489 964.466 331.484C959.872 334.837 955.496 331.402 953.499 328.626C953.089 328.049 952.843 327.582 952.651 327.279L962.552 320.024V320.079ZM956.48 327.527C957.711 329.286 960.391 331.512 963.263 329.396C965.861 327.499 965.123 324.119 963.947 322.058L956.48 327.527Z" fill="#110CFF"/>
<path d="M958.586 345.473L955.879 347.122L941.766 323.651L944.473 322.002L958.586 345.473Z" fill="#110CFF"/>
<path d="M937.444 326.125L946.169 342.615L943.379 344.099L934.655 327.609L937.444 326.125ZM945.513 348.936C944.938 347.919 945.212 346.738 946.306 346.133C947.291 345.611 948.412 346.05 948.959 347.067C949.506 348.112 949.205 349.321 948.193 349.871C947.154 350.42 946.032 349.981 945.485 348.909L945.513 348.936Z" fill="#110CFF"/>
<path d="M923.906 352.866C923.441 351.602 922.949 350.173 922.074 348.084L917.916 338.08C916.275 334.122 916.002 331.401 916.932 329.258C917.834 327.032 919.886 325.602 921.937 324.751C923.851 323.953 926.204 323.541 927.872 323.926L928.118 326.619C926.751 326.345 924.836 326.4 922.839 327.252C919.858 328.516 918.354 331.099 920.159 335.442L920.952 337.365H921.007C921.226 335.359 922.429 333.353 924.918 332.308C928.911 330.632 933.26 333.078 935.256 337.833C937.691 343.659 935.503 348.469 931.81 350.008C929.021 351.19 926.833 350.255 925.547 349.128H925.492L926.45 351.822L923.906 352.894V352.866ZM924.098 344.786C924.316 345.336 924.535 345.775 924.863 346.133C926.149 347.727 928.2 348.634 930.333 347.727C933.123 346.545 934.08 343.192 932.412 339.207C931.017 335.826 928.255 333.683 925.082 335.002C923.277 335.744 922.156 337.64 922.347 339.894C922.402 340.499 922.593 341.131 922.812 341.653L924.098 344.758V344.786Z" fill="#110CFF"/>
<path d="M913.869 340.196C912.802 339.838 910.997 339.619 909.493 340.058C907.277 340.718 906.594 342.202 907.004 343.686C907.469 345.253 908.563 345.857 911.079 346.077C914.416 346.352 916.357 347.699 916.959 349.87C917.807 352.756 916.303 355.779 912.72 356.823C911.024 357.318 909.383 357.235 908.289 356.906L908.371 354.322C909.164 354.569 910.532 354.817 912.091 354.35C913.896 353.827 914.58 352.426 914.169 351.079C913.732 349.595 912.556 349.21 910.122 348.963C906.867 348.633 904.925 347.506 904.159 344.84C903.257 341.68 904.898 338.794 908.864 337.64C910.696 337.09 912.528 337.09 913.923 337.475L913.869 340.196Z" fill="#110CFF"/>
<path d="M900.221 364.877L899.182 359.627L894.724 360.507L894.231 357.978L898.689 357.099L896.72 347.232C896.255 344.951 895.407 343.797 893.684 344.154C892.864 344.319 892.289 344.539 891.934 344.731L891.305 342.258C891.852 341.873 892.782 341.488 893.958 341.241C895.407 340.939 896.665 341.213 897.595 341.956C898.662 342.753 899.318 344.319 899.756 346.49L901.753 356.467L904.405 355.945L904.925 358.473L902.272 358.995L903.147 363.393L900.276 364.877H900.221Z" fill="#110CFF"/>
<path d="M887.585 351.547C887.038 346.985 884.139 345.391 880.994 345.72C878.751 345.94 877.411 346.517 876.289 347.177L875.496 344.813C876.563 344.154 878.395 343.357 881.13 343.082C886.464 342.532 890.047 345.968 890.621 351.574C891.195 357.181 888.57 361.908 883.51 362.43C877.848 363.007 875.797 357.84 875.442 354.405C875.36 353.718 875.387 353.168 875.387 352.811L887.558 351.547H887.585ZM878.587 354.927C878.778 357.071 879.982 360.341 883.51 359.957C886.71 359.627 887.777 356.329 887.777 353.965L878.56 354.9L878.587 354.927Z" fill="#110CFF"/>
<path d="M863.408 344.099L862.806 360.177L865.24 360.26L865.131 362.843L862.696 362.761V363.64C862.56 366.251 861.931 368.642 860.399 370.071C859.168 371.253 857.555 371.693 856.078 371.638C854.956 371.61 853.999 371.28 853.397 371.006L853.917 368.395C854.382 368.642 855.011 368.862 855.914 368.889C858.621 368.999 859.387 366.471 859.496 363.613V362.623L855.312 362.458L855.394 359.875L859.606 360.04L860.208 343.962L863.326 344.072L863.408 344.099Z" fill="#110CFF"/>
<path d="M851.456 352.178C851.948 347.616 849.486 345.39 846.341 345.005C844.098 344.731 842.676 344.978 841.445 345.363L841.199 342.889C842.375 342.504 844.344 342.12 847.107 342.477C852.44 343.164 855.148 347.314 854.437 352.893C853.726 358.472 850.115 362.485 845.083 361.853C839.449 361.138 838.601 355.614 839.039 352.206C839.121 351.519 839.257 350.997 839.339 350.639L851.483 352.178H851.456ZM841.938 353.415C841.637 355.559 842.074 358.994 845.603 359.434C848.775 359.846 850.58 356.878 851.1 354.57L841.91 353.415H841.938Z" fill="#110CFF"/>
<path d="M836.741 344.703C835.975 343.851 834.526 342.779 832.967 342.422C830.724 341.9 829.384 342.861 829.028 344.346C828.673 345.912 829.329 346.984 831.408 348.441C834.198 350.337 835.21 352.453 834.69 354.652C834.006 357.593 831.244 359.461 827.579 358.609C825.856 358.197 824.488 357.318 823.668 356.493L825.008 354.267C825.582 354.872 826.649 355.751 828.235 356.136C830.068 356.576 831.326 355.669 831.654 354.322C832.01 352.81 831.134 351.903 829.138 350.474C826.485 348.578 825.336 346.654 825.965 343.933C826.704 340.745 829.548 339.041 833.569 339.976C835.428 340.415 837.042 341.295 838.054 342.339L836.686 344.675L836.741 344.703Z" fill="#110CFF"/>
<path d="M812.728 359.489L814.396 354.378L810.075 352.948L810.868 350.502L815.189 351.932L818.307 342.367C819.018 340.169 818.854 338.74 817.158 338.162C816.365 337.915 815.764 337.833 815.353 337.805L816.01 335.332C816.666 335.277 817.651 335.387 818.827 335.771C820.222 336.239 821.206 337.091 821.644 338.19C822.191 339.427 821.972 341.103 821.316 343.192L818.17 352.866L820.741 353.718L819.948 356.164L817.377 355.312L815.982 359.572L812.755 359.462L812.728 359.489Z" fill="#110CFF"/>
<path d="M800.83 354.927C801.213 353.827 802.307 353.278 803.483 353.745C804.523 354.157 804.906 355.311 804.495 356.383C804.058 357.483 802.936 358.032 801.87 357.62C800.776 357.18 800.42 356.026 800.858 354.927H800.83ZM812.974 334.039L806.054 351.381L803.1 350.199L810.02 332.857L812.974 334.039Z" fill="#110CFF"/>
<path d="M796.236 347.232L797.877 336.321C798.123 334.535 798.396 332.968 798.752 331.402L798.642 331.347C797.603 332.556 796.454 333.71 795.196 334.947L787.483 342.807L784.53 341.323L798.998 327.719L801.706 329.093L799.271 348.771L796.236 347.259V347.232Z" fill="#110CFF"/>
<path d="M782.971 318.127L781.904 320.243L781.986 320.298C783.6 319.611 785.87 319.529 787.976 320.903C790.93 322.854 790.984 326.07 789.535 328.323C787.073 332.116 782.588 332.116 776.981 328.406L776.762 328.736C775.914 330.027 774.738 332.583 777.719 334.535C779.087 335.414 780.783 335.909 782.287 335.854L781.685 338.135C779.935 338.19 777.829 337.585 775.996 336.376C771.538 333.463 772.578 329.478 774.602 326.344L778.403 320.491C779.278 319.144 780.072 317.77 780.591 316.588L782.998 318.154L782.971 318.127ZM778.184 326.372C781.029 328.323 784.694 329.945 786.663 326.894C787.866 325.053 787.292 323.431 785.925 322.524C784.037 321.288 781.986 321.782 780.701 322.827C780.427 323.046 780.154 323.349 779.962 323.624L778.184 326.344V326.372Z" fill="#110CFF"/>
<path d="M760.489 335.524L758 333.573L774.738 311.943L777.227 313.895L760.489 335.524Z" fill="#110CFF"/>
<path d="M852.603 183.4C851.076 183.394 849.762 183.018 848.661 182.272C847.566 181.526 846.723 180.446 846.131 179.032C845.545 177.617 845.255 175.915 845.261 173.927C845.261 171.944 845.554 170.254 846.14 168.858C846.731 167.461 847.575 166.398 848.67 165.67C849.771 164.937 851.082 164.57 852.603 164.57C854.124 164.57 855.432 164.937 856.527 165.67C857.627 166.404 858.474 167.47 859.066 168.866C859.658 170.257 859.951 171.944 859.945 173.927C859.945 175.921 859.649 177.626 859.057 179.04C858.471 180.455 857.63 181.535 856.536 182.281C855.441 183.027 854.13 183.4 852.603 183.4ZM852.603 180.212C853.644 180.212 854.476 179.689 855.097 178.641C855.719 177.593 856.027 176.022 856.021 173.927C856.021 172.548 855.879 171.4 855.594 170.482C855.316 169.565 854.92 168.875 854.405 168.414C853.896 167.952 853.295 167.721 852.603 167.721C851.567 167.721 850.738 168.239 850.117 169.275C849.495 170.311 849.182 171.861 849.176 173.927C849.176 175.324 849.315 176.49 849.593 177.425C849.877 178.354 850.277 179.052 850.792 179.52C851.306 179.982 851.91 180.212 852.603 180.212ZM869.264 164.57C870.199 164.57 871.099 164.726 871.963 165.04C872.833 165.354 873.608 165.854 874.289 166.54C874.976 167.227 875.517 168.138 875.914 169.275C876.316 170.405 876.52 171.793 876.526 173.439C876.526 174.983 876.352 176.362 876.002 177.576C875.659 178.783 875.165 179.81 874.52 180.656C873.875 181.503 873.096 182.148 872.185 182.592C871.273 183.03 870.255 183.249 869.131 183.249C867.918 183.249 866.846 183.015 865.917 182.547C864.988 182.074 864.239 181.432 863.671 180.621C863.109 179.804 862.768 178.887 862.65 177.869H866.441C866.589 178.531 866.9 179.046 867.373 179.413C867.847 179.774 868.433 179.955 869.131 179.955C870.315 179.955 871.214 179.44 871.83 178.41C872.445 177.374 872.756 175.957 872.762 174.158H872.638C872.365 174.69 871.998 175.149 871.537 175.534C871.075 175.913 870.545 176.205 869.948 176.413C869.356 176.62 868.726 176.723 868.057 176.723C866.985 176.723 866.03 176.472 865.189 175.969C864.349 175.466 863.686 174.773 863.201 173.891C862.715 173.009 862.473 172.003 862.473 170.873C862.467 169.654 862.748 168.568 863.316 167.615C863.884 166.662 864.677 165.916 865.695 165.377C866.719 164.833 867.909 164.564 869.264 164.57ZM869.291 167.588C868.693 167.588 868.16 167.73 867.693 168.014C867.231 168.298 866.864 168.68 866.592 169.159C866.326 169.639 866.195 170.174 866.201 170.766C866.201 171.364 866.331 171.903 866.592 172.382C866.858 172.856 867.219 173.234 867.675 173.518C868.137 173.797 868.663 173.936 869.255 173.936C869.699 173.936 870.11 173.853 870.489 173.687C870.868 173.521 871.197 173.294 871.475 173.004C871.759 172.708 871.981 172.367 872.141 171.983C872.3 171.598 872.38 171.19 872.38 170.757C872.374 170.183 872.238 169.657 871.972 169.177C871.706 168.698 871.339 168.313 870.871 168.023C870.403 167.733 869.877 167.588 869.291 167.588ZM880.703 183.231C880.117 183.231 879.614 183.024 879.194 182.609C878.78 182.189 878.573 181.686 878.573 181.1C878.573 180.52 878.78 180.023 879.194 179.609C879.614 179.194 880.117 178.987 880.703 178.987C881.271 178.987 881.769 179.194 882.195 179.609C882.621 180.023 882.834 180.52 882.834 181.1C882.834 181.491 882.733 181.849 882.532 182.174C882.337 182.494 882.079 182.751 881.76 182.947C881.44 183.136 881.088 183.231 880.703 183.231ZM896.446 183.266C895.191 183.266 894.108 183.041 893.197 182.592C892.285 182.142 891.584 181.532 891.093 180.763C890.607 179.987 890.365 179.123 890.365 178.17C890.365 177.46 890.507 176.83 890.791 176.279C891.075 175.729 891.471 175.223 891.98 174.761C892.489 174.294 893.081 173.829 893.756 173.368L897.28 171.05C897.736 170.76 898.07 170.456 898.284 170.136C898.497 169.81 898.603 169.458 898.603 169.08C898.603 168.719 898.458 168.384 898.168 168.076C897.878 167.769 897.467 167.618 896.934 167.624C896.579 167.624 896.271 167.703 896.011 167.863C895.75 168.017 895.546 168.221 895.398 168.476C895.256 168.724 895.185 169.003 895.185 169.31C895.185 169.689 895.292 170.074 895.505 170.464C895.718 170.855 896.002 171.269 896.357 171.707C896.712 172.139 897.1 172.607 897.52 173.11L906.14 183H902.199L895.008 174.992C894.534 174.454 894.061 173.891 893.587 173.305C893.12 172.714 892.729 172.086 892.415 171.423C892.102 170.754 891.945 170.029 891.945 169.248C891.945 168.366 892.149 167.573 892.557 166.869C892.972 166.165 893.552 165.608 894.297 165.2C895.043 164.786 895.913 164.578 896.907 164.578C897.878 164.578 898.716 164.777 899.42 165.173C900.13 165.564 900.675 166.085 901.053 166.736C901.438 167.381 901.631 168.091 901.631 168.866C901.631 169.725 901.417 170.503 900.991 171.201C900.571 171.894 899.979 172.515 899.216 173.066L895.505 175.738C895.002 176.105 894.629 176.481 894.386 176.865C894.149 177.244 894.031 177.608 894.031 177.957C894.031 178.389 894.138 178.777 894.351 179.12C894.564 179.464 894.866 179.736 895.256 179.937C895.647 180.132 896.106 180.23 896.632 180.23C897.271 180.23 897.902 180.085 898.523 179.795C899.151 179.499 899.719 179.082 900.228 178.543C900.743 177.999 901.154 177.354 901.462 176.608C901.77 175.862 901.923 175.037 901.923 174.131H905.057C905.057 175.244 904.936 176.247 904.693 177.141C904.451 178.028 904.113 178.804 903.681 179.467C903.249 180.124 902.755 180.662 902.199 181.082C902.021 181.195 901.849 181.301 901.684 181.402C901.518 181.503 901.346 181.609 901.169 181.722C900.494 182.266 899.74 182.66 898.905 182.902C898.076 183.145 897.257 183.266 896.446 183.266ZM921.377 164.818V183H917.533V168.467H917.426L913.263 171.077V167.668L917.764 164.818H921.377ZM932.827 183.4C931.3 183.394 929.986 183.018 928.885 182.272C927.791 181.526 926.947 180.446 926.355 179.032C925.769 177.617 925.479 175.915 925.485 173.927C925.485 171.944 925.778 170.254 926.364 168.858C926.956 167.461 927.799 166.398 928.894 165.67C929.995 164.937 931.306 164.57 932.827 164.57C934.348 164.57 935.656 164.937 936.751 165.67C937.852 166.404 938.698 167.47 939.29 168.866C939.882 170.257 940.175 171.944 940.169 173.927C940.169 175.921 939.873 177.626 939.281 179.04C938.695 180.455 937.855 181.535 936.76 182.281C935.665 183.027 934.354 183.4 932.827 183.4ZM932.827 180.212C933.869 180.212 934.7 179.689 935.322 178.641C935.943 177.593 936.251 176.022 936.245 173.927C936.245 172.548 936.103 171.4 935.819 170.482C935.541 169.565 935.144 168.875 934.629 168.414C934.12 167.952 933.52 167.721 932.827 167.721C931.791 167.721 930.963 168.239 930.341 169.275C929.72 170.311 929.406 171.861 929.4 173.927C929.4 175.324 929.539 176.49 929.818 177.425C930.102 178.354 930.501 179.052 931.016 179.52C931.531 179.982 932.135 180.212 932.827 180.212ZM944.424 183.231C943.838 183.231 943.335 183.024 942.915 182.609C942.5 182.189 942.293 181.686 942.293 181.1C942.293 180.52 942.5 180.023 942.915 179.609C943.335 179.194 943.838 178.987 944.424 178.987C944.992 178.987 945.489 179.194 945.915 179.609C946.342 180.023 946.555 180.52 946.555 181.1C946.555 181.491 946.454 181.849 946.253 182.174C946.057 182.494 945.8 182.751 945.48 182.947C945.161 183.136 944.809 183.231 944.424 183.231ZM845.509 199.364H849.291V213.675C849.291 214.728 849.084 215.58 848.67 216.232C848.255 216.883 847.661 217.359 846.885 217.661C846.116 217.963 845.196 218.114 844.124 218.114C843.994 218.114 843.87 218.111 843.751 218.105C843.627 218.105 843.497 218.102 843.361 218.096V215.14C843.461 215.145 843.55 215.148 843.627 215.148C843.698 215.154 843.775 215.157 843.858 215.157C844.468 215.157 844.894 215.027 845.136 214.767C845.385 214.512 845.509 214.127 845.509 213.613V199.364ZM847.391 197.606C846.835 197.606 846.356 197.419 845.953 197.047C845.551 196.668 845.349 196.215 845.349 195.688C845.349 195.167 845.551 194.721 845.953 194.348C846.356 193.969 846.835 193.779 847.391 193.779C847.96 193.779 848.442 193.969 848.838 194.348C849.241 194.721 849.442 195.167 849.442 195.688C849.442 196.215 849.241 196.668 848.838 197.047C848.442 197.419 847.96 197.606 847.391 197.606ZM861.065 207.194V199.364H864.847V213H861.216V210.523H861.074C860.767 211.322 860.255 211.964 859.538 212.45C858.828 212.935 857.961 213.178 856.937 213.178C856.026 213.178 855.224 212.97 854.531 212.556C853.839 212.142 853.297 211.553 852.907 210.789C852.522 210.026 852.327 209.112 852.321 208.046V199.364H856.103V207.371C856.109 208.176 856.325 208.813 856.751 209.28C857.177 209.748 857.748 209.982 858.464 209.982C858.92 209.982 859.346 209.878 859.743 209.671C860.139 209.458 860.459 209.144 860.701 208.73C860.95 208.315 861.071 207.804 861.065 207.194ZM871.654 205.116V213H867.873V199.364H871.477V201.77H871.637C871.939 200.976 872.445 200.349 873.155 199.887C873.865 199.42 874.726 199.186 875.738 199.186C876.685 199.186 877.511 199.393 878.215 199.808C878.92 200.222 879.467 200.814 879.858 201.583C880.248 202.347 880.444 203.258 880.444 204.317V213H876.662V204.992C876.667 204.158 876.454 203.507 876.022 203.039C875.59 202.566 874.996 202.329 874.238 202.329C873.729 202.329 873.279 202.438 872.888 202.657C872.504 202.876 872.202 203.196 871.983 203.616C871.77 204.03 871.66 204.531 871.654 205.116ZM883.424 213V199.364H887.206V213H883.424ZM885.324 197.606C884.762 197.606 884.28 197.419 883.877 197.047C883.48 196.668 883.282 196.215 883.282 195.688C883.282 195.167 883.48 194.721 883.877 194.348C884.28 193.969 884.762 193.779 885.324 193.779C885.886 193.779 886.366 193.969 886.762 194.348C887.165 194.721 887.366 195.167 887.366 195.688C887.366 196.215 887.165 196.668 886.762 197.047C886.366 197.419 885.886 197.606 885.324 197.606ZM845.474 243V240.23L851.946 234.238C852.496 233.705 852.958 233.225 853.331 232.799C853.709 232.373 853.996 231.956 854.192 231.548C854.387 231.133 854.485 230.686 854.485 230.207C854.485 229.674 854.363 229.216 854.121 228.831C853.878 228.44 853.547 228.141 853.126 227.934C852.706 227.721 852.23 227.615 851.697 227.615C851.141 227.615 850.655 227.727 850.241 227.952C849.827 228.177 849.507 228.5 849.282 228.92C849.057 229.34 848.945 229.84 848.945 230.42H845.296C845.296 229.23 845.565 228.198 846.104 227.322C846.643 226.446 847.397 225.768 848.368 225.289C849.339 224.809 850.457 224.57 851.724 224.57C853.026 224.57 854.159 224.8 855.124 225.262C856.095 225.718 856.849 226.351 857.388 227.162C857.926 227.973 858.196 228.902 858.196 229.95C858.196 230.636 858.06 231.314 857.787 231.983C857.521 232.651 857.045 233.394 856.358 234.211C855.671 235.022 854.704 235.995 853.455 237.132L850.8 239.733V239.857H858.435V243H845.474ZM868.35 243.4C866.823 243.394 865.509 243.018 864.408 242.272C863.313 241.526 862.47 240.446 861.878 239.032C861.292 237.617 861.002 235.915 861.008 233.927C861.008 231.944 861.301 230.254 861.887 228.858C862.478 227.461 863.322 226.398 864.417 225.67C865.518 224.937 866.829 224.57 868.35 224.57C869.871 224.57 871.179 224.937 872.274 225.67C873.375 226.404 874.221 227.47 874.813 228.866C875.405 230.257 875.698 231.944 875.692 233.927C875.692 235.921 875.396 237.626 874.804 239.04C874.218 240.455 873.378 241.535 872.283 242.281C871.188 243.027 869.877 243.4 868.35 243.4ZM868.35 240.212C869.391 240.212 870.223 239.689 870.844 238.641C871.466 237.593 871.774 236.022 871.768 233.927C871.768 232.548 871.626 231.4 871.342 230.482C871.063 229.565 870.667 228.875 870.152 228.414C869.643 227.952 869.042 227.721 868.35 227.721C867.314 227.721 866.485 228.239 865.864 229.275C865.242 230.311 864.929 231.861 864.923 233.927C864.923 235.324 865.062 236.49 865.34 237.425C865.624 238.354 866.024 239.052 866.539 239.52C867.054 239.982 867.657 240.212 868.35 240.212ZM878.433 243V240.23L884.905 234.238C885.455 233.705 885.917 233.225 886.29 232.799C886.668 232.373 886.955 231.956 887.151 231.548C887.346 231.133 887.444 230.686 887.444 230.207C887.444 229.674 887.322 229.216 887.08 228.831C886.837 228.44 886.506 228.141 886.085 227.934C885.665 227.721 885.189 227.615 884.656 227.615C884.1 227.615 883.614 227.727 883.2 227.952C882.786 228.177 882.466 228.5 882.241 228.92C882.016 229.34 881.904 229.84 881.904 230.42H878.255C878.255 229.23 878.524 228.198 879.063 227.322C879.602 226.446 880.356 225.768 881.327 225.289C882.298 224.809 883.416 224.57 884.683 224.57C885.985 224.57 887.118 224.8 888.083 225.262C889.054 225.718 889.808 226.351 890.347 227.162C890.885 227.973 891.155 228.902 891.155 229.95C891.155 230.636 891.019 231.314 890.746 231.983C890.48 232.651 890.003 233.394 889.317 234.211C888.63 235.022 887.663 235.995 886.414 237.132L883.759 239.733V239.857H891.394V243H878.433ZM900.9 243.249C899.575 243.249 898.394 243.021 897.358 242.565C896.328 242.103 895.514 241.47 894.917 240.665C894.325 239.854 894.02 238.919 894.002 237.86H897.873C897.897 238.304 898.042 238.694 898.308 239.032C898.58 239.363 898.941 239.621 899.391 239.804C899.841 239.987 900.347 240.079 900.909 240.079C901.495 240.079 902.013 239.976 902.463 239.768C902.913 239.561 903.265 239.274 903.519 238.907C903.774 238.54 903.901 238.117 903.901 237.638C903.901 237.152 903.765 236.723 903.493 236.35C903.226 235.972 902.842 235.676 902.339 235.463C901.841 235.25 901.249 235.143 900.563 235.143H898.867V232.32H900.563C901.143 232.32 901.655 232.219 902.099 232.018C902.549 231.817 902.898 231.539 903.146 231.184C903.395 230.823 903.519 230.402 903.519 229.923C903.519 229.467 903.41 229.068 903.191 228.724C902.978 228.375 902.676 228.103 902.285 227.908C901.901 227.712 901.451 227.615 900.936 227.615C900.415 227.615 899.939 227.709 899.506 227.899C899.074 228.082 898.728 228.346 898.468 228.689C898.207 229.032 898.068 229.435 898.051 229.896H894.366C894.384 228.849 894.683 227.925 895.263 227.126C895.843 226.327 896.624 225.703 897.607 225.253C898.595 224.797 899.711 224.57 900.954 224.57C902.208 224.57 903.306 224.797 904.247 225.253C905.188 225.709 905.919 226.324 906.44 227.1C906.967 227.869 907.227 228.733 907.221 229.692C907.227 230.71 906.911 231.559 906.271 232.24C905.638 232.921 904.812 233.353 903.794 233.536V233.678C905.132 233.85 906.15 234.315 906.848 235.072C907.553 235.824 907.902 236.765 907.896 237.895C907.902 238.931 907.603 239.851 906.999 240.656C906.402 241.461 905.576 242.094 904.522 242.556C903.469 243.018 902.262 243.249 900.9 243.249Z" fill="#FF5B22"/>
</svg>
