<?xml version="1.0" standalone="no"?>
<!DOCTYPE svg PUBLIC "-//W3C//DTD SVG 20010904//EN"
 "http://www.w3.org/TR/2001/REC-SVG-20010904/DTD/svg10.dtd">
<svg version="1.0" xmlns="http://www.w3.org/2000/svg"
 width="180.000000pt" height="180.000000pt" viewBox="0 0 180.000000 180.000000"
 preserveAspectRatio="xMidYMid meet">

<g transform="translate(0.000000,180.000000) scale(0.100000,-0.100000)"
fill="#000000" stroke="none">
<path d="M230 901 l0 -241 30 0 30 0 2 188 3 187 75 -188 c70 -176 77 -187 99
-185 22 3 33 23 97 181 39 98 75 181 78 184 3 4 6 -78 6 -180 l0 -187 30 0 30
0 0 240 0 240 -42 0 -43 0 -75 -190 c-41 -105 -77 -190 -81 -190 -3 0 -39 84
-80 188 l-75 187 -42 3 -42 3 0 -240z"/>
<path d="M812 948 c3 -218 8 -232 81 -270 52 -26 153 -22 194 8 65 49 68 58
71 265 l4 189 -30 0 -30 0 -4 -177 c-4 -191 -11 -222 -55 -242 -31 -14 -98
-14 -125 0 -39 21 -48 67 -48 249 l0 170 -31 0 -31 0 4 -192z"/>
<path d="M1260 899 l0 -241 113 3 c127 5 174 23 197 79 21 50 7 120 -28 150
l-30 25 29 33 c52 58 35 137 -36 172 -33 16 -62 20 -143 20 l-102 0 0 -241z
m225 166 c14 -13 25 -36 25 -50 0 -14 -11 -37 -25 -50 -21 -22 -33 -25 -95
-25 l-70 0 0 75 0 75 70 0 c62 0 74 -3 95 -25z m-6 -190 c48 -24 56 -86 17
-132 -21 -25 -31 -28 -100 -31 l-76 -4 0 91 0 91 65 0 c38 0 78 -6 94 -15z"/>
</g>
</svg>
