<svg width="70" height="70" viewBox="0 0 70 70" fill="none" xmlns="http://www.w3.org/2000/svg">
<path d="M26.25 64.1666H43.75C58.3333 64.1666 64.1667 58.3333 64.1667 43.75V26.25C64.1667 11.6666 58.3333 5.83331 43.75 5.83331H26.25C11.6667 5.83331 5.83334 11.6666 5.83334 26.25V43.75C5.83334 58.3333 11.6667 64.1666 26.25 64.1666Z" stroke="#110CFF" stroke-width="1.5" stroke-linecap="round" stroke-linejoin="round"/>
<path d="M35 45.2083C36.3406 45.2083 37.668 44.9442 38.9065 44.4312C40.1451 43.9182 41.2704 43.1663 42.2184 42.2183C43.1663 41.2704 43.9182 40.145 44.4313 38.9065C44.9443 37.668 45.2083 36.3405 45.2083 35C45.2083 33.6594 44.9443 32.3319 44.4313 31.0934C43.9182 29.8549 43.1663 28.7295 42.2184 27.7816C41.2704 26.8336 40.1451 26.0817 38.9065 25.5687C37.668 25.0557 36.3406 24.7916 35 24.7916C32.2926 24.7916 29.696 25.8671 27.7816 27.7816C25.8672 29.696 24.7917 32.2925 24.7917 35C24.7917 37.7074 25.8672 40.3039 27.7816 42.2183C29.696 44.1328 32.2926 45.2083 35 45.2083Z" stroke="#110CFF" stroke-width="1.5" stroke-linecap="round" stroke-linejoin="round"/>
<path d="M51.4383 20.4166H51.4733" stroke="#110CFF" stroke-width="2" stroke-linecap="round" stroke-linejoin="round"/>
</svg>
