<svg width="469" height="321" viewBox="0 0 469 321" fill="none" xmlns="http://www.w3.org/2000/svg">
<path d="M1 10H40.3049H56.3549" stroke="#FF5B22" stroke-width="10" stroke-miterlimit="10"/>
<path d="M18.1691 38.3496V145.879H1H14.342H28.101H56.0359" stroke="#FF5B22" stroke-width="10" stroke-miterlimit="10"/>
<path d="M40.4175 10L40.3047 142.862" stroke="#FF5B22" stroke-width="10" stroke-miterlimit="10"/>
<path d="M98.4037 14.0781L40.9179 74.7576" stroke="#FF5B22" stroke-width="10" stroke-miterlimit="10"/>
<path d="M69.2777 72.3301L106.069 150" stroke="#FF5B22" stroke-width="10" stroke-miterlimit="10"/>
<path d="M110.069 311H70.7637H54.7137" stroke="#110CFF" stroke-width="10" stroke-miterlimit="10"/>
<path d="M92.8995 282.65L92.8995 175.121H110.069H96.7266H82.9676H55.0327" stroke="#110CFF" stroke-width="10" stroke-miterlimit="10"/>
<path d="M70.6511 311L70.7639 178.138" stroke="#110CFF" stroke-width="10" stroke-miterlimit="10"/>
<path d="M12.665 306.922L70.1507 246.242" stroke="#110CFF" stroke-width="10" stroke-miterlimit="10"/>
<path d="M41.7909 248.67L5.00002 171" stroke="#110CFF" stroke-width="10" stroke-miterlimit="10"/>
<path d="M153.822 28.334L153.472 141.091" stroke="#FF5B22" stroke-width="10" stroke-miterlimit="10"/>
<path d="M169.732 5.01591H183.365C183.365 5.01591 190.825 5.1233 196.999 6.80571C198.479 7.21736 203.017 8.48812 207.166 11.5129C210.379 13.8575 213.768 17.5445 216.475 24.7037C219.884 33.7063 218.598 38.3956 218.423 64.0792C218.384 70.0392 218.423 76.0171 218.423 81.9771V101.665C218.345 112.314 218.267 119.921 214.528 126.722C210.535 133.971 204.976 138.389 202.035 140C193.913 144.457 190.702 145 181.221 145C170.436 145 150.357 145 145.619 145C139.047 145 131.379 138 131.379 138C131.379 138 125.354 133.5 124.258 123.5C123.163 113.5 123.163 108.5 123.163 101.5C123.163 93.5 122.949 95.7407 123.163 81.9771C123.319 72.1512 123.221 63.5796 123.163 60C123.065 53.0019 122.851 45.5084 123.163 34C123.338 27.5209 123.569 23.2631 126.997 17.5C129.236 13.7414 131.85 11.5906 132.474 11C134.402 9.2102 136.5 8.32703 140.142 6.80571C141.155 6.39405 145.616 5.19489 149.453 5.01591C150.174 4.98011 149.34 5.01591 152.203 5.01591C154.696 5.01591 156.722 5.01591 158.046 5.01591" stroke="#FF5B22" stroke-width="10" stroke-miterlimit="10"/>
<path d="M187.983 290.666L188.333 177.909" stroke="#110CFF" stroke-width="10" stroke-miterlimit="10"/>
<path d="M172.073 313.984H158.44C158.44 313.984 150.98 313.877 144.806 312.194C143.326 311.783 138.788 310.512 134.64 307.487C131.426 305.142 128.037 301.456 125.33 294.296C121.921 285.294 123.207 280.604 123.382 254.921C123.421 248.961 123.382 242.983 123.382 237.023V217.335C123.46 206.686 123.538 199.079 127.277 192.278C131.27 185.029 136.829 180.611 139.77 179C147.892 174.543 151.103 174 160.584 174C171.369 174 191.448 174 196.186 174C202.758 174 210.427 181 210.427 181C210.427 181 216.451 185.5 217.547 195.5C218.643 205.5 218.642 210.5 218.642 217.5C218.642 225.5 218.857 223.259 218.642 237.023C218.487 246.849 218.584 255.42 218.643 259C218.74 265.998 218.954 273.492 218.642 285C218.467 291.479 218.236 295.737 214.808 301.5C212.569 305.259 209.955 307.409 209.331 308C207.403 309.79 205.305 310.673 201.663 312.194C200.65 312.606 196.189 313.805 192.352 313.984C191.631 314.02 192.465 313.984 189.602 313.984C187.109 313.984 185.084 313.984 183.759 313.984" stroke="#110CFF" stroke-width="10" stroke-miterlimit="10"/>
<path d="M286.06 66.5545C288.835 67.5308 296.444 69.7447 305.2 66.5545C319.045 61.4991 323.814 47.2742 324.341 45.6355C325.106 43.2299 328.998 30.9748 322.746 19.4868C316.844 8.62635 306.062 6.11607 303.605 5.5408C299.985 4.70404 295.869 4.98296 287.655 5.5408C281.036 5.99404 275.549 6.70878 271.705 7.28405" stroke="#FF5B22" stroke-width="10" stroke-miterlimit="10"/>
<path d="M247.905 23.2002V145H231H258.3H285.6" stroke="#FF5B22" stroke-width="10" stroke-miterlimit="10"/>
<path d="M231 5H270.2V140.8" stroke="#FF5B22" stroke-width="10" stroke-miterlimit="10"/>
<path d="M343 153L304 71" stroke="#FF5B22" stroke-width="10" stroke-miterlimit="10"/>
<path d="M292.94 253.445C290.165 252.469 282.556 250.255 273.8 253.445C259.955 258.501 255.186 272.726 254.659 274.364C253.894 276.77 250.002 289.025 256.254 300.513C262.156 311.374 272.938 313.884 275.395 314.459C279.015 315.296 283.131 315.017 291.345 314.459C297.964 314.006 303.451 313.291 307.295 312.716" stroke="#110CFF" stroke-width="10" stroke-miterlimit="10"/>
<path d="M331.095 296.8V175H348H320.7H293.4" stroke="#110CFF" stroke-width="10" stroke-miterlimit="10"/>
<path d="M348 315H308.8V179.2" stroke="#110CFF" stroke-width="10" stroke-miterlimit="10"/>
<path d="M236 167L275 249" stroke="#110CFF" stroke-width="10" stroke-miterlimit="10"/>
<path d="M353 5H463.133V23.7635" stroke="#FF5B22" stroke-width="10" stroke-miterlimit="10"/>
<path d="M398.3 23.7637V145H379.202H442.709" stroke="#FF5B22" stroke-width="10" stroke-miterlimit="10"/>
<path d="M423.666 10.5537V142.606" stroke="#FF5B22" stroke-width="10" stroke-miterlimit="10"/>
<path d="M466.133 316H356V297.237" stroke="#110CFF" stroke-width="10" stroke-miterlimit="10"/>
<path d="M420.834 297.236V176H439.931H376.424" stroke="#110CFF" stroke-width="10" stroke-miterlimit="10"/>
<path d="M395.467 310.446V178.394" stroke="#110CFF" stroke-width="10" stroke-miterlimit="10"/>
</svg>
