<svg width="204" height="102" viewBox="0 0 204 102" fill="none" xmlns="http://www.w3.org/2000/svg">
<path d="M4 99.3196C4.55519 88.7815 7.55828 64.299 27.5536 41.4343C33.686 34.4213 59.4857 4.91465 101.579 4.32837C133.579 3.8831 155.837 20.4175 162.146 25.1077C182.377 40.143 190.124 58.2804 193.136 65.6051C198.738 79.223 199.916 91.2972 200 99.3196" stroke="white" stroke-width="7" stroke-miterlimit="10"/>
<path d="M24.6172 57.9543H32.7896L44.9056 93.5722L56.9292 57.9543H65.0513V100.083H59.6058V75.2221C59.6058 74.3579 59.6226 72.9398 59.6645 70.9513C59.7065 68.9627 59.7233 66.8315 59.7233 64.5577L47.6996 100.092H42.0444L29.9032 64.5577V65.8498C29.9032 66.8819 29.9284 68.4593 29.9871 70.5653C30.0459 72.6714 30.0711 74.232 30.0711 75.2221V100.083H24.6256V57.9543H24.6172Z" fill="white"/>
<path d="M96.1716 57.9543V83.9986C96.1716 87.0612 96.7506 89.6035 97.9084 91.6256C99.6201 94.6882 102.515 96.2153 106.584 96.2153C111.459 96.2153 114.773 94.5623 116.527 91.2564C117.467 89.4609 117.945 87.0444 117.945 83.9986V57.9543H123.709V81.6157C123.709 86.8011 123.013 90.7866 121.612 93.5722C119.044 98.6569 114.186 101.199 107.054 101.199C99.9222 101.199 95.0724 98.6569 92.5217 93.5722C91.1205 90.7782 90.4241 86.7927 90.4241 81.6157V57.9543H96.1884H96.1716Z" fill="white"/>
<path d="M148.594 57.9543H166.81C171.777 57.9543 175.31 59.4227 177.407 62.3678C178.641 64.1046 179.253 66.1183 179.253 68.3922C179.253 71.052 178.498 73.2335 176.988 74.9284C176.208 75.8262 175.075 76.6485 173.606 77.3952C175.763 78.2175 177.382 79.1405 178.456 80.1809C180.352 82.0184 181.292 84.5524 181.292 87.7827C181.292 90.5013 180.436 92.9513 178.725 95.1497C176.166 98.4388 172.096 100.083 166.516 100.083H148.594V57.9543ZM164.679 75.7675C167.112 75.7675 169.008 75.4319 170.359 74.7606C172.482 73.7118 173.548 71.8155 173.548 69.0802C173.548 66.3449 172.415 64.4738 170.158 63.5173C168.883 62.9803 166.986 62.7118 164.478 62.7118H154.191V75.7591H164.679V75.7675ZM166.609 95.2084C170.141 95.2084 172.658 94.1931 174.169 92.171C175.117 90.8873 175.587 89.3434 175.587 87.5226C175.587 84.4601 174.202 82.3792 171.45 81.2717C169.982 80.6759 168.044 80.3823 165.627 80.3823H154.191V95.2084H166.609Z" fill="white"/>
</svg>
