<svg width="204" height="101" viewBox="0 0 204 101" fill="none" xmlns="http://www.w3.org/2000/svg">
<path d="M4 99C4.55519 88.4619 7.55828 63.9794 27.5536 41.1148C33.686 34.1017 59.4857 4.5951 101.579 4.00882C133.579 3.56355 155.837 20.098 162.146 24.7881C182.377 39.8235 190.124 57.9608 193.136 65.2856C198.738 78.9034 199.916 90.9777 200 99" stroke="#0E0E0E" stroke-width="7" stroke-miterlimit="10"/>
<path d="M24.6172 57.6348H32.7896L44.9056 93.2527L56.9292 57.6348H65.0513V99.7638H59.6058V74.9025C59.6058 74.0383 59.6226 72.6203 59.6645 70.6317C59.7065 68.6432 59.7233 66.512 59.7233 64.2381L47.6996 99.7721H42.0444L29.9032 64.2381V65.5303C29.9032 66.5623 29.9284 68.1397 29.9871 70.2458C30.0459 72.3518 30.0711 73.9124 30.0711 74.9025V99.7638H24.6256V57.6348H24.6172Z" fill="#0E0E0E"/>
<path d="M96.1716 57.6348V83.6791C96.1716 86.7416 96.7506 89.2839 97.9084 91.3061C99.6201 94.3686 102.515 95.8957 106.584 95.8957C111.459 95.8957 114.773 94.2428 116.527 90.9369C117.467 89.1413 117.945 86.7248 117.945 83.6791V57.6348H123.709V81.2961C123.709 86.4815 123.013 90.467 121.612 93.2527C119.044 98.3374 114.186 100.88 107.054 100.88C99.9222 100.88 95.0724 98.3374 92.5217 93.2527C91.1205 90.4586 90.4241 86.4731 90.4241 81.2961V57.6348H96.1884H96.1716Z" fill="#0E0E0E"/>
<path d="M148.594 57.6348H166.81C171.777 57.6348 175.31 59.1031 177.407 62.0482C178.641 63.785 179.253 65.7988 179.253 68.0726C179.253 70.7324 178.498 72.914 176.988 74.6089C176.208 75.5067 175.075 76.3289 173.606 77.0757C175.763 77.898 177.382 78.8209 178.456 79.8614C180.352 81.6989 181.292 84.2328 181.292 87.4632C181.292 90.1817 180.436 92.6318 178.725 94.8301C176.166 98.1192 172.096 99.7638 166.516 99.7638H148.594V57.6348ZM164.679 75.4479C167.112 75.4479 169.008 75.1123 170.359 74.4411C172.482 73.3922 173.548 71.496 173.548 68.7606C173.548 66.0253 172.415 64.1542 170.158 63.1977C168.883 62.6607 166.986 62.3922 164.478 62.3922H154.191V75.4395H164.679V75.4479ZM166.609 94.8888C170.141 94.8888 172.658 93.8736 174.169 91.8515C175.117 90.5677 175.587 89.0238 175.587 87.2031C175.587 84.1405 174.202 82.0597 171.45 80.9521C169.982 80.3564 168.044 80.0627 165.627 80.0627H154.191V94.8888H166.609Z" fill="#0E0E0E"/>
</svg>
