<svg width="289" height="117" viewBox="0 0 289 117" fill="none" xmlns="http://www.w3.org/2000/svg">
<path fill-rule="evenodd" clip-rule="evenodd" d="M48.8086 2.34916H57.6861V8.15401H51.8197L48.5682 12.5388H53.5888V53.3611H57.6859V59.1659H43.9345V53.3611H47.6737V13.7451L37.496 27.4702L32.7132 24.0546L48.8086 2.34916ZM0 8.15403H5.14341V53.3611H0V59.1659H5.14341V59.1662H12.8468V59.1659H14.8383V53.3611H11.0586V23.703L21.2748 37.9663H40.969L14.1358 2.34918H0V8.15403ZM24.3472 32.1615L7.15173 8.15403H11.1528L29.2395 32.1615H24.3472Z" fill="white"/>
<path fill-rule="evenodd" clip-rule="evenodd" d="M136.459 2.33661C135.345 2.30223 133.522 2.26139 130.882 2.33633C128.584 2.39851 126.765 2.44794 125.383 2.54457C124.089 2.63503 122.776 2.78377 121.71 3.22808L121.708 3.22857C118.827 4.42842 116.927 6.49981 115.771 8.1788C114.619 9.85206 114.085 11.3071 113.985 11.6015C113.686 12.474 113.54 13.416 113.437 14.4284C113.337 15.4136 113.263 16.6432 113.171 18.1579L113.161 18.315C113.026 20.5424 113.059 22.0354 113.165 23.3509L113.186 23.6177C113.318 25.3346 113.431 26.7957 114.074 28.2527L114.075 28.254C115.548 31.5923 118.806 33.052 120.195 33.6744L120.284 33.7142C124.234 35.4878 131.635 38.6352 141.359 42.3884L143.524 36.9863C133.887 33.2666 126.585 30.16 122.745 28.4356C121.217 27.7496 119.996 27.0662 119.503 25.9472L119.502 25.9459C119.302 25.4918 119.23 25.0423 119.063 22.9031L119.062 22.899L119.062 22.8948C118.98 21.8794 118.945 20.6569 119.066 18.66L119.069 18.6171L119.069 18.6171C119.167 17.0008 119.235 15.8721 119.323 15.0041C119.413 14.1234 119.507 13.6986 119.591 13.4526L119.593 13.4478L119.595 13.443C119.594 13.4451 119.594 13.4445 119.595 13.4415C119.615 13.3861 119.945 12.4852 120.672 11.4289C121.443 10.3091 122.541 9.18757 124.019 8.57211L124.021 8.57155C124.021 8.57162 124.021 8.57148 124.022 8.57113C124.035 8.56655 124.152 8.52612 124.444 8.47783C124.761 8.42525 125.198 8.37708 125.804 8.33475C127.027 8.24922 128.694 8.20259 131.047 8.13892L131.049 8.13887L131.051 8.13881C133.538 8.06816 135.237 8.10664 136.27 8.13849C139.538 8.24677 140.83 8.30824 142.357 8.70517C144.313 9.21645 145.173 9.48046 145.946 10.1146L145.949 10.1169L145.952 10.1192C147.1 11.0563 147.9 12.7687 148.131 14.5697C148.222 15.2811 148.208 15.8946 148.139 16.353C147.597 16.3175 146.85 16.275 145.9 16.2487L145.899 16.2487C144.37 16.207 143.131 16.2279 142.36 16.2487L142.523 22.0513C143.224 22.0324 144.347 22.0135 145.734 22.0513C146.825 22.0814 147.507 22.1286 148.054 22.1664L148.054 22.1664L148.055 22.1664C148.265 22.1809 148.455 22.1941 148.641 22.2043C149.272 22.2393 150.316 22.2891 151.421 21.6198L151.425 21.6175L151.429 21.6153C152.943 20.6921 153.576 19.1019 153.849 17.9436C154.148 16.6708 154.179 15.2414 154 13.8442C153.649 11.1097 152.393 7.82799 149.736 5.65798C147.88 4.13676 145.807 3.59742 144.106 3.15472L143.878 3.0955L143.876 3.09501L143.875 3.09452C141.617 2.50725 139.653 2.44229 136.606 2.34147L136.462 2.33671L136.459 2.33661ZM147.966 16.9934C147.965 16.9929 147.969 16.986 147.977 16.9738C147.97 16.9877 147.966 16.9938 147.966 16.9934ZM129.404 59.6531C130.518 59.6875 132.342 59.7283 134.981 59.6534C137.279 59.5912 139.098 59.5418 140.48 59.4451C141.774 59.3547 143.087 59.2059 144.154 58.7616L144.155 58.7611C147.037 57.5613 148.936 55.4899 150.092 53.8109C151.244 52.1376 151.778 50.6826 151.878 50.3883C152.178 49.5157 152.323 48.5737 152.426 47.5613C152.526 46.5761 152.601 45.3466 152.693 43.8318L152.702 43.6747C152.837 41.4473 152.805 39.9543 152.698 38.6389L152.678 38.372C152.545 36.6551 152.432 35.194 151.789 33.7371L151.788 33.7357C150.316 30.3974 147.058 28.9377 145.668 28.3153L145.58 28.2755C141.63 26.5019 134.228 23.3545 124.504 19.6013L122.339 25.0034C131.976 28.7231 139.278 31.8297 143.119 33.5541C144.646 34.2401 145.867 34.9235 146.36 36.0425L146.361 36.0438C146.561 36.4979 146.634 36.9474 146.801 39.0866L146.801 39.0908L146.801 39.0949C146.884 40.1104 146.919 41.3328 146.797 43.3297L146.795 43.3726L146.795 43.3732C146.697 44.9892 146.628 46.1177 146.54 46.9857C146.451 47.8664 146.357 48.2911 146.272 48.5371L146.271 48.542L146.269 48.5467C146.27 48.5447 146.269 48.5452 146.268 48.5482C146.248 48.6036 145.919 49.5045 145.191 50.5608C144.42 51.6806 143.323 52.8021 141.844 53.4176L141.842 53.4186C141.843 53.418 141.843 53.418 141.841 53.4186C141.828 53.4232 141.711 53.4636 141.42 53.5119C141.102 53.5645 140.665 53.6126 140.06 53.655C138.836 53.7405 137.169 53.7871 134.816 53.8508L134.814 53.8508L134.812 53.8509C132.325 53.9215 130.626 53.8831 129.594 53.8512C126.325 53.7429 125.033 53.6815 123.506 53.2845C121.551 52.7733 120.691 52.5092 119.918 51.8751L119.915 51.8728L119.912 51.8705C118.764 50.9334 117.964 49.2211 117.733 47.42C117.641 46.7086 117.655 46.0952 117.724 45.6367C118.267 45.6722 119.013 45.7148 119.963 45.741L119.964 45.741C121.493 45.7827 122.732 45.7619 123.503 45.741L123.34 39.9384C122.639 39.9573 121.516 39.9762 120.129 39.9384C119.038 39.9083 118.356 39.8612 117.809 39.8233C117.599 39.8088 117.409 39.7956 117.223 39.7854C116.591 39.7505 115.547 39.7006 114.442 40.3699L114.438 40.3722L114.435 40.3744C112.921 41.2976 112.287 42.8878 112.015 44.0461C111.715 45.319 111.684 46.7483 111.864 48.1455C112.215 50.88 113.47 54.1617 116.127 56.3317C117.984 57.853 120.056 58.3923 121.758 58.835L121.985 58.8942L121.987 58.8947L121.989 58.8952C124.247 59.4825 126.21 59.5474 129.257 59.6482L129.401 59.653L129.404 59.6531ZM117.898 44.9963C117.898 44.9968 117.895 45.0037 117.887 45.0159C117.893 45.002 117.897 44.9959 117.898 44.9963Z" fill="white"/>
<path fill-rule="evenodd" clip-rule="evenodd" d="M161.663 7.80272V1.99787H185.648V7.80272H181.903V53.6666L185.685 53.7126L185.612 59.517L161.626 59.2255L161.663 53.4209H165.814V12.2276H171.729V53.543L175.987 53.5948V7.80272H161.663Z" fill="white"/>
<path fill-rule="evenodd" clip-rule="evenodd" d="M216.351 53.6919V29.2428L241.071 4.98435L236.888 0.8797L216.351 21.0335V8.4844H220.462V2.67954H196.085V8.4844H210.436V53.6919H206.603V12.8696H200.688V53.6919H196.085V59.4967H220.462V53.6919H216.351ZM223.507 28.0799L239.709 59.8797L245 57.2837L228.798 25.4839L223.507 28.0799Z" fill="white"/>
<path fill-rule="evenodd" clip-rule="evenodd" d="M84.4988 5.28841C84.1455 4.59703 83.3662 3.53084 81.887 3.22624C81.1521 3.07226 80.5038 3.20446 80.5914 3.19219L80.5683 3.19542L80.5452 3.19902C79.2751 3.3972 75.0924 3.51925 64.2309 3.16462L64.0342 8.96626C71.975 9.22553 76.6836 9.24876 79.376 9.11714C79.4344 9.87509 79.4586 10.8725 79.4562 12.1318C79.4542 13.2067 79.4324 14.4471 79.4085 15.8101C79.3563 18.78 79.2939 22.3322 79.4034 26.0231L81.887 3.22624L79.4035 26.0248C79.5277 30.2957 79.4563 34.5776 79.3837 38.9361L79.3837 38.9362L79.3748 39.4742C79.2998 43.994 79.2322 48.5938 79.4041 53.2047L79.4042 53.2088L79.4043 53.2119C79.4095 53.3633 79.4148 53.5168 79.415 53.682C79.1198 53.5207 78.8386 53.3396 78.607 53.1785C78.3631 53.0088 78.2066 52.8838 78.1875 52.8686C78.1854 52.8669 78.185 52.8665 78.1863 52.8677L78.1831 52.865L78.1799 52.8623C76.9487 51.8534 76.3857 50.5901 75.6717 48.7548L75.6715 48.7543C74.7895 46.4887 74.5503 44.616 74.4967 44.1587L74.4965 44.1567L74.4962 44.1546C74.0135 40.0843 73.8986 29.0623 74.5136 14.1326L68.6033 13.8981C67.9898 28.7915 68.0773 40.24 68.6205 44.8234C68.7023 45.5211 69.017 47.9262 70.1456 50.8254L70.1459 50.826L70.1584 50.8583C70.8612 52.6647 71.8669 55.2499 74.385 57.3151C74.552 57.4525 75.5589 58.258 76.8385 58.9131C77.4794 59.2411 78.327 59.6041 79.2629 59.7745C80.189 59.9431 81.5199 59.9761 82.7901 59.2311L82.7934 59.2292L82.7967 59.2273C84.5591 58.1876 85.0342 56.3532 85.1931 55.4336C85.3668 54.4282 85.332 53.4598 85.3176 53.0574V53.0574L85.3157 53.0043L85.3155 53.0004L85.3154 52.9964C85.1499 48.559 85.2139 44.1039 85.2891 39.5687L85.2988 38.9882V38.9881C85.3709 34.6632 85.4443 30.2627 85.3162 25.8575L85.3161 25.8558C85.2103 22.2918 85.2686 19.0182 85.3203 16.1145V16.1144C85.3454 14.6996 85.3691 13.3726 85.3714 12.1426C85.3747 10.3537 85.3327 8.67571 85.1262 7.37914C85.0252 6.74544 84.8538 5.9829 84.4988 5.28841ZM80.3676 54.0712C80.3739 54.072 80.377 54.0723 80.3769 54.0722C80.3769 54.0721 80.3759 54.0719 80.3739 54.0717C80.3723 54.0716 80.3702 54.0714 80.3676 54.0712ZM106.684 41.9916V4.26005H100.769V41.9916C100.769 47.1778 99.2976 50.0132 97.0422 51.9213C96.0879 52.7286 94.4355 53.376 92.4366 53.7236C90.4712 54.0653 88.6129 54.041 87.5634 53.8549L86.5115 59.5672C88.3843 59.8994 90.9625 59.8751 93.4685 59.4394C95.9413 59.0095 98.7956 58.102 100.904 56.3179C104.775 53.0431 106.684 48.4151 106.684 41.9916Z" fill="white"/>
<path d="M2.88615 79.6093H8.67696V96.3711C8.67696 98.2459 8.89897 99.615 9.34299 100.478C10.0337 102.008 11.5384 102.772 13.8572 102.772C16.1637 102.772 17.6623 102.008 18.353 100.478C18.797 99.615 19.019 98.2459 19.019 96.3711V79.6093H24.8098V96.3711C24.8098 99.2696 24.3596 101.527 23.4592 103.143C21.7818 106.103 18.5811 107.583 13.8572 107.583C9.13332 107.583 5.92648 106.103 4.23672 103.143C3.33634 101.527 2.88615 99.2696 2.88615 96.3711V79.6093ZM30.1751 79.6093H36.1509L47.011 98.6468V79.6093H52.3208V106.88H46.6225L35.4849 87.5092V106.88H30.1751V79.6093ZM63.1808 84.3455V102.143H68.4351C71.1239 102.143 72.9987 100.818 74.0594 98.1657C74.6391 96.7103 74.929 94.9774 74.929 92.967C74.929 90.1918 74.4911 88.0642 73.6154 86.5841C72.752 85.0917 71.0252 84.3455 68.4351 84.3455H63.1808ZM69.3972 79.6093C71.0869 79.6339 72.493 79.8313 73.6154 80.2013C75.5272 80.8303 77.0751 81.9836 78.2591 83.661C79.2088 85.0177 79.8564 86.4855 80.2017 88.0642C80.5471 89.643 80.7198 91.1477 80.7198 92.5784C80.7198 96.2046 79.9921 99.2758 78.5366 101.792C76.5632 105.184 73.5167 106.88 69.3972 106.88H57.649V79.6093H69.3972ZM105.197 84.438H90.7658V90.2288H104.012V94.9651H90.7658V101.977H105.863V106.88H85.197V79.6093H105.197V84.438ZM116.001 84.3455V91.6719H122.458C123.741 91.6719 124.703 91.5239 125.344 91.2279C126.479 90.7098 127.046 89.6861 127.046 88.1567C127.046 86.504 126.497 85.3939 125.4 84.8265C124.783 84.5059 123.858 84.3455 122.624 84.3455H116.001ZM123.809 79.6093C125.72 79.6463 127.188 79.8806 128.212 80.3123C129.248 80.744 130.124 81.3792 130.839 82.2179C131.431 82.9086 131.9 83.6733 132.245 84.512C132.59 85.3507 132.763 86.3066 132.763 87.3797C132.763 88.6747 132.436 89.9513 131.782 91.2094C131.129 92.4551 130.05 93.337 128.545 93.855C129.803 94.3607 130.691 95.0822 131.209 96.0196C131.739 96.9447 132.004 98.3631 132.004 100.275V102.106C132.004 103.352 132.054 104.197 132.152 104.641C132.3 105.344 132.646 105.862 133.189 106.195V106.88H126.917C126.744 106.275 126.621 105.788 126.547 105.418C126.399 104.653 126.319 103.87 126.306 103.068L126.269 100.534C126.244 98.7948 125.924 97.6354 125.307 97.0557C124.703 96.476 123.562 96.1861 121.884 96.1861H116.001V106.88H110.432V79.6093H123.809ZM153.762 84.3455V90.3583H160.459C161.655 90.3583 162.624 90.1363 163.364 89.6923C164.116 89.2359 164.492 88.4342 164.492 87.2872C164.492 86.0168 163.999 85.1781 163.012 84.771C162.161 84.4874 161.076 84.3455 159.756 84.3455H153.762ZM153.762 94.8726V102.143H160.459C161.655 102.143 162.587 101.983 163.253 101.662C164.461 101.07 165.066 99.9357 165.066 98.2582C165.066 96.8398 164.48 95.8655 163.308 95.3351C162.654 95.0391 161.736 94.8849 160.551 94.8726H153.762ZM161.569 79.6093C164.912 79.6586 167.28 80.6268 168.673 82.5139C169.512 83.6733 169.931 85.0609 169.931 86.6766C169.931 88.3417 169.512 89.68 168.673 90.6913C168.205 91.2587 167.514 91.7767 166.601 92.2454C167.995 92.7511 169.043 93.5528 169.746 94.6506C170.462 95.7483 170.82 97.0803 170.82 98.6468C170.82 100.263 170.412 101.712 169.598 102.994C169.08 103.846 168.433 104.561 167.656 105.141C166.78 105.807 165.744 106.263 164.548 106.51C163.364 106.756 162.075 106.88 160.681 106.88H148.322V79.6093H161.569ZM181.31 84.3455V91.6719H187.766C189.049 91.6719 190.011 91.5239 190.653 91.2279C191.787 90.7098 192.355 89.6861 192.355 88.1567C192.355 86.504 191.806 85.3939 190.708 84.8265C190.091 84.5059 189.166 84.3455 187.933 84.3455H181.31ZM189.117 79.6093C191.029 79.6463 192.496 79.8806 193.52 80.3123C194.556 80.744 195.432 81.3792 196.147 82.2179C196.739 82.9086 197.208 83.6733 197.553 84.512C197.899 85.3507 198.071 86.3066 198.071 87.3797C198.071 88.6747 197.745 89.9513 197.091 91.2094C196.437 92.4551 195.358 93.337 193.853 93.855C195.111 94.3607 195.999 95.0822 196.517 96.0196C197.048 96.9447 197.313 98.3631 197.313 100.275V102.106C197.313 103.352 197.362 104.197 197.461 104.641C197.609 105.344 197.954 105.862 198.497 106.195V106.88H192.225C192.052 106.275 191.929 105.788 191.855 105.418C191.707 104.653 191.627 103.87 191.615 103.068L191.578 100.534C191.553 98.7948 191.232 97.6354 190.616 97.0557C190.011 96.476 188.87 96.1861 187.193 96.1861H181.31V106.88H175.741V79.6093H189.117ZM215.055 102.809C217.312 102.809 219.101 101.977 220.421 100.312C221.753 98.6468 222.419 96.2786 222.419 93.2075C222.419 90.1487 221.753 87.7867 220.421 86.1216C219.101 84.4442 217.312 83.6055 215.055 83.6055C212.798 83.6055 210.997 84.438 209.653 86.1031C208.309 87.7682 207.636 90.1363 207.636 93.2075C207.636 96.2786 208.309 98.6468 209.653 100.312C210.997 101.977 212.798 102.809 215.055 102.809ZM228.117 93.2075C228.117 98.1041 226.742 101.854 223.991 104.456C221.932 106.578 218.953 107.638 215.055 107.638C211.158 107.638 208.179 106.578 206.119 104.456C203.357 101.854 201.975 98.1041 201.975 93.2075C201.975 88.2122 203.357 84.4627 206.119 81.9589C208.179 79.8374 211.158 78.7767 215.055 78.7767C218.953 78.7767 221.932 79.8374 223.991 81.9589C226.742 84.4627 228.117 88.2122 228.117 93.2075ZM252.649 84.438H238.219V90.2288H251.465V94.9651H238.219V101.977H253.315V106.88H232.65V79.6093H252.649V84.438ZM257.663 79.6093H263.639L274.499 98.6468V79.6093H279.809V106.88H274.11L262.973 87.5092V106.88H257.663V79.6093Z" fill="white"/>
</svg>
