<svg width="204" height="101" viewBox="0 0 204 101" fill="none" xmlns="http://www.w3.org/2000/svg">
<path d="M4 98.8797C4.55519 88.3416 7.55828 63.8591 27.5536 40.9945C33.686 33.9814 59.4857 4.4748 101.579 3.88852C133.579 3.44325 155.837 19.9777 162.146 24.6678C182.377 39.7032 190.124 57.8405 193.136 65.1653C198.738 78.7831 199.916 90.8574 200 98.8797" stroke="white" stroke-width="7" stroke-miterlimit="10"/>
<path d="M45.3793 93.2923L57.2882 58.0145H64.5513V99.1435H60.1058V74.7822C60.1058 73.9231 60.1225 72.5091 60.1644 70.522C60.2065 68.5289 60.2233 66.394 60.2233 64.1178L59.2497 63.9576L47.3409 99.1518H42.4019L30.3764 63.9562L29.4032 64.1178V65.41C29.4032 66.4486 29.4285 68.0313 29.4873 70.1394C29.546 72.2435 29.5711 73.7989 29.5711 74.7822V99.1435H25.1256V58.0145H32.4315L44.4322 93.2934L44.9074 94.6903L45.3793 93.2923Z" fill="white" stroke="white"/>
<path d="M116.97 91.0484L116.969 91.0509C115.102 94.5709 111.579 96.2754 106.584 96.2754C102.37 96.2754 99.2896 94.6799 97.4733 91.432C96.2614 89.3145 95.6716 86.6808 95.6716 83.5588V58.0145H90.9241V81.1758C90.9241 86.3203 91.6181 90.2153 92.9686 92.9082L116.97 91.0484ZM116.97 91.0484C117.961 89.1552 118.445 86.6495 118.445 83.5588M116.97 91.0484L118.445 83.5588M118.445 83.5588V58.0145M118.445 83.5588V58.0145M118.445 58.0145H123.209V81.1758C123.209 86.3286 122.515 90.2229 121.165 92.907C118.706 97.7777 114.055 100.259 107.054 100.259C100.054 100.259 95.4115 97.7778 92.9687 92.9082L118.445 58.0145Z" fill="white" stroke="white"/>
<path d="M176.615 74.1559L176.615 74.1559C178.029 72.5682 178.753 70.512 178.753 67.9523C178.753 65.774 178.168 63.8634 177 62.218L176.615 74.1559ZM176.615 74.1559L176.611 74.1606M176.615 74.1559L176.611 74.1606M176.611 74.1606C175.886 74.9942 174.813 75.781 173.38 76.5097L172.375 77.0208M176.611 74.1606L172.375 77.0208M172.375 77.0208L173.428 77.4226M172.375 77.0208L173.428 77.4226M173.428 77.4226C175.554 78.2332 177.103 79.1263 178.108 80.1001C179.886 81.8225 180.792 84.2144 180.792 87.3429C180.792 89.9468 179.976 92.2894 178.33 94.4026L178.33 94.4028M173.428 77.4226L178.33 94.4028M178.33 94.4028C175.896 97.5317 171.998 99.1435 166.516 99.1435H149.094V58.0145H166.81M178.33 94.4028L166.81 58.0145M166.81 58.0145C171.681 58.0145 175.028 59.4502 177 62.2174L166.81 58.0145ZM164.179 75.8192V75.8276H164.679C167.147 75.8276 169.132 75.489 170.582 74.7686C171.725 74.2037 172.6 73.4004 173.186 72.3578C173.769 71.319 174.048 70.072 174.048 68.6403C174.048 67.2045 173.75 65.9574 173.126 64.932C172.5 63.9026 171.566 63.131 170.353 62.617L170.352 62.6166C168.984 62.0405 167.007 61.7719 164.478 61.7719H154.191H153.691V62.2719V75.3192V75.8192H154.191H164.179ZM174.569 92.0304L174.571 92.0282C175.591 90.6464 176.087 88.9944 176.087 87.0828C176.087 85.4753 175.723 84.088 174.967 82.948C174.211 81.8073 173.089 80.9526 171.638 80.3683C170.086 79.739 168.077 79.4424 165.627 79.4424H154.191H153.691V79.9424V94.7685V95.2685H154.191H166.609C170.233 95.2685 172.931 94.2239 174.569 92.0304Z" fill="white" stroke="white"/>
</svg>
