<svg width="163" height="60" viewBox="0 0 163 60" fill="none" xmlns="http://www.w3.org/2000/svg">
<path fill-rule="evenodd" clip-rule="evenodd" d="M0 3.82211H2.6032V27.575H0V30.625H2.6032V30.6251H6.50206V30.625H7.51V27.575H5.59698V11.9919L10.7677 19.4862H20.7353L7.15444 0.772102H0V3.82211ZM12.3227 16.4362L3.61965 3.82211H5.64468L14.7988 16.4362H12.3227ZM24.7032 0.772104H29.1962V3.82211H26.2271L24.5815 6.12599H27.1225V27.575H29.1961V30.625H22.2362V27.575H24.1287V6.75982L18.9776 13.9713L16.5569 12.1767L24.7032 0.772104Z" fill="white"/>
<path fill-rule="evenodd" clip-rule="evenodd" d="M69.065 0.7655C68.5012 0.747438 67.5784 0.725978 66.2423 0.765352C65.0794 0.798023 64.1588 0.823998 63.4593 0.874769C62.8044 0.9223 62.1396 1.00045 61.5999 1.2339L61.5993 1.23416C60.1408 1.86459 59.1794 2.95294 58.5943 3.83512C58.0112 4.7143 57.7411 5.47882 57.6903 5.63347C57.5388 6.09192 57.4652 6.58685 57.4131 7.11884C57.3625 7.63648 57.3248 8.2825 57.2783 9.07839L57.2735 9.16091C57.205 10.3313 57.2215 11.1157 57.2753 11.8069L57.2858 11.9471C57.353 12.8492 57.4101 13.6169 57.7356 14.3824L57.7359 14.3831C58.4813 16.1371 60.1302 16.9041 60.8334 17.2311L60.8783 17.252C62.8775 18.1839 66.6236 19.8376 71.5451 21.8097L72.6409 18.9713C67.7632 17.0168 64.0676 15.3846 62.1239 14.4785C61.3506 14.1181 60.7329 13.759 60.4831 13.1711L60.4829 13.1704C60.3814 12.9318 60.3448 12.6956 60.2602 11.5716L60.26 11.5694L60.2599 11.5673C60.2182 11.0337 60.2006 10.3914 60.2619 9.34221L60.2633 9.31968C60.3129 8.47043 60.3476 7.87737 60.3922 7.42128C60.4374 6.95853 60.485 6.73536 60.5278 6.60612L60.5286 6.60356L60.5294 6.60105C60.5291 6.60214 60.5292 6.60187 60.5297 6.60029C60.54 6.57116 60.7067 6.09781 61.0748 5.54281C61.4651 4.95442 62.0206 4.36516 62.7689 4.04178L62.7701 4.04127C62.7694 4.04157 62.7694 4.04156 62.7703 4.04127C62.777 4.03886 62.8361 4.01762 62.9838 3.99224C63.1445 3.96462 63.3656 3.93931 63.672 3.91707C64.2912 3.87213 65.135 3.84763 66.3258 3.81417L66.3268 3.81415L66.3278 3.81412C67.5866 3.77699 68.4464 3.79721 68.9692 3.81395C70.6233 3.87084 71.2773 3.90314 72.0502 4.1117C73.0399 4.38033 73.4752 4.51905 73.8664 4.85222L73.8679 4.85345L73.8693 4.85467C74.4505 5.34705 74.8553 6.24674 74.9723 7.19304C75.0185 7.56686 75.0113 7.88917 74.9765 8.13003C74.7019 8.1114 74.3242 8.08904 73.8435 8.07525L73.8429 8.07524C73.069 8.05334 72.4419 8.06429 72.0518 8.07523L72.1342 11.1241C72.4888 11.1141 73.0574 11.1042 73.7593 11.1241C74.3113 11.1399 74.6566 11.1647 74.9335 11.1845L74.9335 11.1845C75.04 11.1922 75.1363 11.1991 75.2304 11.2045C75.5501 11.2228 76.0785 11.249 76.6377 10.8973L76.6396 10.8962L76.6414 10.895C77.4077 10.4099 77.7282 9.57437 77.8662 8.96581C78.0178 8.297 78.0334 7.54597 77.9426 6.81188C77.765 5.37508 77.1297 3.6508 75.7847 2.51063C74.8453 1.71134 73.7962 1.42796 72.935 1.19536L72.82 1.16424L72.8191 1.16398L72.8181 1.16373C71.6753 0.855158 70.6817 0.821028 69.1394 0.768052L69.0667 0.765555L69.065 0.7655ZM74.8887 8.4665C74.8885 8.46628 74.8903 8.46263 74.8944 8.45622C74.8909 8.46352 74.8888 8.46673 74.8887 8.4665ZM65.4944 30.8809C66.0582 30.899 66.981 30.9205 68.3171 30.8811C69.48 30.8484 70.4006 30.8224 71.1001 30.7717C71.7549 30.7241 72.4197 30.646 72.9594 30.4125L72.96 30.4123C74.4185 29.7818 75.3799 28.6935 75.9651 27.8113C76.5482 26.9321 76.8182 26.1676 76.8691 26.013C77.0206 25.5545 77.0942 25.0596 77.1462 24.5276C77.1969 24.01 77.2346 23.364 77.2811 22.5681L77.2811 22.568L77.2859 22.4855C77.3543 21.3152 77.3379 20.5307 77.284 19.8395L77.2735 19.6993C77.2064 18.7973 77.1492 18.0296 76.8238 17.264L76.8235 17.2633C76.0781 15.5093 74.4291 14.7423 73.726 14.4153L73.6811 14.3944C71.6819 13.4625 67.9358 11.8088 63.0143 9.83678L61.9185 12.6751C66.7962 14.6296 70.4917 16.2618 72.4355 17.1679C73.2088 17.5284 73.8265 17.8874 74.0762 18.4754L74.0765 18.476C74.178 18.7146 74.2146 18.9508 74.2992 20.0748L74.2993 20.077L74.2995 20.0792C74.3411 20.6127 74.3588 21.255 74.2974 22.3042L74.2961 22.3268L74.2961 22.3268C74.2465 23.176 74.2118 23.7691 74.1672 24.2252C74.1219 24.6879 74.0744 24.9111 74.0316 25.0403L74.0308 25.0429L74.0299 25.0454C74.0303 25.0443 74.0302 25.0446 74.0296 25.0461L74.0296 25.0461C74.0194 25.0753 73.8526 25.5486 73.4845 26.1036C73.0943 26.692 72.5388 27.2813 71.7904 27.6047L71.7893 27.6052C71.7899 27.6049 71.7899 27.6049 71.7891 27.6052C71.7824 27.6076 71.7232 27.6288 71.5756 27.6542C71.4149 27.6818 71.1938 27.7071 70.8873 27.7294C70.2682 27.7743 69.4243 27.7988 68.2336 27.8323L68.2325 27.8323L68.2315 27.8323C66.9728 27.8694 66.113 27.8492 65.5902 27.8325C63.9361 27.7756 63.282 27.7433 62.5091 27.5347C61.5195 27.2661 61.0842 27.1274 60.6929 26.7942L60.6915 26.793L60.6901 26.7918C60.1089 26.2994 59.7041 25.3997 59.5871 24.4534C59.5409 24.0796 59.548 23.7573 59.5829 23.5164C59.8574 23.535 60.2352 23.5574 60.7159 23.5712L60.7164 23.5712C61.4904 23.5931 62.1174 23.5821 62.5076 23.5712L62.4252 20.5224C62.0706 20.5323 61.5019 20.5422 60.8001 20.5224C60.248 20.5066 59.9027 20.4818 59.6259 20.4619L59.6255 20.4619C59.5192 20.4542 59.4229 20.4473 59.329 20.442C59.0093 20.4236 58.4809 20.3974 57.9217 20.7491L57.9198 20.7503L57.9179 20.7515C57.1517 21.2365 56.8312 22.0721 56.6932 22.6806C56.5416 23.3494 56.526 24.1005 56.6168 24.8346C56.7944 26.2713 57.4297 27.9956 58.7746 29.1358C59.7141 29.9351 60.7632 30.2185 61.6243 30.4511L61.7393 30.4822L61.7403 30.4825L61.7412 30.4827C62.8841 30.7913 63.8777 30.8254 65.42 30.8784L65.4927 30.8809L65.4944 30.8809ZM59.6707 23.1799C59.6708 23.1802 59.6691 23.1838 59.665 23.1902C59.6685 23.1829 59.6705 23.1797 59.6707 23.1799Z" fill="white"/>
<path fill-rule="evenodd" clip-rule="evenodd" d="M81.8213 3.63752V0.587509H93.961V3.63752H92.065V27.7355L93.9794 27.7596L93.9424 30.8094L81.8027 30.6563L81.8212 27.6064H83.9221V5.96246H86.9159V27.6705L89.0712 27.6977V3.63752H81.8213Z" fill="white"/>
<path fill-rule="evenodd" clip-rule="evenodd" d="M109.5 27.7488V14.9027L122.011 2.15668L119.894 0L109.5 10.5893V3.9957H111.581V0.945692H99.2429V3.9957H106.506V27.7488H104.567V6.29979H101.573V27.7488H99.2429V30.7988H111.581V27.7488H109.5ZM113.122 14.2917L121.322 31L124 29.636L115.8 12.9277L113.122 14.2917Z" fill="white"/>
<path fill-rule="evenodd" clip-rule="evenodd" d="M42.7668 2.31645C42.5879 1.95319 42.1935 1.39299 41.4449 1.23294C41.0729 1.15204 40.7448 1.2215 40.7891 1.21505L40.7774 1.21675L40.7658 1.21864C40.1229 1.32277 38.006 1.3869 32.5087 1.20057L32.4092 4.24889C36.4282 4.38511 38.8113 4.39732 40.174 4.32816C40.2035 4.72641 40.2158 5.25046 40.2146 5.91216C40.2136 6.47688 40.2025 7.12859 40.1904 7.84475L40.1904 7.84483V7.84484C40.164 9.40527 40.1324 11.2717 40.1879 13.211L41.4449 1.23294L40.1879 13.2119C40.2508 15.4559 40.2147 17.7057 40.1779 19.9958L40.1779 19.9958L40.1734 20.2785C40.1354 22.6533 40.1012 25.0701 40.1882 27.4928L40.1883 27.495L40.1883 27.4966C40.191 27.5761 40.1936 27.6568 40.1937 27.7436C40.0443 27.6588 39.902 27.5637 39.7848 27.4791C39.6613 27.3898 39.5821 27.3242 39.5725 27.3162C39.5714 27.3153 39.5712 27.3151 39.5719 27.3157L39.5702 27.3143L39.5686 27.3129C38.9455 26.7828 38.6605 26.119 38.2991 25.1547L38.299 25.1545C37.8526 23.9641 37.7316 22.9801 37.7045 22.7398L37.7044 22.7388L37.7042 22.7377C37.4599 20.599 37.4018 14.8078 37.713 6.96342L34.7217 6.84022C34.4112 14.6655 34.4555 20.6808 34.7304 23.0891C34.7718 23.4557 34.9311 24.7194 35.5023 26.2427L35.5024 26.243L35.5088 26.26C35.8644 27.2091 36.3735 28.5674 37.6479 29.6525C37.7325 29.7247 38.2421 30.1479 38.8897 30.4921C39.2141 30.6645 39.6431 30.8552 40.1167 30.9447C40.5855 31.0333 41.2591 31.0507 41.9019 30.6592L41.9036 30.6582L41.9053 30.6572C42.7973 30.111 43.0377 29.1471 43.1181 28.6639C43.206 28.1357 43.1885 27.6268 43.1811 27.4154L43.1802 27.3875L43.1801 27.3854L43.18 27.3834C43.0963 25.0519 43.1287 22.711 43.1668 20.3281L43.1716 20.0231C43.2082 17.7507 43.2453 15.4386 43.1804 13.1239L43.1804 13.123C43.1269 11.2504 43.1563 9.5304 43.1825 8.0047C43.1953 7.26132 43.2072 6.56408 43.2084 5.9178C43.2101 4.97786 43.1888 4.09622 43.0843 3.41498C43.0332 3.08202 42.9464 2.68136 42.7668 2.31645ZM40.679 27.9485C40.6801 27.9486 40.6806 27.9486 40.6806 27.9486C40.6805 27.9485 40.6789 27.9483 40.6759 27.9481C40.6772 27.9483 40.6783 27.9484 40.679 27.9485ZM53.9953 21.6012V1.77613H51.0015V21.6012C51.0015 24.3261 50.2568 25.8159 49.1153 26.8185C48.6323 27.2427 47.7959 27.5828 46.7843 27.7654C45.7895 27.945 44.849 27.9322 44.3178 27.8344L43.7854 30.8358C44.7333 31.0104 46.0381 30.9976 47.3065 30.7687C48.558 30.5428 50.0027 30.066 51.07 29.1286C53.0292 27.4079 53.9953 24.9763 53.9953 21.6012Z" fill="white"/>
<path d="M10.7016 48.087V38.6554H13.96V48.087C13.96 49.718 13.7067 50.988 13.2001 51.8971C12.2562 53.5628 10.4553 54.3956 7.79721 54.3956C5.13915 54.3956 3.33472 53.5628 2.38393 51.8971C1.8773 50.988 1.62398 49.718 1.62398 48.087V38.6554H4.88236V48.087C4.88236 49.1419 5.00729 49.9123 5.25713 50.3981C5.64577 51.2587 6.49247 51.6889 7.79721 51.6889C9.09501 51.6889 9.93823 51.2587 10.3269 50.3981C10.5767 49.9123 10.7016 49.1419 10.7016 48.087ZM29.4399 54H26.2336L19.9667 43.1006V54H16.979V38.6554H20.3414L26.4522 49.3675V38.6554H29.4399V54ZM39.0485 54H32.438V38.6554H39.0485C39.9993 38.6693 40.7905 38.7804 41.422 38.9886C42.4977 39.3425 43.3687 39.9914 44.035 40.9353C44.5693 41.6987 44.9337 42.5245 45.128 43.4129C45.3223 44.3012 45.4195 45.1479 45.4195 45.9529C45.4195 47.9933 45.01 49.7214 44.1911 51.1372C43.0807 53.0457 41.3665 54 39.0485 54ZM41.4324 42.5696C40.9397 41.7368 39.9646 41.3204 38.5072 41.3204H35.5507V51.335H38.5072C40.0201 51.335 41.075 50.5889 41.6719 49.0968C41.998 48.2779 42.1611 47.3028 42.1611 46.1716C42.1611 44.61 41.9182 43.4094 41.4324 42.5696ZM58.5259 47.2959H51.0722V51.2413H59.5669V54H47.9388V38.6554H59.1921V41.3725H51.0722V44.6309H58.5259V47.2959ZM68.5821 47.9829H65.2717V54H62.1382V38.6554H69.6648C70.7405 38.6763 71.5664 38.8081 72.1424 39.051C72.7254 39.2939 73.2181 39.6513 73.6206 40.1233C73.9538 40.5119 74.2175 40.9422 74.4118 41.4141C74.6061 41.886 74.7033 42.4239 74.7033 43.0277C74.7033 43.7564 74.5194 44.4747 74.1515 45.1826C73.7837 45.8835 73.1765 46.3798 72.3298 46.6713C73.0377 46.9558 73.5373 47.3618 73.8288 47.8892C74.1273 48.4097 74.2765 49.2079 74.2765 50.2836V51.3142C74.2765 52.0151 74.3042 52.4905 74.3597 52.7404C74.443 53.136 74.6374 53.4274 74.9427 53.6148V54H71.4137C71.3165 53.6599 71.2471 53.3858 71.2055 53.1776C71.1222 52.7473 71.0771 52.3066 71.0701 51.8555L71.0493 50.4293C71.0354 49.4508 70.855 48.7984 70.508 48.4722C70.1679 48.146 69.526 47.9829 68.5821 47.9829ZM70.5288 45.193C71.1673 44.9015 71.4865 44.3255 71.4865 43.4649C71.4865 42.5349 71.1777 41.9103 70.56 41.5911C70.213 41.4107 69.6925 41.3204 68.9985 41.3204H65.2717V45.4429H68.9048C69.6266 45.4429 70.1679 45.3596 70.5288 45.193ZM90.4122 54H83.4582V38.6554H90.9119C92.7927 38.6832 94.1252 39.228 94.9094 40.2898C95.3813 40.9422 95.6173 41.723 95.6173 42.6321C95.6173 43.569 95.3813 44.322 94.9094 44.8911C94.6457 45.2104 94.257 45.5018 93.7435 45.7656C94.5277 46.0501 95.1176 46.5012 95.5132 47.1189C95.9157 47.7366 96.117 48.4861 96.117 49.3675C96.117 50.2766 95.8879 51.0921 95.4299 51.8139C95.1384 52.2927 94.7741 52.6953 94.3368 53.0214C93.8441 53.3962 93.2611 53.653 92.5879 53.7918C91.9217 53.9306 91.1964 54 90.4122 54ZM90.3393 47.2438H86.5188V51.335H90.2873C90.9605 51.335 91.4845 51.2448 91.8592 51.0643C92.5393 50.7312 92.8794 50.0927 92.8794 49.1489C92.8794 48.3508 92.5498 47.8025 91.8904 47.5041C91.5226 47.3375 91.0056 47.2507 90.3393 47.2438ZM91.9321 44.3186C92.3485 44.0687 92.5567 43.6211 92.5567 42.9756C92.5567 42.2608 92.2791 41.7889 91.7239 41.5599C91.245 41.4002 90.6343 41.3204 89.8917 41.3204H86.5188V44.7037H90.2873C90.9605 44.7037 91.5087 44.5753 91.9321 44.3186ZM105.33 47.9829H102.02V54H98.8861V38.6554H106.413C107.488 38.6763 108.314 38.8081 108.89 39.051C109.473 39.2939 109.966 39.6513 110.368 40.1233C110.702 40.5119 110.965 40.9422 111.16 41.4141C111.354 41.886 111.451 42.4239 111.451 43.0277C111.451 43.7564 111.267 44.4747 110.899 45.1826C110.532 45.8835 109.924 46.3798 109.078 46.6713C109.786 46.9558 110.285 47.3618 110.577 47.8892C110.875 48.4097 111.024 49.2079 111.024 50.2836V51.3142C111.024 52.0151 111.052 52.4905 111.108 52.7404C111.191 53.136 111.385 53.4274 111.691 53.6148V54H108.162C108.064 53.6599 107.995 53.3858 107.953 53.1776C107.87 52.7473 107.825 52.3066 107.818 51.8555L107.797 50.4293C107.783 49.4508 107.603 48.7984 107.256 48.4722C106.916 48.146 106.274 47.9829 105.33 47.9829ZM107.277 45.193C107.915 44.9015 108.234 44.3255 108.234 43.4649C108.234 42.5349 107.926 41.9103 107.308 41.5911C106.961 41.4107 106.44 41.3204 105.746 41.3204H102.02V45.4429H105.653C106.374 45.4429 106.916 45.3596 107.277 45.193ZM121.008 54.4268C118.815 54.4268 117.139 53.83 115.98 52.6363C114.425 51.1719 113.648 49.0621 113.648 46.3069C113.648 43.4962 114.425 41.3864 115.98 39.9775C117.139 38.7838 118.815 38.187 121.008 38.187C123.201 38.187 124.877 38.7838 126.036 39.9775C127.583 41.3864 128.357 43.4962 128.357 46.3069C128.357 49.0621 127.583 51.1719 126.036 52.6363C124.877 53.83 123.201 54.4268 121.008 54.4268ZM124.037 50.3044C124.78 49.3675 125.151 48.035 125.151 46.3069C125.151 44.5857 124.776 43.2567 124.027 42.3198C123.284 41.376 122.278 40.904 121.008 40.904C119.738 40.904 118.724 41.3725 117.968 42.3094C117.211 43.2463 116.833 44.5788 116.833 46.3069C116.833 48.035 117.211 49.3675 117.968 50.3044C118.724 51.2413 119.738 51.7098 121.008 51.7098C122.278 51.7098 123.287 51.2413 124.037 50.3044ZM141.495 47.2959H134.041V51.2413H142.536V54H130.908V38.6554H142.161V41.3725H134.041V44.6309H141.495V47.2959ZM157.443 54H154.237L147.97 43.1006V54H144.982V38.6554H148.345L154.455 49.3675V38.6554H157.443V54Z" fill="white"/>
</svg>
