<svg width="88" height="47" viewBox="0 0 88 47" fill="none" xmlns="http://www.w3.org/2000/svg">
<path d="M2 46C2.23794 41.1192 3.52498 29.7799 12.0944 19.19C14.7226 15.9419 25.7796 2.27562 43.8197 2.00409C57.5337 1.79786 67.073 9.45589 69.7768 11.6282C78.4472 18.5919 81.7675 26.9924 83.0582 30.3849C85.4592 36.6921 85.9639 42.2844 86 46" stroke="white" stroke-width="3" stroke-miterlimit="10"/>
<path d="M25.6201 42.6857L31.2853 22.2799H34.3008V45.8492H32.689V31.8503C32.689 31.3505 32.697 30.5268 32.7171 29.3683C32.7373 28.2049 32.7453 26.9589 32.7453 25.6309L31.7636 25.4969L26.0986 45.8541H24.1449L18.4242 25.4957L17.4428 25.6309V26.3845C17.4428 26.9918 17.455 27.9161 17.4832 29.146C17.5113 30.3726 17.5233 31.2785 17.5233 31.8503V45.8492H15.9115V22.2799H18.9479L24.6568 42.6867L25.1402 44.4145L25.6201 42.6857Z" fill="white" stroke="white"/>
<path d="M53.0547 41.4014L53.0556 41.3991C53.5437 40.2652 53.7765 38.7803 53.7765 36.9687V22.2799H55.5412V35.579C55.5412 38.5779 55.2083 40.8251 54.5734 42.3602C53.9904 43.7641 53.1606 44.7885 52.0964 45.4663C51.0299 46.1455 49.6909 46.5 48.0529 46.5C46.4149 46.5 45.0771 46.1455 44.0128 45.4665C42.9508 44.789 42.1241 43.7649 41.545 42.3613C40.9096 40.8209 40.5767 38.5731 40.5767 35.579V22.2799H42.3333V36.9687C42.3333 38.8017 42.6176 40.3622 43.213 41.6277C43.6556 42.5897 44.265 43.3392 45.0525 43.8454C45.8408 44.3521 46.7738 44.5934 47.8275 44.5934C49.0647 44.5934 50.1418 44.3381 51.0326 43.7979C51.927 43.2555 52.5985 42.447 53.0547 41.4014Z" fill="white" stroke="white"/>
<path d="M74.5322 31.3835L74.5322 31.3835L74.5287 31.3883C74.203 31.844 73.7153 32.2815 73.0507 32.6924L72.2611 33.1808L73.1034 33.5713C74.1002 34.0335 74.807 34.5339 75.2586 35.0658C76.0682 36.0197 76.5 37.3686 76.5 39.1756C76.5 40.6693 76.1149 42.0039 75.3475 43.2023L75.3474 43.2024C74.2292 44.9499 72.4536 45.8492 69.9131 45.8492H61.8171V22.2799H70.054C72.3005 22.2799 73.8082 23.075 74.7053 24.6065C75.2459 25.5325 75.5221 26.6172 75.5221 27.8672C75.5221 29.3407 75.1787 30.5014 74.5322 31.3835ZM68.5318 32.6635V32.6684H69.0318C70.2441 32.6684 71.2569 32.4669 72.0143 32.0095C73.2326 31.2773 73.7855 29.9714 73.7855 28.2684C73.7855 26.5557 73.1916 25.2511 71.8887 24.5797L71.8876 24.5791C71.1706 24.2121 70.1664 24.0544 68.9352 24.0544H64.0014H63.5014V24.5544V32.1635V32.6635H64.0014H68.5318ZM74.0094 41.9965L74.0107 41.9944C74.5223 41.1521 74.7634 40.1575 74.7634 39.0239C74.7634 38.0707 74.5863 37.2332 74.2055 36.5343C73.8217 35.8301 73.2462 35.2949 72.4998 34.9296C71.7015 34.536 70.6873 34.3597 69.4865 34.3597H64.0014H63.5014V34.8597V43.5062V44.0062H64.0014H69.9574C71.7812 44.0062 73.1731 43.358 74.0094 41.9965Z" fill="white" stroke="white"/>
</svg>
