<svg width="289" height="116" viewBox="0 0 289 116" fill="none" xmlns="http://www.w3.org/2000/svg">
<path fill-rule="evenodd" clip-rule="evenodd" d="M48.8086 1.46945H57.6861V7.27431H51.8197L48.5682 11.6591H53.5888V52.4814H57.6859V58.2862H43.9345V52.4814H47.6737V12.8654L37.496 26.5905L32.7132 23.1749L48.8086 1.46945ZM0 7.27433H5.14341V52.4814H0V58.2862H5.14341V58.2865H12.8468V58.2862H14.8383V52.4814H11.0586V22.8232L21.2748 37.0866H40.969L14.1358 1.46947H0V7.27433ZM24.3472 31.2818L7.15173 7.27433H11.1528L29.2395 31.2818H24.3472Z" fill="#0E0E0E"/>
<path fill-rule="evenodd" clip-rule="evenodd" d="M136.459 1.45692C135.345 1.42255 133.522 1.3817 130.882 1.45664C128.584 1.51882 126.765 1.56826 125.383 1.66489C124.089 1.75535 122.776 1.90408 121.71 2.3484L121.708 2.34889C118.827 3.54873 116.927 5.62012 115.771 7.29911C114.619 8.97238 114.085 10.4274 113.985 10.7218C113.686 11.5943 113.54 12.5363 113.437 13.5488C113.337 14.534 113.263 15.7635 113.171 17.2782L113.161 17.4353C113.026 19.6627 113.059 21.1557 113.165 22.4712L113.186 22.738C113.318 24.4549 113.431 25.916 114.074 27.373L114.075 27.3743C115.548 30.7126 118.806 32.1723 120.195 32.7948L120.284 32.8345C124.234 34.6081 131.635 37.7555 141.359 41.5087L143.524 36.1066C133.887 32.3869 126.585 29.2803 122.745 27.5559C121.217 26.8699 119.996 26.1865 119.503 25.0675L119.502 25.0662C119.302 24.6122 119.23 24.1626 119.063 22.0234L119.062 22.0193L119.062 22.0151C118.98 20.9997 118.945 19.7772 119.066 17.7803L119.069 17.7375L119.069 17.7374C119.167 16.1211 119.235 14.9924 119.323 14.1244C119.413 13.2437 119.507 12.8189 119.591 12.5729L119.593 12.5681L119.595 12.5633C119.594 12.5654 119.594 12.5649 119.595 12.5618C119.615 12.5064 119.945 11.6055 120.672 10.5492C121.443 9.42939 122.541 8.30789 124.019 7.69242L124.021 7.69186C124.021 7.69194 124.021 7.69179 124.022 7.69145C124.035 7.68687 124.152 7.64644 124.444 7.59814C124.761 7.54557 125.198 7.49739 125.804 7.45507C127.027 7.36953 128.694 7.32291 131.047 7.25924L131.049 7.25918L131.051 7.25913C133.538 7.18848 135.237 7.22696 136.27 7.2588C139.538 7.36708 140.83 7.42856 142.357 7.82549C144.313 8.33677 145.173 8.60078 145.946 9.23488L145.949 9.23722L145.952 9.23955C147.1 10.1767 147.9 11.889 148.131 13.69C148.222 14.4014 148.208 15.0149 148.139 15.4733C147.597 15.4378 146.85 15.3953 145.9 15.369L145.899 15.369C144.37 15.3273 143.131 15.3482 142.36 15.369L142.523 21.1716C143.224 21.1527 144.347 21.1338 145.734 21.1716C146.825 21.2017 147.507 21.2489 148.054 21.2867L148.054 21.2867L148.055 21.2867C148.265 21.3012 148.455 21.3144 148.641 21.3247C149.272 21.3596 150.316 21.4094 151.421 20.7401L151.425 20.7378L151.429 20.7356C152.943 19.8124 153.576 18.2222 153.849 17.064C154.148 15.7911 154.179 14.3617 154 12.9646C153.649 10.23 152.393 6.94831 149.736 4.7783C147.88 3.25707 145.807 2.71774 144.106 2.27504L143.878 2.21582L143.876 2.21533L143.875 2.21484C141.617 1.62756 139.653 1.56261 136.606 1.46178L136.462 1.45703L136.459 1.45692ZM147.966 16.1137C147.965 16.1132 147.969 16.1063 147.977 16.0941C147.97 16.108 147.966 16.1141 147.966 16.1137ZM129.404 58.7734C130.518 58.8078 132.342 58.8486 134.981 58.7737C137.279 58.7115 139.098 58.6621 140.48 58.5655C141.774 58.475 143.087 58.3263 144.154 57.8819L144.155 57.8815C147.037 56.6816 148.936 54.6102 150.092 52.9312C151.244 51.258 151.778 49.8029 151.878 49.5086C152.178 48.636 152.323 47.6941 152.426 46.6816C152.526 45.6964 152.601 44.4669 152.693 42.9521L152.702 42.7951C152.837 40.5676 152.805 39.0746 152.698 37.7592L152.678 37.4923C152.545 35.7755 152.432 34.3143 151.789 32.8574L151.788 32.8561C150.316 29.5177 147.058 28.0581 145.668 27.4356L145.58 27.3958C141.63 25.6223 134.228 22.4749 124.504 18.7217L122.339 24.1237C131.976 27.8434 139.278 30.95 143.119 32.6744C144.646 33.3605 145.867 34.0438 146.36 35.1628L146.361 35.1641C146.561 35.6182 146.634 36.0677 146.801 38.2069L146.801 38.2111L146.801 38.2152C146.884 39.2307 146.919 40.4532 146.797 42.45L146.795 42.4929L146.795 42.4935C146.697 44.1095 146.628 45.238 146.54 46.106C146.451 46.9867 146.357 47.4114 146.272 47.6574L146.271 47.6623L146.269 47.6671C146.27 47.665 146.269 47.6655 146.268 47.6685C146.248 47.7239 145.919 48.6248 145.191 49.6811C144.42 50.801 143.323 51.9225 141.844 52.5379L141.842 52.5389C141.843 52.5383 141.843 52.5383 141.841 52.5389C141.828 52.5435 141.711 52.5839 141.42 52.6322C141.102 52.6848 140.665 52.7329 140.06 52.7753C138.836 52.8608 137.169 52.9074 134.816 52.9711L134.814 52.9712L134.812 52.9712C132.325 53.0419 130.626 53.0034 129.594 52.9715C126.325 52.8633 125.033 52.8018 123.506 52.4049C121.551 51.8936 120.691 51.6296 119.918 50.9955L119.915 50.9931L119.912 50.9908C118.764 50.0537 117.964 48.3414 117.733 46.5403C117.641 45.8289 117.655 45.2155 117.724 44.7571C118.267 44.7925 119.013 44.8351 119.963 44.8613L119.964 44.8613C121.493 44.903 122.732 44.8822 123.503 44.8614L123.34 39.0587C122.639 39.0776 121.516 39.0965 120.129 39.0587C119.038 39.0286 118.356 38.9815 117.809 38.9437C117.599 38.9291 117.409 38.916 117.223 38.9057C116.591 38.8708 115.547 38.8209 114.442 39.4902L114.438 39.4925L114.435 39.4947C112.921 40.4179 112.287 42.0081 112.015 43.1664C111.715 44.4393 111.684 45.8686 111.864 47.2658C112.215 50.0003 113.47 53.282 116.127 55.452C117.984 56.9733 120.056 57.5126 121.758 57.9553L121.985 58.0145L121.987 58.015L121.989 58.0155C124.247 58.6028 126.21 58.6677 129.257 58.7686L129.401 58.7733L129.404 58.7734ZM117.898 44.1167C117.898 44.1171 117.895 44.124 117.887 44.1362C117.893 44.1223 117.897 44.1162 117.898 44.1167Z" fill="#0E0E0E"/>
<path fill-rule="evenodd" clip-rule="evenodd" d="M161.663 6.92302V1.11816H185.648V6.92302H181.903V52.7869L185.685 52.8329L185.612 58.6373L161.626 58.3458L161.663 52.5412H165.814V11.3479H171.729V52.6633L175.987 52.715V6.92302H161.663Z" fill="#0E0E0E"/>
<path fill-rule="evenodd" clip-rule="evenodd" d="M216.351 52.8122V28.3631L241.071 4.10465L236.888 0L216.351 20.1538V7.6047H220.462V1.79984H196.085V7.6047H210.436V52.8122H206.603V11.9899H200.688V52.8122H196.085V58.617H220.462V52.8122H216.351ZM223.507 27.2002L239.709 59L245 56.404L228.798 24.6042L223.507 27.2002Z" fill="#0E0E0E"/>
<path fill-rule="evenodd" clip-rule="evenodd" d="M84.4988 4.40871C84.1455 3.71733 83.3662 2.65114 81.887 2.34654C81.1521 2.19256 80.5038 2.32476 80.5914 2.31249L80.5683 2.31572L80.5452 2.31932C79.2751 2.5175 75.0924 2.63955 64.2309 2.28492L64.0342 8.08656C71.975 8.34583 76.6836 8.36906 79.376 8.23744C79.4344 8.99539 79.4586 9.99277 79.4562 11.2521C79.4542 12.327 79.4324 13.5674 79.4085 14.9304C79.3563 17.9003 79.2939 21.4525 79.4034 25.1434L81.887 2.34654L79.4035 25.1451C79.5277 29.416 79.4563 33.6979 79.3837 38.0564L79.3837 38.0565L79.3748 38.5945C79.2998 43.1143 79.2322 47.7141 79.4041 52.325L79.4042 52.3291L79.4043 52.3322C79.4095 52.4836 79.4148 52.6371 79.415 52.8023C79.1198 52.641 78.8386 52.4599 78.607 52.2988C78.3631 52.1291 78.2066 52.0041 78.1875 51.9889C78.1854 51.9872 78.185 51.9868 78.1863 51.988L78.1831 51.9853L78.1799 51.9826C76.9487 50.9737 76.3857 49.7104 75.6717 47.8751L75.6715 47.8746C74.7895 45.609 74.5503 43.7363 74.4967 43.279L74.4965 43.277L74.4962 43.2749C74.0135 39.2046 73.8986 28.1826 74.5136 13.2529L68.6033 13.0184C67.9898 27.9118 68.0773 39.3603 68.6205 43.9437C68.7023 44.6414 69.017 47.0465 70.1456 49.9457L70.1459 49.9463L70.1584 49.9786C70.8612 51.785 71.8669 54.3702 74.385 56.4354C74.552 56.5728 75.5589 57.3783 76.8385 58.0334C77.4794 58.3614 78.327 58.7244 79.2629 58.8948C80.189 59.0634 81.5199 59.0964 82.7901 58.3514L82.7934 58.3495L82.7967 58.3476C84.5591 57.3079 85.0342 55.4735 85.1931 54.5539C85.3668 53.5485 85.332 52.5801 85.3176 52.1777V52.1777L85.3157 52.1246L85.3155 52.1207L85.3154 52.1167C85.1499 47.6793 85.2139 43.2242 85.2891 38.689L85.2988 38.1085V38.1084C85.3709 33.7835 85.4443 29.383 85.3162 24.9778L85.3161 24.9761C85.2103 21.4121 85.2686 18.1385 85.3203 15.2348V15.2347C85.3454 13.8199 85.3691 12.4929 85.3714 11.2629C85.3747 9.47397 85.3327 7.79601 85.1262 6.49944C85.0252 5.86574 84.8538 5.1032 84.4988 4.40871ZM80.3676 53.1915C80.3739 53.1923 80.377 53.1926 80.3769 53.1925C80.3769 53.1924 80.3759 53.1922 80.3739 53.192C80.3723 53.1919 80.3702 53.1917 80.3676 53.1915ZM106.684 41.1119V3.38035H100.769V41.1119C100.769 46.2981 99.2976 49.1335 97.0422 51.0416C96.0879 51.8489 94.4355 52.4963 92.4366 52.8439C90.4712 53.1856 88.6129 53.1613 87.5634 52.9752L86.5115 58.6875C88.3843 59.0197 90.9625 58.9954 93.4685 58.5597C95.9413 58.1298 98.7956 57.2223 100.904 55.4382C104.775 52.1634 106.684 47.5354 106.684 41.1119Z" fill="#0E0E0E"/>
<path d="M19.019 95.4914V78.7296H24.8098V95.4914C24.8098 98.3899 24.3596 100.647 23.4592 102.263C21.7818 105.223 18.5811 106.703 13.8572 106.703C9.13332 106.703 5.92648 105.223 4.23672 102.263C3.33634 100.647 2.88615 98.3899 2.88615 95.4914V78.7296H8.67696V95.4914C8.67696 97.3662 8.89897 98.7353 9.34299 99.5987C10.0337 101.128 11.5384 101.893 13.8572 101.893C16.1637 101.893 17.6623 101.128 18.353 99.5987C18.797 98.7353 19.019 97.3662 19.019 95.4914ZM52.3208 106H46.6225L35.4849 86.6295V106H30.1751V78.7296H36.1509L47.011 97.7671V78.7296H52.3208V106ZM69.3972 106H57.649V78.7296H69.3972C71.0869 78.7542 72.493 78.9516 73.6154 79.3216C75.5272 79.9506 77.0751 81.1039 78.2591 82.7813C79.2088 84.138 79.8564 85.6058 80.2017 87.1845C80.5471 88.7633 80.7198 90.268 80.7198 91.6987C80.7198 95.3249 79.9921 98.3961 78.5366 100.912C76.5632 104.304 73.5167 106 69.3972 106ZM73.6339 85.6859C72.7582 84.2058 71.0252 83.4658 68.4351 83.4658H63.1808V101.264H68.4351C71.1239 101.264 72.9987 99.9378 74.0594 97.286C74.6391 95.8306 74.929 94.0977 74.929 92.0873C74.929 89.3121 74.4973 87.1783 73.6339 85.6859ZM104.012 94.0854H90.7658V101.097H105.863V106H85.197V78.7296H105.197V83.5583H90.7658V89.3491H104.012V94.0854ZM121.884 95.3064H116.001V106H110.432V78.7296H123.809C125.72 78.7666 127.188 79.0009 128.212 79.4326C129.248 79.8643 130.124 80.4995 130.839 81.3382C131.431 82.0289 131.9 82.7936 132.245 83.6323C132.59 84.471 132.763 85.4269 132.763 86.5C132.763 87.795 132.436 89.0716 131.782 90.3297C131.129 91.5754 130.05 92.4573 128.545 92.9753C129.803 93.481 130.691 94.2025 131.209 95.1399C131.739 96.065 132.004 97.4834 132.004 99.3952V101.227C132.004 102.472 132.054 103.317 132.152 103.761C132.3 104.464 132.646 104.982 133.189 105.315V106H126.917C126.744 105.396 126.621 104.908 126.547 104.538C126.399 103.774 126.319 102.991 126.306 102.189L126.269 99.6542C126.244 97.9151 125.924 96.7557 125.307 96.176C124.703 95.5963 123.562 95.3064 121.884 95.3064ZM125.344 90.3482C126.479 89.8301 127.046 88.8064 127.046 87.277C127.046 85.6243 126.497 84.5142 125.4 83.9468C124.783 83.6262 123.858 83.4658 122.624 83.4658H116.001V90.7922H122.458C123.741 90.7922 124.703 90.6442 125.344 90.3482ZM160.681 106H148.322V78.7296H161.569C164.912 78.7789 167.28 79.7471 168.673 81.6342C169.512 82.7936 169.931 84.1812 169.931 85.7969C169.931 87.462 169.512 88.8003 168.673 89.8116C168.205 90.379 167.514 90.897 166.601 91.3657C167.995 91.8714 169.043 92.6731 169.746 93.7709C170.462 94.8686 170.82 96.2006 170.82 97.7671C170.82 99.3828 170.412 100.832 169.598 102.115C169.08 102.966 168.433 103.681 167.656 104.261C166.78 104.927 165.744 105.383 164.548 105.63C163.364 105.877 162.075 106 160.681 106ZM160.551 93.9929H153.762V101.264H160.459C161.655 101.264 162.587 101.103 163.253 100.783C164.461 100.191 165.066 99.056 165.066 97.3785C165.066 95.9601 164.48 94.9858 163.308 94.4554C162.654 94.1594 161.736 94.0052 160.551 93.9929ZM163.382 88.7941C164.122 88.3501 164.492 87.5545 164.492 86.4075C164.492 85.1371 163.999 84.2984 163.012 83.8913C162.161 83.6077 161.076 83.4658 159.756 83.4658H153.762V89.4786H160.459C161.655 89.4786 162.63 89.2504 163.382 88.7941ZM187.193 95.3064H181.31V106H175.741V78.7296H189.117C191.029 78.7666 192.496 79.0009 193.52 79.4326C194.556 79.8643 195.432 80.4995 196.147 81.3382C196.739 82.0289 197.208 82.7936 197.553 83.6323C197.899 84.471 198.071 85.4269 198.071 86.5C198.071 87.795 197.745 89.0716 197.091 90.3297C196.437 91.5754 195.358 92.4573 193.853 92.9753C195.111 93.481 195.999 94.2025 196.517 95.1399C197.048 96.065 197.313 97.4834 197.313 99.3952V101.227C197.313 102.472 197.362 103.317 197.461 103.761C197.609 104.464 197.954 104.982 198.497 105.315V106H192.225C192.052 105.396 191.929 104.908 191.855 104.538C191.707 103.774 191.627 102.991 191.615 102.189L191.578 99.6542C191.553 97.9151 191.232 96.7557 190.616 96.176C190.011 95.5963 188.87 95.3064 187.193 95.3064ZM190.653 90.3482C191.787 89.8301 192.355 88.8064 192.355 87.277C192.355 85.6243 191.806 84.5142 190.708 83.9468C190.091 83.6262 189.166 83.4658 187.933 83.4658H181.31V90.7922H187.766C189.049 90.7922 190.011 90.6442 190.653 90.3482ZM215.055 106.759C211.158 106.759 208.179 105.698 206.119 103.576C203.357 100.974 201.975 97.2244 201.975 92.3278C201.975 87.3325 203.357 83.583 206.119 81.0792C208.179 78.9577 211.158 77.897 215.055 77.897C218.953 77.897 221.932 78.9577 223.991 81.0792C226.742 83.583 228.117 87.3325 228.117 92.3278C228.117 97.2244 226.742 100.974 223.991 103.576C221.932 105.698 218.953 106.759 215.055 106.759ZM220.439 99.4322C221.759 97.7671 222.419 95.3989 222.419 92.3278C222.419 89.269 221.753 86.907 220.421 85.2419C219.101 83.5645 217.312 82.7258 215.055 82.7258C212.798 82.7258 210.997 83.5583 209.653 85.2234C208.309 86.8885 207.636 89.2566 207.636 92.3278C207.636 95.3989 208.309 97.7671 209.653 99.4322C210.997 101.097 212.798 101.93 215.055 101.93C217.312 101.93 219.107 101.097 220.439 99.4322ZM251.465 94.0854H238.219V101.097H253.315V106H232.65V78.7296H252.649V83.5583H238.219V89.3491H251.465V94.0854ZM279.809 106H274.11L262.973 86.6295V106H257.663V78.7296H263.639L274.499 97.7671V78.7296H279.809V106Z" fill="#0E0E0E"/>
</svg>
