<svg width="88" height="47" viewBox="0 0 88 47" fill="none" xmlns="http://www.w3.org/2000/svg">
<path d="M2 46C2.23794 41.1192 3.52498 29.7799 12.0944 19.19C14.7226 15.9419 25.7796 2.27562 43.8197 2.00409C57.5337 1.79786 67.073 9.45589 69.7768 11.6282C78.4472 18.5919 81.7675 26.9924 83.0582 30.3849C85.4592 36.6921 85.9639 42.2844 86 46" stroke="#0E0E0E" stroke-width="3" stroke-miterlimit="10"/>
<path d="M15.4075 21.7799H19.3272L25.1383 42.552L30.9052 21.7799H34.8008V46.3492H32.189V31.8503C32.189 31.3463 32.197 30.5194 32.2171 29.3596C32.2373 28.1999 32.2453 26.957 32.2453 25.6309L26.4784 46.3541H23.766L17.9428 25.6309V26.3845C17.9428 26.9864 17.9549 27.9063 17.983 29.1345C18.0112 30.3628 18.0233 31.2729 18.0233 31.8503V46.3492H15.4115V21.7799H15.4075Z" fill="#0E0E0E"/>
<path d="M42.8333 21.7799V36.9687C42.8333 38.7548 43.111 40.2374 43.6664 41.4167C44.4873 43.2028 45.8757 44.0934 47.8275 44.0934C50.1657 44.0934 51.7553 43.1294 52.5964 41.2014C53.0471 40.1543 53.2765 38.745 53.2765 36.9687V21.7799H56.0412V35.579C56.0412 38.6031 55.7072 40.9274 55.0351 42.552C53.8037 45.5173 51.4736 47 48.0529 47C44.6322 47 42.3061 45.5173 41.0827 42.552C40.4107 40.9225 40.0767 38.5982 40.0767 35.579V21.7799H42.8414H42.8333Z" fill="#0E0E0E"/>
<path d="M61.3171 21.7799H70.054C72.4364 21.7799 74.1306 22.6362 75.1367 24.3538C75.7283 25.3667 76.0221 26.5411 76.0221 27.8672C76.0221 29.4184 75.6599 30.6906 74.9355 31.6791C74.5612 32.2026 74.018 32.6822 73.3137 33.1177C74.348 33.5972 75.1247 34.1355 75.6398 34.7423C76.5493 35.8139 77 37.2917 77 39.1756C77 40.761 76.5895 42.1899 75.7685 43.4719C74.5411 45.3901 72.5893 46.3492 69.9131 46.3492H61.3171V21.7799ZM69.0318 32.1684C70.1989 32.1684 71.1084 31.9727 71.7563 31.5812C72.7744 30.9695 73.2855 29.8636 73.2855 28.2684C73.2855 26.6732 72.7422 25.582 71.6597 25.0242C71.048 24.711 70.1385 24.5544 68.9352 24.5544H64.0014V32.1635H69.0318V32.1684ZM69.9574 43.5062C71.6516 43.5062 72.8589 42.9141 73.5833 41.7348C74.0381 40.9861 74.2634 40.0858 74.2634 39.0239C74.2634 37.2379 73.5994 36.0243 72.2794 35.3784C71.5752 35.031 70.6456 34.8597 69.4865 34.8597H64.0014V43.5062H69.9574Z" fill="#0E0E0E"/>
</svg>
