<svg width="98" height="98" viewBox="0 0 98 98" fill="none" xmlns="http://www.w3.org/2000/svg">
<path d="M88.6857 25.6392V30.4167C88.6857 34.4184 87.0932 37.8484 84.2757 39.8492C82.5199 41.1559 80.3557 41.7684 78.1099 41.7684C76.7215 41.7684 75.3332 41.5642 73.904 41.0742L51.9357 33.7651V73.4959C51.9357 84.1942 43.2382 92.8917 32.5399 92.8917C21.8415 92.8917 13.144 84.1942 13.144 73.4959C13.144 62.7976 21.8415 54.1001 32.5399 54.1001C37.6849 54.1001 42.3399 56.1417 45.8107 59.4084V16.3292C45.8107 12.3684 47.444 8.93839 50.2615 6.89673C53.079 4.89589 56.8357 4.44673 60.5924 5.67173L78.6407 11.7151C84.194 13.5526 88.6857 19.8001 88.6857 25.6392Z" fill="#110CFF"/>
</svg>
