<svg width="850" height="320" viewBox="0 0 850 320" fill="none" xmlns="http://www.w3.org/2000/svg">
<path d="M512.676 25.4345V144.478H489H542.584L541.803 5.59961H489" stroke="#FF5B22" stroke-width="10" stroke-miterlimit="10"/>
<path d="M558.554 144.425C561.488 145.432 574.871 149.678 589.938 144.425C591.43 143.897 607.33 138.132 612.954 124.59C614.291 121.384 614.534 117.052 615.055 108.371C615.471 101.157 615.194 97.8653 615.055 86.7285C615.003 82.6865 614.881 73.8008 615.055 63.295C615.142 58.3832 615.107 52.2093 615.055 39.8616C615.02 33.5512 614.968 29.9697 612.954 25.4331C612.33 24.0346 609.986 19.0716 604.588 14.6203C596.308 7.78125 586.258 6.62152 577.388 5.59822C565.185 4.18267 554.371 5.47884 546.004 7.40605" stroke="#FF5B22" stroke-width="10" stroke-miterlimit="10"/>
<path d="M589.598 292.855V175.488H613.274H559.69L560.471 312.41H613.274" stroke="#110CFF" stroke-width="10" stroke-miterlimit="10"/>
<path d="M543.72 175.538C540.787 174.546 527.404 170.36 512.337 175.538C510.844 176.06 494.944 181.743 489.32 195.094C487.983 198.255 487.74 202.526 487.22 211.085C486.803 218.197 487.081 221.443 487.22 232.423C487.272 236.408 487.393 245.168 487.22 255.526C487.133 260.369 487.168 266.456 487.22 278.629C487.254 284.851 487.306 288.382 489.32 292.855C489.945 294.233 492.288 299.127 497.687 303.515C505.966 310.258 516.017 311.401 524.887 312.41C537.09 313.806 547.904 312.528 556.27 310.628" stroke="#110CFF" stroke-width="10" stroke-miterlimit="10"/>
<path d="M435.875 69.7832H470.373" stroke="#FF5B22" stroke-width="10" stroke-miterlimit="10"/>
<path d="M396.875 23.9414V144.999L379 144.962L478.157 144.999V126.571" stroke="#FF5B22" stroke-width="10" stroke-miterlimit="10"/>
<path d="M379 5H478.157V23.9416" stroke="#FF5B22" stroke-width="10" stroke-miterlimit="10"/>
<path d="M419.624 11.1055V141.056" stroke="#FF5B22" stroke-width="10" stroke-miterlimit="10"/>
<path d="M427.282 250.217H392.784" stroke="#110CFF" stroke-width="10" stroke-miterlimit="10"/>
<path d="M466.282 296.059V175.001L484.157 175.038L385 175.001V193.429" stroke="#110CFF" stroke-width="10" stroke-miterlimit="10"/>
<path d="M484.157 315H385V296.058" stroke="#110CFF" stroke-width="10" stroke-miterlimit="10"/>
<path d="M443.532 308.895V178.944" stroke="#110CFF" stroke-width="10" stroke-miterlimit="10"/>
<path d="M679.875 69.7832H714.373" stroke="#FF5B22" stroke-width="10" stroke-miterlimit="10"/>
<path d="M640.875 23.9414V144.999L623 144.962L722.157 144.999V126.571" stroke="#FF5B22" stroke-width="10" stroke-miterlimit="10"/>
<path d="M623 5H722.157V23.9416" stroke="#FF5B22" stroke-width="10" stroke-miterlimit="10"/>
<path d="M663.624 11.1055V141.056" stroke="#FF5B22" stroke-width="10" stroke-miterlimit="10"/>
<path d="M665.282 250.217H630.783" stroke="#110CFF" stroke-width="10" stroke-miterlimit="10"/>
<path d="M704.282 296.059V175.001L722.157 175.038L623 175.001V193.429" stroke="#110CFF" stroke-width="10" stroke-miterlimit="10"/>
<path d="M722.157 315H623V296.058" stroke="#110CFF" stroke-width="10" stroke-miterlimit="10"/>
<path d="M681.532 308.895V178.944" stroke="#110CFF" stroke-width="10" stroke-miterlimit="10"/>
<path d="M336.615 5.51562H371.674" stroke="#FF5B22" stroke-width="10" stroke-miterlimit="10"/>
<path d="M355.251 25.2656V145H371.674H336.146" stroke="#FF5B22" stroke-width="10" stroke-miterlimit="10"/>
<path d="M312.684 68.1543H350.626" stroke="#FF5B22" stroke-width="10" stroke-miterlimit="10"/>
<path d="M272.095 25.2648V145H254H277.256H296.881V5H254.465" stroke="#FF5B22" stroke-width="10" stroke-miterlimit="10"/>
<path d="M287.059 314.484H252" stroke="#110CFF" stroke-width="10" stroke-miterlimit="10"/>
<path d="M268.423 294.734V175H252H287.528" stroke="#110CFF" stroke-width="10" stroke-miterlimit="10"/>
<path d="M310.99 251.846H273.048" stroke="#110CFF" stroke-width="10" stroke-miterlimit="10"/>
<path d="M351.579 294.735V175H369.674H346.418H326.793V315H369.209" stroke="#110CFF" stroke-width="10" stroke-miterlimit="10"/>
<path d="M2 5H33.7259L107.278 104.355V145L16.5504 24.871L17.8142 145H2H15.0234H38.2457" stroke="#FF5B22" stroke-width="10" stroke-miterlimit="10"/>
<path d="M86.9557 5H123.862" stroke="#FF5B22" stroke-width="10" stroke-miterlimit="10"/>
<path d="M105.4 10.1836V74.5475" stroke="#FF5B22" stroke-width="10" stroke-miterlimit="10"/>
<path d="M121.862 315H90.1362L16.5844 215.645V175L107.312 295.129L106.048 175H121.862H108.839H85.6164" stroke="#110CFF" stroke-width="10" stroke-miterlimit="10"/>
<path d="M36.9064 315H9.21922e-05" stroke="#110CFF" stroke-width="10" stroke-miterlimit="10"/>
<path d="M18.4617 309.816L18.4617 245.453" stroke="#110CFF" stroke-width="10" stroke-miterlimit="10"/>
<path d="M788.06 66.5536C790.835 67.5298 798.444 69.7437 807.2 66.5536C821.045 61.4981 825.814 47.2732 826.341 45.6346C827.106 43.2289 830.998 30.9738 824.746 19.4858C818.844 8.62538 808.062 6.1151 805.605 5.53982C801.985 4.70306 797.869 4.98198 789.655 5.53982C783.036 5.99307 777.549 6.7078 773.705 7.28307" stroke="#FF5B22" stroke-width="10" stroke-miterlimit="10"/>
<path d="M749.905 23.1992V144.999H733H760.3H787.6" stroke="#FF5B22" stroke-width="10" stroke-miterlimit="10"/>
<path d="M733 5H772.2V140.8" stroke="#FF5B22" stroke-width="10" stroke-miterlimit="10"/>
<path d="M845 153L806 71" stroke="#FF5B22" stroke-width="10" stroke-miterlimit="10"/>
<path d="M788.94 253.446C786.165 252.47 778.556 250.256 769.8 253.446C755.955 258.502 751.186 272.727 750.659 274.365C749.894 276.771 746.002 289.026 752.254 300.514C758.156 311.375 768.938 313.885 771.395 314.46C775.015 315.297 779.131 315.018 787.345 314.46C793.964 314.007 799.451 313.292 803.295 312.717" stroke="#110CFF" stroke-width="10" stroke-miterlimit="10"/>
<path d="M827.095 296.801V175.001H844H816.7H789.4" stroke="#110CFF" stroke-width="10" stroke-miterlimit="10"/>
<path d="M844 315H804.8V179.2" stroke="#110CFF" stroke-width="10" stroke-miterlimit="10"/>
<path d="M732 167L771 249" stroke="#110CFF" stroke-width="10" stroke-miterlimit="10"/>
<path d="M130 5H164.884L208.279 93.179V145H223.76L166.394 144.84" stroke="#FF5B22" stroke-width="10" stroke-miterlimit="10"/>
<path d="M147.965 25.4863L184.824 100.305V140.244" stroke="#FF5B22" stroke-width="10" stroke-miterlimit="10"/>
<path d="M212.792 5H230.932H248.141" stroke="#FF5B22" stroke-width="10" stroke-miterlimit="10"/>
<path d="M232.573 5L206.604 57.5514" stroke="#FF5B22" stroke-width="10" stroke-miterlimit="10"/>
<path d="M249.141 315H214.257L170.862 226.821V175H155.381L212.747 175.16" stroke="#110CFF" stroke-width="10" stroke-miterlimit="10"/>
<path d="M231.177 294.514L194.318 219.695V179.756" stroke="#110CFF" stroke-width="10" stroke-miterlimit="10"/>
<path d="M166.349 315H148.21H131" stroke="#110CFF" stroke-width="10" stroke-miterlimit="10"/>
<path d="M146.569 315L172.538 262.449" stroke="#110CFF" stroke-width="10" stroke-miterlimit="10"/>
</svg>
