<svg width="894" height="322" viewBox="0 0 894 322" fill="none" xmlns="http://www.w3.org/2000/svg">
<path d="M259.608 6H312.092L355.528 145.997H330.462H312.545" stroke="#FF5B22" stroke-width="10" stroke-miterlimit="10"/>
<path d="M290.377 26.0703L330.464 146" stroke="#FF5B22" stroke-width="10" stroke-miterlimit="10"/>
<path d="M279.299 6L252.569 145.997H234H272.766" stroke="#FF5B22" stroke-width="10" stroke-miterlimit="10"/>
<path d="M262.161 95.7334H296.222" stroke="#FF5B22" stroke-width="10" stroke-miterlimit="10"/>
<path d="M446.546 253.12H482.5" stroke="#110CFF" stroke-width="10" stroke-miterlimit="10"/>
<path d="M541.99 316H439V295.662" stroke="#110CFF" stroke-width="10" stroke-miterlimit="10"/>
<path d="M524.664 295.662L524.8 176H542.514H481.35" stroke="#110CFF" stroke-width="10" stroke-miterlimit="10"/>
<path d="M501.112 314.099V181.38" stroke="#110CFF" stroke-width="10" stroke-miterlimit="10"/>
<path d="M619.916 25.8516V146H600H667.2" stroke="#FF5B22" stroke-width="10" stroke-miterlimit="10"/>
<path d="M600 6H648.419H667.2" stroke="#FF5B22" stroke-width="10" stroke-miterlimit="10"/>
<path d="M648.419 6V139.885" stroke="#FF5B22" stroke-width="10" stroke-miterlimit="10"/>
<path d="M264.284 297.148V177H284.2H217" stroke="#110CFF" stroke-width="10" stroke-miterlimit="10"/>
<path d="M284.2 317H235.781H217" stroke="#110CFF" stroke-width="10" stroke-miterlimit="10"/>
<path d="M235.781 317L235.781 183.115" stroke="#110CFF" stroke-width="10" stroke-miterlimit="10"/>
<path d="M784 10H823.305H839.355" stroke="#FF5B22" stroke-width="10" stroke-miterlimit="10"/>
<path d="M801.169 38.3496V145.879H784H797.342H811.101H839.036" stroke="#FF5B22" stroke-width="10" stroke-miterlimit="10"/>
<path d="M823.417 10L823.305 142.862" stroke="#FF5B22" stroke-width="10" stroke-miterlimit="10"/>
<path d="M881.404 14.0781L823.918 74.7576" stroke="#FF5B22" stroke-width="10" stroke-miterlimit="10"/>
<path d="M852.278 72.3301L889.069 150" stroke="#FF5B22" stroke-width="10" stroke-miterlimit="10"/>
<path d="M369 10H408.305H424.355" stroke="#FF5B22" stroke-width="10" stroke-miterlimit="10"/>
<path d="M386.169 38.3496V145.879H369H382.342H396.101H424.036" stroke="#FF5B22" stroke-width="10" stroke-miterlimit="10"/>
<path d="M408.417 10L408.305 142.862" stroke="#FF5B22" stroke-width="10" stroke-miterlimit="10"/>
<path d="M466.404 14.0781L408.918 74.7576" stroke="#FF5B22" stroke-width="10" stroke-miterlimit="10"/>
<path d="M437.278 72.3301L474.069 150" stroke="#FF5B22" stroke-width="10" stroke-miterlimit="10"/>
<path d="M423.862 316H392.136L318.584 216.645V176L409.312 296.129L408.048 176H423.862H410.839H387.616" stroke="#110CFF" stroke-width="10" stroke-miterlimit="10"/>
<path d="M338.906 316H302" stroke="#110CFF" stroke-width="10" stroke-miterlimit="10"/>
<path d="M320.462 310.815V246.452" stroke="#110CFF" stroke-width="10" stroke-miterlimit="10"/>
<path d="M633.983 292.666L634.333 179.909" stroke="#110CFF" stroke-width="10" stroke-miterlimit="10"/>
<path d="M618.073 315.984H604.44C604.44 315.984 596.98 315.877 590.806 314.194C589.326 313.783 584.788 312.512 580.64 309.487C577.426 307.142 574.037 303.456 571.33 296.296C567.921 287.294 569.207 282.604 569.382 256.921C569.421 250.961 569.382 244.983 569.382 239.023V219.335C569.46 208.686 569.538 201.079 573.277 194.278C577.27 187.029 582.829 182.611 585.77 181C593.892 176.543 597.103 176 606.584 176C617.369 176 637.448 176 642.186 176C648.758 176 656.427 183 656.427 183C656.427 183 662.451 187.5 663.547 197.5C664.643 207.5 664.642 212.5 664.642 219.5C664.642 227.5 664.857 225.259 664.642 239.023C664.487 248.849 664.584 257.42 664.643 261C664.74 267.998 664.954 275.492 664.642 287C664.467 293.479 664.236 297.737 660.808 303.5C658.569 307.259 655.955 309.409 655.331 310C653.403 311.79 651.305 312.673 647.663 314.194C646.65 314.606 642.189 315.805 638.352 315.984C637.631 316.02 638.465 315.984 635.602 315.984C633.109 315.984 631.084 315.984 629.759 315.984" stroke="#110CFF" stroke-width="10" stroke-miterlimit="10"/>
<path d="M17.7104 25.6826V145H0H58.5306" stroke="#FF5B22" stroke-width="10" stroke-miterlimit="10"/>
<path d="M0 5H41.2854V138.344C40.9697 138.398 41.2854 143.604 41.2854 143.604" stroke="#FF5B22" stroke-width="10" stroke-miterlimit="10"/>
<path d="M59.245 68.6206C62.1358 69.6226 70.0606 71.8947 79.1816 68.6206C93.6024 63.4322 98.57 48.8328 99.1182 47.151C99.9157 44.682 103.969 32.1044 97.4568 20.3141C91.3097 9.16775 80.0788 6.5914 77.5202 6.00099C73.7489 5.14221 69.4625 5.42847 60.9064 6.00099C54.0116 6.46616 48.2965 7.19971 44.2925 7.79012" stroke="#FF5B22" stroke-width="10" stroke-miterlimit="10"/>
<path d="M167.06 66.5545C169.835 67.5308 177.444 69.7447 186.2 66.5545C200.045 61.4991 204.814 47.2742 205.341 45.6355C206.106 43.2299 209.998 30.9748 203.746 19.4868C197.844 8.62635 187.062 6.11607 184.605 5.5408C180.985 4.70404 176.869 4.98296 168.655 5.5408C162.036 5.99404 156.549 6.70878 152.705 7.28405" stroke="#FF5B22" stroke-width="10" stroke-miterlimit="10"/>
<path d="M128.905 23.2002V145H112H139.3H166.6" stroke="#FF5B22" stroke-width="10" stroke-miterlimit="10"/>
<path d="M112 5H151.2V140.8" stroke="#FF5B22" stroke-width="10" stroke-miterlimit="10"/>
<path d="M224 153L185 71" stroke="#FF5B22" stroke-width="10" stroke-miterlimit="10"/>
<path d="M748.696 44.6798C750.563 44.6798 753.831 44.6798 757.1 44.6798C764.57 44.6798 765.002 45.0731 766.267 44.1653C771.092 40.6796 770.389 21.8169 761.583 13.3024C758.444 10.2524 757.327 9.15069 753.365 7.32863C750.563 6.04049 745.427 6.04006 735.038 6.04049C732.555 5.94972 729.086 6.03991 722.55 6.04006C711.811 5.92796 706.417 6.56698 703.809 7.85596C693.722 12.8303 689.943 25.3571 689.756 26.0106C688.866 29.0788 688.647 33.5085 688.194 42.3499C687.898 48.1412 687.976 51.8629 688.194 55.0581C688.553 60.5046 688.741 63.2278 689.756 65.951C692.067 72.1599 697.376 75.0828 700.686 76.8438C709.696 81.6366 726.7 90.2056 749.091 100.445" stroke="#FF5B22" stroke-width="10" stroke-miterlimit="10"/>
<path d="M711.456 107.241C708.655 107.241 704.19 107.241 702.585 107.241C699.784 107.241 698.038 107.244 696.049 107.244C693.344 107.244 692.721 108.38 691.847 109.578C690.913 111.913 691.268 111.913 691.268 117.048C691.268 120.784 691.268 120.784 691.268 124.986C691.268 128.254 690.447 134.01 694.07 138.222C698.66 143.541 706.676 145.996 714.613 145.996C715.973 145.996 717.993 145.996 731.532 145.996C741.004 145.996 746.287 146.156 750.675 144.595C756.218 142.634 759.867 139.148 760.835 138.222C763.169 135.989 764.89 134.144 766.904 129.351C768.872 124.649 770.391 117.843 770.173 106.006C769.829 86.7986 768.435 86.1968 766.904 83.1287C764.812 78.9531 759.901 76.5922 752.431 72.8571C741.692 68.1882 744.048 68.9719 731.888 63.5193C724.658 59.961 721.149 58.2203 711.344 52.6176C704.341 48.6157 703.407 47.9487 699.205 45.6143" stroke="#FF5B22" stroke-width="10" stroke-miterlimit="10"/>
<path d="M475 6H585.133V24.7635" stroke="#FF5B22" stroke-width="10" stroke-miterlimit="10"/>
<path d="M520.3 24.7637V146H501.202H564.709" stroke="#FF5B22" stroke-width="10" stroke-miterlimit="10"/>
<path d="M545.666 11.5537V143.606" stroke="#FF5B22" stroke-width="10" stroke-miterlimit="10"/>
</svg>
