<svg width="642" height="323" viewBox="0 0 642 323" fill="none" xmlns="http://www.w3.org/2000/svg">
<path d="M593.875 69.7822H628.373" stroke="#FF5B22" stroke-width="10" stroke-miterlimit="10"/>
<path d="M554.875 23.9424V145L537 144.963L636.156 145V126.572" stroke="#FF5B22" stroke-width="10" stroke-miterlimit="10"/>
<path d="M537 5H636.156V23.9416" stroke="#FF5B22" stroke-width="10" stroke-miterlimit="10"/>
<path d="M577.624 11.1055V141.056" stroke="#FF5B22" stroke-width="10" stroke-miterlimit="10"/>
<path d="M580.282 253.218H545.783" stroke="#110CFF" stroke-width="10" stroke-miterlimit="10"/>
<path d="M619.282 299.058V178L637.157 178.037L538 178V196.428" stroke="#110CFF" stroke-width="10" stroke-miterlimit="10"/>
<path d="M637.157 318H538V299.058" stroke="#110CFF" stroke-width="10" stroke-miterlimit="10"/>
<path d="M596.532 311.895V181.944" stroke="#110CFF" stroke-width="10" stroke-miterlimit="10"/>
<path d="M288.875 69.7822H323.373" stroke="#FF5B22" stroke-width="10" stroke-miterlimit="10"/>
<path d="M249.875 23.9424V145L232 144.963L331.156 145V126.572" stroke="#FF5B22" stroke-width="10" stroke-miterlimit="10"/>
<path d="M232 5H331.156V23.9416" stroke="#FF5B22" stroke-width="10" stroke-miterlimit="10"/>
<path d="M272.624 11.1055V141.056" stroke="#FF5B22" stroke-width="10" stroke-miterlimit="10"/>
<path d="M281.282 252.218H246.783" stroke="#110CFF" stroke-width="10" stroke-miterlimit="10"/>
<path d="M320.282 298.058V177L338.157 177.037L239 177V195.428" stroke="#110CFF" stroke-width="10" stroke-miterlimit="10"/>
<path d="M338.157 317H239V298.058" stroke="#110CFF" stroke-width="10" stroke-miterlimit="10"/>
<path d="M297.532 310.895V180.944" stroke="#110CFF" stroke-width="10" stroke-miterlimit="10"/>
<path d="M24.7102 25.6826V145H6.99982H65.5304" stroke="#FF5B22" stroke-width="10" stroke-miterlimit="10"/>
<path d="M6.99982 5H48.2852V138.344C47.9696 138.398 48.2852 143.604 48.2852 143.604" stroke="#FF5B22" stroke-width="10" stroke-miterlimit="10"/>
<path d="M66.2448 68.6206C69.1356 69.6226 77.0604 71.8947 86.1814 68.6206C100.602 63.4322 105.57 48.8328 106.118 47.151C106.916 44.682 110.969 32.1044 104.457 20.3141C98.3095 9.16775 87.0786 6.5914 84.52 6.00099C80.7487 5.14221 76.4623 5.42847 67.9062 6.00099C61.0115 6.46616 55.2963 7.19971 51.2924 7.79012" stroke="#FF5B22" stroke-width="10" stroke-miterlimit="10"/>
<path d="M88.3857 295.317L88.3857 176H106.096H47.5654" stroke="#110CFF" stroke-width="10" stroke-miterlimit="10"/>
<path d="M106.096 316H64.8106L64.8106 182.656C65.1263 182.602 64.8106 177.396 64.8106 177.396" stroke="#110CFF" stroke-width="10" stroke-miterlimit="10"/>
<path d="M46.851 252.379C43.9602 251.377 36.0354 249.105 26.9144 252.379C12.4936 257.568 7.52604 272.167 6.97778 273.849C6.18032 276.318 2.12654 288.896 8.63917 300.686C14.7863 311.832 26.0172 314.409 28.5758 314.999C32.3471 315.858 36.6335 315.572 45.1896 314.999C52.0844 314.534 57.7995 313.8 61.8035 313.21" stroke="#110CFF" stroke-width="10" stroke-miterlimit="10"/>
<path d="M167.06 66.5545C169.835 67.5308 177.443 69.7447 186.2 66.5545C200.045 61.4991 204.814 47.2742 205.34 45.6355C206.106 43.2299 209.998 30.9748 203.745 19.4868C197.844 8.62635 187.061 6.11607 184.605 5.5408C180.984 4.70404 176.869 4.98296 168.655 5.5408C162.036 5.99404 156.549 6.70878 152.705 7.28405" stroke="#FF5B22" stroke-width="10" stroke-miterlimit="10"/>
<path d="M128.905 23.2002V145H112H139.3H166.6" stroke="#FF5B22" stroke-width="10" stroke-miterlimit="10"/>
<path d="M112 5H151.2V140.8" stroke="#FF5B22" stroke-width="10" stroke-miterlimit="10"/>
<path d="M224 153L185 71" stroke="#FF5B22" stroke-width="10" stroke-miterlimit="10"/>
<path d="M169.94 255.445C167.164 254.469 159.556 252.255 150.8 255.445C136.955 260.501 132.186 274.726 131.659 276.364C130.894 278.77 127.002 291.025 133.254 302.513C139.156 313.374 149.938 315.884 152.395 316.459C156.015 317.296 160.13 317.017 168.345 316.459C174.964 316.006 180.451 315.291 184.295 314.716" stroke="#110CFF" stroke-width="10" stroke-miterlimit="10"/>
<path d="M208.094 298.8V177H225H197.7H170.4" stroke="#110CFF" stroke-width="10" stroke-miterlimit="10"/>
<path d="M225 317H185.8V181.2" stroke="#110CFF" stroke-width="10" stroke-miterlimit="10"/>
<path d="M113 169L152 251" stroke="#110CFF" stroke-width="10" stroke-miterlimit="10"/>
<path d="M501.696 43.6798C503.563 43.6798 506.831 43.6798 510.1 43.6798C517.57 43.6798 518.002 44.0731 519.267 43.1653C524.092 39.6796 523.389 20.8169 514.583 12.3024C511.444 9.25238 510.327 8.15069 506.364 6.32863C503.563 5.04049 498.427 5.04006 488.038 5.04049C485.555 4.94972 482.086 5.03991 475.55 5.04006C464.811 4.92796 459.416 5.56698 456.809 6.85596C446.722 11.8303 442.943 24.3571 442.756 25.0106C441.866 28.0788 441.647 32.5085 441.194 41.3499C440.897 47.1412 440.976 50.8629 441.194 54.0581C441.553 59.5046 441.741 62.2278 442.756 64.951C445.067 71.1599 450.376 74.0828 453.686 75.8438C462.695 80.6366 479.7 89.2056 502.091 99.4449" stroke="#FF5B22" stroke-width="10" stroke-miterlimit="10"/>
<path d="M464.456 106.241C461.655 106.241 457.19 106.241 455.585 106.241C452.784 106.241 451.037 106.244 449.049 106.244C446.344 106.244 445.721 107.38 444.847 108.578C443.913 110.913 444.268 110.913 444.268 116.048C444.268 119.784 444.268 119.784 444.268 123.986C444.268 127.254 443.447 133.01 447.069 137.222C451.66 142.541 459.675 144.996 467.613 144.996C468.973 144.996 470.992 144.996 484.532 144.996C494.003 144.996 499.287 145.156 503.675 143.595C509.218 141.634 512.867 138.148 513.835 137.222C516.169 134.989 517.89 133.144 519.904 128.351C521.872 123.649 523.391 116.843 523.172 105.006C522.829 85.7986 521.434 85.1968 519.904 82.1287C517.812 77.9531 512.901 75.5922 505.431 71.8571C494.692 67.1882 497.048 67.9719 484.887 62.5193C477.658 58.961 474.149 57.2203 464.344 51.6176C457.341 47.6157 456.407 46.9487 452.205 44.6143" stroke="#FF5B22" stroke-width="10" stroke-miterlimit="10"/>
<path d="M463.498 278.32C461.63 278.32 458.362 278.32 455.094 278.32C447.623 278.32 447.191 277.927 445.926 278.835C441.101 282.32 441.804 301.183 450.611 309.698C453.749 312.748 454.866 313.849 458.829 315.671C461.63 316.96 466.766 316.96 477.155 316.96C479.638 317.05 483.107 316.96 489.644 316.96C500.382 317.072 505.777 316.433 508.385 315.144C518.472 310.17 522.25 297.643 522.438 296.989C523.328 293.921 523.546 289.491 523.999 280.65C524.296 274.859 524.218 271.137 523.999 267.942C523.64 262.495 523.453 259.772 522.438 257.049C520.127 250.84 514.818 247.917 511.507 246.156C502.498 241.363 485.494 232.794 463.102 222.555" stroke="#110CFF" stroke-width="10" stroke-miterlimit="10"/>
<path d="M500.737 215.759C503.539 215.759 508.004 215.759 509.608 215.759C512.41 215.759 514.156 215.756 516.145 215.756C518.85 215.756 519.472 214.62 520.347 213.422C521.28 211.087 520.925 211.087 520.925 205.952C520.925 202.216 520.925 202.216 520.925 198.014C520.925 194.746 521.746 188.99 518.124 184.778C513.533 179.459 505.518 177.004 497.581 177.004C496.22 177.004 494.201 177.004 480.661 177.004C471.19 177.004 465.906 176.844 461.518 178.405C455.975 180.366 452.327 183.852 451.359 184.778C449.024 187.011 447.303 188.856 445.289 193.649C443.322 198.351 441.802 205.157 442.021 216.994C442.364 236.201 443.759 236.803 445.289 239.871C447.381 244.047 452.292 246.408 459.763 250.143C470.501 254.812 468.145 254.028 480.306 259.481C487.535 263.039 491.044 264.78 500.849 270.382C507.852 274.384 508.786 275.051 512.988 277.386" stroke="#110CFF" stroke-width="10" stroke-miterlimit="10"/>
<path d="M405.696 43.6798C407.563 43.6798 410.831 43.6798 414.1 43.6798C421.57 43.6798 422.002 44.0731 423.267 43.1653C428.092 39.6796 427.389 20.8169 418.583 12.3024C415.444 9.25238 414.327 8.15069 410.364 6.32863C407.563 5.04049 402.427 5.04006 392.038 5.04049C389.555 4.94972 386.086 5.03991 379.55 5.04006C368.811 4.92796 363.416 5.56698 360.809 6.85596C350.722 11.8303 346.943 24.3571 346.756 25.0106C345.866 28.0788 345.647 32.5085 345.194 41.3499C344.897 47.1412 344.976 50.8629 345.194 54.0581C345.553 59.5046 345.741 62.2278 346.756 64.951C349.067 71.1599 354.376 74.0828 357.686 75.8438C366.695 80.6366 383.7 89.2056 406.091 99.4449" stroke="#FF5B22" stroke-width="10" stroke-miterlimit="10"/>
<path d="M368.456 106.241C365.655 106.241 361.19 106.241 359.585 106.241C356.784 106.241 355.037 106.244 353.049 106.244C350.344 106.244 349.721 107.38 348.847 108.578C347.913 110.913 348.268 110.913 348.268 116.048C348.268 119.784 348.268 119.784 348.268 123.986C348.268 127.254 347.447 133.01 351.069 137.222C355.66 142.541 363.675 144.996 371.613 144.996C372.973 144.996 374.992 144.996 388.532 144.996C398.003 144.996 403.287 145.156 407.675 143.595C413.218 141.634 416.867 138.148 417.835 137.222C420.169 134.989 421.89 133.144 423.904 128.351C425.872 123.649 427.391 116.843 427.172 105.006C426.829 85.7986 425.434 85.1968 423.904 82.1287C421.812 77.9531 416.901 75.5922 409.431 71.8571C398.692 67.1882 401.048 67.9719 388.887 62.5193C381.658 58.961 378.149 57.2203 368.344 51.6176C361.341 47.6157 360.407 46.9487 356.205 44.6143" stroke="#FF5B22" stroke-width="10" stroke-miterlimit="10"/>
<path d="M367.498 278.32C365.63 278.32 362.362 278.32 359.094 278.32C351.623 278.32 351.191 277.927 349.926 278.835C345.101 282.32 345.804 301.183 354.611 309.698C357.749 312.748 358.866 313.849 362.829 315.671C365.63 316.96 370.766 316.96 381.155 316.96C383.638 317.05 387.107 316.96 393.644 316.96C404.382 317.072 409.777 316.433 412.385 315.144C422.472 310.17 426.25 297.643 426.438 296.989C427.328 293.921 427.546 289.491 427.999 280.65C428.296 274.859 428.218 271.137 427.999 267.942C427.64 262.495 427.453 259.772 426.438 257.049C424.127 250.84 418.818 247.917 415.507 246.156C406.498 241.363 389.494 232.794 367.102 222.555" stroke="#110CFF" stroke-width="10" stroke-miterlimit="10"/>
<path d="M404.737 215.759C407.539 215.759 412.004 215.759 413.608 215.759C416.41 215.759 418.156 215.756 420.145 215.756C422.85 215.756 423.472 214.62 424.347 213.422C425.28 211.087 424.925 211.087 424.925 205.952C424.925 202.216 424.925 202.216 424.925 198.014C424.925 194.746 425.747 188.99 422.124 184.778C417.533 179.459 409.518 177.004 401.581 177.004C400.22 177.004 398.201 177.004 384.661 177.004C375.19 177.004 369.906 176.844 365.519 178.405C359.975 180.366 356.327 183.852 355.359 184.778C353.024 187.011 351.303 188.856 349.289 193.649C347.322 198.351 345.802 205.157 346.021 216.994C346.364 236.201 347.759 236.803 349.289 239.871C351.381 244.047 356.292 246.408 363.763 250.143C374.501 254.812 372.145 254.028 384.306 259.481C391.535 263.039 395.044 264.78 404.849 270.382C411.852 274.384 412.786 275.051 416.988 277.386" stroke="#110CFF" stroke-width="10" stroke-miterlimit="10"/>
</svg>
