<svg width="861" height="320" viewBox="0 0 861 320" fill="none" xmlns="http://www.w3.org/2000/svg">
<path d="M860.333 315H828.258L771.283 233.182H802.468L839.783 289.546V175H827.744" stroke="#110CFF" stroke-width="10" stroke-miterlimit="10"/>
<path d="M860.333 175H822.692" stroke="#110CFF" stroke-width="10" stroke-miterlimit="10"/>
<path d="M771.283 258.709L732.7 315H714" stroke="#110CFF" stroke-width="10" stroke-miterlimit="10"/>
<path d="M731.896 294.999V174.999H748.884H714" stroke="#110CFF" stroke-width="10" stroke-miterlimit="10"/>
<path d="M605.608 5H658.093L701.528 144.997H676.462H658.545" stroke="#FF5B22" stroke-width="10" stroke-miterlimit="10"/>
<path d="M636.377 25.0703L676.464 145" stroke="#FF5B22" stroke-width="10" stroke-miterlimit="10"/>
<path d="M625.3 5L598.569 144.997H580H618.766" stroke="#FF5B22" stroke-width="10" stroke-miterlimit="10"/>
<path d="M608.161 94.7334H642.222" stroke="#FF5B22" stroke-width="10" stroke-miterlimit="10"/>
<path d="M675.92 315H623.435L580 175.003H605.066H622.983" stroke="#110CFF" stroke-width="10" stroke-miterlimit="10"/>
<path d="M645.151 294.93L605.064 175" stroke="#110CFF" stroke-width="10" stroke-miterlimit="10"/>
<path d="M656.228 315L682.959 175.003H701.528H662.762" stroke="#110CFF" stroke-width="10" stroke-miterlimit="10"/>
<path d="M673.367 225.267H639.306" stroke="#110CFF" stroke-width="10" stroke-miterlimit="10"/>
<path d="M378.559 25.0605V139.457" stroke="#FF5B22" stroke-width="10" stroke-miterlimit="10"/>
<path d="M418.264 114.024V94.0557H464.157" stroke="#FF5B22" stroke-width="10" stroke-miterlimit="10"/>
<path d="M445.465 97.5298C445.429 99.5838 445.393 103.001 445.465 106.876C445.608 114.771 445.465 116.69 445.465 118.559C445.465 120.429 445.688 122.298 444.53 125.569C443.833 127.539 443.595 131.177 438.922 135.85C438.238 136.535 431.36 143.03 425.37 144.262C422.195 144.923 418.552 144.958 405.029 144.886C402.931 144.886 401.156 144.886 399.362 144.886C390.79 144.904 389.821 145.029 387.131 144.994C380.011 144.886 375.958 144.708 370.991 143.083C364.319 140.904 360.517 136.742 359.638 135.813C358.813 134.938 355.89 131.741 353.971 126.74C352.644 123.275 352.339 120.382 352.088 117.667C351.873 115.417 352.124 116.203 352.088 108.594C352.088 104.593 351.981 98.6994 352.088 94.0735C352.088 94.0199 352.088 93.9485 352.088 93.877C352.16 90.1621 352.088 87.4473 352.088 86.8043C352.052 84.8932 352.034 80.1602 352.088 68.6402V41.4031C352.088 36.1164 352.088 36.2414 352.088 35.9556C352.339 30.1689 353.702 25.9538 353.971 25.0608C354.653 22.9354 355.298 20.9529 356.805 18.5953C359.513 14.3266 363.028 12.0227 365.324 10.5402C366.633 9.7008 369.251 8.14694 372.892 6.91457C377.142 5.48574 380.747 5.18211 382.343 5.09281C382.737 5.07495 384.316 5.07494 387.472 5.07494C389.893 5.07494 390.718 5.07495 393.695 5.09281C395.722 5.09281 397.371 5.09281 399.362 5.09281C402.249 5.09281 402.895 5.05708 407.504 5.02136C412.472 4.98564 413.261 4.98564 414.498 5.09281C416.955 5.30713 418.91 5.6822 419.789 5.86081C421.331 6.18229 422.479 6.50378 423.95 6.91457C425.976 7.48611 427.285 7.84331 428.505 8.30768C432.056 9.64722 434.441 11.6297 435.302 12.362C438.404 15.0053 439.947 17.7559 440.969 19.6312C444.269 25.6502 444.854 30.6133 444.997 33.5067C444.997 34.9086 444.997 36.7779 444.997 37.7126" stroke="#FF5B22" stroke-width="10" stroke-miterlimit="10"/>
<path d="M427.598 294.939V180.543" stroke="#110CFF" stroke-width="10" stroke-miterlimit="10"/>
<path d="M387.893 205.976V225.944H342" stroke="#110CFF" stroke-width="10" stroke-miterlimit="10"/>
<path d="M360.693 222.47C360.729 220.416 360.765 216.999 360.693 213.124C360.549 205.229 360.693 203.31 360.693 201.441C360.693 199.571 360.47 197.702 361.628 194.431C362.325 192.461 362.562 188.823 367.235 184.15C367.92 183.465 374.798 176.97 380.788 175.738C383.962 175.077 387.606 175.042 401.128 175.114C403.226 175.114 405.002 175.114 406.795 175.114C415.368 175.096 416.336 174.971 419.026 175.006C426.146 175.114 430.199 175.292 435.167 176.917C441.838 179.096 445.64 183.258 446.519 184.187C447.344 185.062 450.267 188.259 452.186 193.26C453.513 196.725 453.818 199.618 454.069 202.333C454.284 204.583 454.033 203.797 454.069 211.406C454.069 215.407 454.177 221.301 454.069 225.926C454.069 225.98 454.069 226.052 454.069 226.123C453.997 229.838 454.069 232.553 454.069 233.196C454.105 235.107 454.123 239.84 454.069 251.36V278.597C454.069 283.884 454.069 283.759 454.069 284.044C453.818 289.831 452.455 294.046 452.186 294.939C451.505 297.065 450.859 299.047 449.353 301.405C446.644 305.673 443.129 307.977 440.834 309.46C439.525 310.299 436.906 311.853 433.266 313.085C429.015 314.514 425.411 314.818 423.815 314.907C423.42 314.925 421.842 314.925 418.685 314.925C416.264 314.925 415.439 314.925 412.462 314.907C410.436 314.907 408.786 314.907 406.795 314.907C403.908 314.907 403.262 314.943 398.653 314.979C393.686 315.014 392.896 315.014 391.659 314.907C389.202 314.693 387.247 314.318 386.368 314.139C384.826 313.818 383.678 313.496 382.208 313.085C380.181 312.514 378.872 312.157 377.653 311.692C374.102 310.353 371.716 308.37 370.856 307.638C367.753 304.995 366.211 302.244 365.188 300.369C361.889 294.35 361.304 289.387 361.16 286.493C361.16 285.091 361.16 283.222 361.16 282.287" stroke="#110CFF" stroke-width="10" stroke-miterlimit="10"/>
<path d="M714 5H746.075L803.05 86.818H771.865L734.55 30.4545V145H746.589" stroke="#FF5B22" stroke-width="10" stroke-miterlimit="10"/>
<path d="M714 145H751.641" stroke="#FF5B22" stroke-width="10" stroke-miterlimit="10"/>
<path d="M803.05 61.2908L841.632 5H860.333" stroke="#FF5B22" stroke-width="10" stroke-miterlimit="10"/>
<path d="M842.437 25.001V145.001H825.449H860.332" stroke="#FF5B22" stroke-width="10" stroke-miterlimit="10"/>
<path d="M264.823 28.334L264.472 141.091" stroke="#FF5B22" stroke-width="10" stroke-miterlimit="10"/>
<path d="M280.732 5.01591H294.365C294.365 5.01591 301.825 5.1233 307.999 6.80571C309.479 7.21736 314.017 8.48812 318.166 11.5129C321.379 13.8575 324.768 17.5445 327.475 24.7037C330.884 33.7063 329.598 38.3956 329.423 64.0792C329.384 70.0392 329.423 76.0171 329.423 81.9771V101.665C329.345 112.314 329.267 119.921 325.528 126.722C321.535 133.971 315.976 138.389 313.035 140C304.913 144.457 301.702 145 292.221 145C281.436 145 261.357 145 256.619 145C250.047 145 242.379 138 242.379 138C242.379 138 236.354 133.5 235.258 123.5C234.163 113.5 234.163 108.5 234.163 101.5C234.163 93.5 233.949 95.7407 234.163 81.9771C234.319 72.1512 234.221 63.5796 234.163 60C234.065 53.0019 233.851 45.5084 234.163 34C234.338 27.5209 234.569 23.2631 237.997 17.5C240.237 13.7414 242.851 11.5906 243.474 11C245.402 9.2102 247.5 8.32703 251.142 6.80571C252.155 6.39405 256.616 5.19489 260.453 5.01591C261.174 4.98011 260.34 5.01591 263.203 5.01591C265.696 5.01591 267.722 5.01591 269.046 5.01591" stroke="#FF5B22" stroke-width="10" stroke-miterlimit="10"/>
<path d="M298.983 291.666L299.333 178.909" stroke="#110CFF" stroke-width="10" stroke-miterlimit="10"/>
<path d="M283.073 314.984H269.44C269.44 314.984 261.98 314.877 255.806 313.194C254.326 312.783 249.788 311.512 245.64 308.487C242.426 306.142 239.037 302.456 236.33 295.296C232.921 286.294 234.207 281.604 234.382 255.921C234.421 249.961 234.382 243.983 234.382 238.023V218.335C234.46 207.686 234.538 200.079 238.278 193.278C242.27 186.029 247.829 181.611 250.77 180C258.892 175.543 262.103 175 271.584 175C282.369 175 302.448 175 307.186 175C313.759 175 321.427 182 321.427 182C321.427 182 327.452 186.5 328.547 196.5C329.643 206.5 329.642 211.5 329.643 218.5C329.643 226.5 329.857 224.259 329.643 238.023C329.487 247.849 329.584 256.42 329.643 260C329.74 266.998 329.954 274.492 329.643 286C329.467 292.479 329.236 296.737 325.809 302.5C323.569 306.259 320.955 308.409 320.332 309C318.403 310.79 316.305 311.673 312.663 313.194C311.65 313.606 307.189 314.805 303.352 314.984C302.631 315.02 303.465 314.984 300.602 314.984C298.109 314.984 296.084 314.984 294.759 314.984" stroke="#110CFF" stroke-width="10" stroke-miterlimit="10"/>
<path d="M22.7104 25.6826V145H5.00006H63.5306" stroke="#FF5B22" stroke-width="10" stroke-miterlimit="10"/>
<path d="M5.00006 5H46.2855V138.344C45.9698 138.398 46.2855 143.604 46.2855 143.604" stroke="#FF5B22" stroke-width="10" stroke-miterlimit="10"/>
<path d="M64.2451 68.6206C67.1359 69.6226 75.0607 71.8947 84.1817 68.6206C98.6025 63.4322 103.57 48.8328 104.118 47.151C104.916 44.682 108.97 32.1044 102.457 20.3141C96.3098 9.16775 85.0788 6.5914 82.5203 6.00099C78.7489 5.14221 74.4626 5.42847 65.9064 6.00099C59.0117 6.46616 53.2965 7.19971 49.2926 7.79012" stroke="#FF5B22" stroke-width="10" stroke-miterlimit="10"/>
<path d="M88.3857 294.317L88.3857 175H106.096H47.5654" stroke="#110CFF" stroke-width="10" stroke-miterlimit="10"/>
<path d="M106.096 315H64.8106L64.8106 181.656C65.1263 181.602 64.8106 176.396 64.8106 176.396" stroke="#110CFF" stroke-width="10" stroke-miterlimit="10"/>
<path d="M46.851 251.379C43.9602 250.377 36.0354 248.105 26.9144 251.379C12.4936 256.568 7.52604 271.167 6.97778 272.849C6.18032 275.318 2.12654 287.896 8.63917 299.686C14.7863 310.832 26.0172 313.409 28.5758 313.999C32.3471 314.858 36.6335 314.572 45.1896 313.999C52.0844 313.534 57.7995 312.8 61.8035 312.21" stroke="#110CFF" stroke-width="10" stroke-miterlimit="10"/>
<path d="M165.06 66.5545C167.835 67.5308 175.444 69.7447 184.2 66.5545C198.045 61.4991 202.814 47.2742 203.341 45.6355C204.106 43.2299 207.998 30.9748 201.746 19.4868C195.844 8.62635 185.062 6.11607 182.605 5.5408C178.985 4.70404 174.87 4.98296 166.655 5.5408C160.036 5.99404 154.549 6.70878 150.705 7.28405" stroke="#FF5B22" stroke-width="10" stroke-miterlimit="10"/>
<path d="M126.905 23.2002V145H110H137.3H164.6" stroke="#FF5B22" stroke-width="10" stroke-miterlimit="10"/>
<path d="M110 5H149.2V140.8" stroke="#FF5B22" stroke-width="10" stroke-miterlimit="10"/>
<path d="M222 153L183 71" stroke="#FF5B22" stroke-width="10" stroke-miterlimit="10"/>
<path d="M166.94 253.445C164.165 252.469 156.556 250.255 147.8 253.445C133.955 258.501 129.186 272.726 128.66 274.364C127.894 276.77 124.002 289.025 130.255 300.513C136.156 311.374 146.938 313.884 149.395 314.459C153.015 315.296 157.131 315.017 165.345 314.459C171.964 314.006 177.451 313.291 181.295 312.716" stroke="#110CFF" stroke-width="10" stroke-miterlimit="10"/>
<path d="M205.095 296.8V175H222H194.7H167.4" stroke="#110CFF" stroke-width="10" stroke-miterlimit="10"/>
<path d="M222 315H182.8V179.2" stroke="#110CFF" stroke-width="10" stroke-miterlimit="10"/>
<path d="M110 167L149 249" stroke="#110CFF" stroke-width="10" stroke-miterlimit="10"/>
<path d="M518.06 66.5545C520.836 67.5308 528.444 69.7447 537.2 66.5545C551.045 61.4991 555.814 47.2742 556.341 45.6355C557.106 43.2299 560.998 30.9748 554.746 19.4868C548.844 8.62635 538.062 6.11607 535.605 5.5408C531.985 4.70404 527.87 4.98296 519.655 5.5408C513.036 5.99404 507.549 6.70878 503.705 7.28405" stroke="#FF5B22" stroke-width="10" stroke-miterlimit="10"/>
<path d="M479.905 23.2002V145H463H490.3H517.6" stroke="#FF5B22" stroke-width="10" stroke-miterlimit="10"/>
<path d="M463 5H502.2V140.8" stroke="#FF5B22" stroke-width="10" stroke-miterlimit="10"/>
<path d="M575 153L536 71" stroke="#FF5B22" stroke-width="10" stroke-miterlimit="10"/>
<path d="M516.94 253.445C514.165 252.469 506.556 250.255 497.8 253.445C483.955 258.501 479.186 272.726 478.66 274.364C477.894 276.77 474.002 289.025 480.255 300.513C486.156 311.374 496.938 313.884 499.395 314.459C503.015 315.296 507.131 315.017 515.345 314.459C521.964 314.006 527.451 313.291 531.295 312.716" stroke="#110CFF" stroke-width="10" stroke-miterlimit="10"/>
<path d="M555.095 296.8V175H572H544.7H517.4" stroke="#110CFF" stroke-width="10" stroke-miterlimit="10"/>
<path d="M572 315H532.8V179.2" stroke="#110CFF" stroke-width="10" stroke-miterlimit="10"/>
<path d="M460 167L499 249" stroke="#110CFF" stroke-width="10" stroke-miterlimit="10"/>
</svg>
