<svg width="101" height="101" viewBox="0 0 101 101" fill="none" xmlns="http://www.w3.org/2000/svg">
<path d="M77.7702 51.5521C78.0537 51.5523 78.3344 51.4952 78.5953 51.3842C78.8562 51.2733 79.0921 51.1107 79.2886 50.9063C79.4851 50.7019 79.6383 50.4599 79.739 50.1948C79.8396 49.9297 79.8857 49.6471 79.8743 49.3637C79.324 41.95 75.9903 35.0187 70.5421 29.9607C65.0938 24.9028 57.9343 22.0925 50.5002 22.0937C34.9714 22.0937 22.2622 34.0875 21.126 49.3637C21.1147 49.6471 21.1607 49.9297 21.2613 50.1948C21.362 50.4599 21.5152 50.7019 21.7117 50.9063C21.9083 51.1107 22.1441 51.2733 22.405 51.3842C22.6659 51.4952 22.9466 51.5523 23.2302 51.5521H77.7702ZM92.5835 54.7083H92.2468C89.9322 54.7083 88.0385 52.8146 88.0385 50.5C88.0385 48.1854 89.9322 46.2916 92.2468 46.2916C94.5614 46.2916 96.6235 48.1854 96.6235 50.5C96.6235 52.8146 94.8981 54.7083 92.5835 54.7083ZM8.7535 54.7083H8.41683C6.10225 54.7083 4.2085 52.8146 4.2085 50.5C4.2085 48.1854 6.10225 46.2916 8.41683 46.2916C10.7314 46.2916 12.7935 48.1854 12.7935 50.5C12.7935 52.8146 11.0681 54.7083 8.7535 54.7083ZM80.0006 25.2079C78.9064 25.2079 77.8543 24.7871 77.0127 23.9875C76.6225 23.5982 76.313 23.1357 76.1018 22.6266C75.8907 22.1175 75.782 21.5718 75.782 21.0206C75.782 20.4694 75.8907 19.9237 76.1018 19.4146C76.313 18.9055 76.6225 18.4431 77.0127 18.0537L77.5597 17.5066C77.9494 17.117 78.4119 16.808 78.921 16.5971C79.43 16.3863 79.9756 16.2777 80.5266 16.2777C81.0776 16.2777 81.6232 16.3863 82.1323 16.5971C82.6413 16.808 83.1039 17.117 83.4935 17.5066C83.8831 17.8963 84.1922 18.3588 84.403 18.8679C84.6139 19.3769 84.7224 19.9225 84.7224 20.4735C84.7224 21.0245 84.6139 21.5701 84.403 22.0792C84.1922 22.5882 83.8831 23.0508 83.4935 23.4404L82.9464 23.9875C82.1468 24.7871 81.0947 25.2079 80.0006 25.2079ZM20.9997 25.2079C19.9056 25.2079 18.8535 24.7871 18.0118 23.9875L17.4647 23.3983C17.0751 23.0087 16.7661 22.5462 16.5552 22.0371C16.3444 21.528 16.2358 20.9824 16.2358 20.4314C16.2358 19.8804 16.3444 19.3348 16.5552 18.8258C16.7661 18.3167 17.0751 17.8542 17.4647 17.4646C17.8544 17.0749 18.3169 16.7659 18.826 16.555C19.335 16.3442 19.8806 16.2356 20.4316 16.2356C20.9826 16.2356 21.5282 16.3442 22.0373 16.555C22.5463 16.7659 23.0089 17.0749 23.3985 17.4646L23.9456 18.0116C25.5868 19.6529 25.5868 22.3041 23.9456 23.9454C23.146 24.7871 22.0518 25.2079 20.9997 25.2079ZM50.5002 12.7933C48.1856 12.7933 46.2918 11.0679 46.2918 8.75331V8.41665C46.2918 6.10206 48.1856 4.20831 50.5002 4.20831C52.8147 4.20831 54.7085 6.10206 54.7085 8.41665C54.7085 10.7312 52.8147 12.7933 50.5002 12.7933ZM84.1668 66.2812H16.8335C15.1081 66.2812 13.6772 64.8504 13.6772 63.125C13.6772 61.3996 15.1081 59.9687 16.8335 59.9687H84.1668C85.8922 59.9687 87.3231 61.3996 87.3231 63.125C87.3231 64.8504 85.8922 66.2812 84.1668 66.2812ZM75.7502 78.9062H25.2502C23.5247 78.9062 22.0939 77.4754 22.0939 75.75C22.0939 74.0246 23.5247 72.5937 25.2502 72.5937H75.7502C77.4756 72.5937 78.9064 74.0246 78.9064 75.75C78.9064 77.4754 77.4756 78.9062 75.7502 78.9062ZM63.1252 91.5312H37.8752C36.1497 91.5312 34.7189 90.1004 34.7189 88.375C34.7189 86.6496 36.1497 85.2187 37.8752 85.2187H63.1252C64.8506 85.2187 66.2814 86.6496 66.2814 88.375C66.2814 90.1004 64.8506 91.5312 63.1252 91.5312Z" fill="#110CFF"/>
</svg>
