<svg width="101" height="101" viewBox="0 0 101 101" fill="none" xmlns="http://www.w3.org/2000/svg">
<path d="M79.9587 37.875C79.9587 21.5888 66.7866 8.41669 50.5003 8.41669C34.2141 8.41669 21.042 21.5888 21.042 37.875C21.042 53.1092 32.5728 65.6079 47.3441 67.165V76.8021H37.8753C36.1499 76.8021 34.7191 78.2329 34.7191 79.9584C34.7191 81.6838 36.1499 83.1146 37.8753 83.1146H47.3441V92.5834C47.3441 94.3088 48.7749 95.7396 50.5003 95.7396C52.2257 95.7396 53.6566 94.3088 53.6566 92.5834V83.1146H63.1253C64.8507 83.1146 66.2816 81.6838 66.2816 79.9584C66.2816 78.2329 64.8507 76.8021 63.1253 76.8021H53.6566V67.165C60.8831 66.391 67.5679 62.9709 72.4238 57.5633C77.2798 52.1557 79.9636 45.1429 79.9587 37.875Z" fill="#110CFF"/>
</svg>
